<svg height="225.80078pt" viewBox="0 0 760.21875 225.80078" width="760.21875pt" xmlns="http://www.w3.org/2000/svg"><g transform="translate(-17.92578 -195.69922)"><path d="m374.90234 321.55859-.15234-105.85937h-13.77344s-.0547 100.64453-.0547 110.94531c0 12.69531 2.66797 20.3125 7.5 25.07031 3.69141 3.63282 10.15235 8.53907 20.38282 8.53907v-13.07813c-4.60547 0-9.29297-1.84375-11.70703-6.20703-2.49219-4.49609-2.19532-12.59375-2.19532-19.41016" fill="#0073cf"/><path d="m559.55859 261.04687h-13.77734v11.5625h13.00391v84.20313h13.76953v-95.76563zm0 0" fill="#0073cf"/><path d="m574.19531 234.08984c0-4.63281-3.8164-8.39062-8.52344-8.39062-4.70703 0-8.52343 3.75781-8.52343 8.39062 0 4.63282 3.8164 8.39063 8.52343 8.39063 4.70704 0 8.52344-3.75781 8.52344-8.39063" fill="#0073cf"/><path d="m50.035156 401.5h-12.109375v-185.14453h12.109375zm0 0" fill="#faca05"/><path d="m758.14453 401.32031h-12.78906v-184.78515h12.78906zm0 0" fill="#faca05"/><g fill="#0073cf"><path d="m467.15625 346.85156c-17.93359 0-28.78906-16.98047-28.78906-37.92187 0-20.94532 11.22265-37.92188 28.78906-37.92188 18.03516 0 28.78516 16.97656 28.78516 37.92188 0 20.9414-10.83594 37.92187-28.78516 37.92187m0-87.76953c-26.16016 0-42.87891 22.31641-42.87891 49.84766 0 27.52734 16.17578 49.84765 42.87891 49.84765 26.73437 0 42.875-22.32031 42.875-49.84765 0-27.53125-16.01172-49.84766-42.875-49.84766"/><path d="m297.78906 332.17578s-10.68359 14.98438-27.19922 14.98438c-11.26172 0-18.89843-5.2461-19.78906-13.83204-1.51172-14.53515 11.28906-23.85937 43.14063-23.85937 2.70312 0 3.84765-.24609 3.84765-.24609zm14.1211 1.32813v-44.27344c0-17.85156-14.35157-29.05078-32.4375-29.05078-11.95704 0-26.26954 5.38672-33.0625 8.12109l4.76171 10.59375c5.40235-2.02344 15.12891-6.81641 28.1875-6.81641 8.38282 0 18.44532 3.08985 18.44532 18.80079 0 4.34375-.0156 8.71484-.0156 8.71484-49.86719 0-60.57031 18.10156-60.57031 32.03516 0 19.03906 16.40234 26.55078 31.1875 26.55078 16.88672 0 28.05078-11.65625 29.38281-13.11719l.20313-.008c6.9414 14.47265 23.09765 13.83593 23.09765 13.83593v-11.91406c-5.15625 0-9.17968-3.61328-9.17968-13.47265"/><path d="m152.71484 390.4375c-16.22265 0-21.79297-8.14453-21.79297-15.74219 0-12.32422 16.10938-17.94531 17.5625-17.94531h19.79297c13.27735 0 22.625-.62109 22.625 11.57031 0 12.44531-21.03906 22.11719-38.1875 22.11719m6.26953-123.35547c13.17579 0 23.85547 12.01563 23.85547 26.83203 0 14.82031-10.67968 26.83203-23.85547 26.83203-13.17578 0-23.85546-12.01172-23.85546-26.83203 0-14.8164 10.67968-26.83203 23.85546-26.83203m18.64063 75.92969h-30.39063c-5.26953 0-14.91406 0-14.91406-5.90625 0-5.92578 10.46094-8.83594 16.13672-8.70703l-.043-.0195c3.35547.9414 6.90235 1.45703 10.57031 1.45703 20.6836 0 37.38672-16.08203 37.38672-35.92188 0-7.85937-2.57422-15.125-7.03906-21.03906h14.1875v-11.57034h-28.832c-4.77734-2.11719-10.09375-3.3086-15.70313-3.3086-20.68359 0-37.65234 16.08203-37.65234 35.91797 0 11.8125 6.01563 22.29297 15.25 28.83594l-.0898-.0391c-8.25782 2.10156-15.97656 7.875-15.97656 16.74609 0 13.71484 16.14062 15 16.14062 15l.0195.24609s-17.14844 7.40235-17.14844 23.33985c0 16.58984 15.28907 23.45703 31.05078 23.45703 23.33985 0 55.33204-16.01563 55.33204-35.85156 0-22.42188-22.46094-22.63672-28.28516-22.63672"/><path d="m653.59375 260.21484c-17.07813 0-36.10938 7.57032-36.10938 24.78907 0 33.51171 53.59375 23.66015 53.59375 45.91406 0 11.12109-12.40234 14.25781-21.29687 14.25781-15.67969 0-32.03125-7.79687-32.04297-7.79297l-3.46484 12.72266c8.38672 4.21484 22.60547 7.54297 33.71875 7.54297 19.375 0 36.8789-8.42969 36.8789-28.19922 0-31.64063-53.5625-24.0586-53.5625-44.84766 0-7.4375 8.86328-12.8125 21.41797-12.8125 12.85156 0 22.20703 4.03906 22.20703 4.03906l3.54297-11.28125s-9.65625-4.33203-24.88281-4.33203"/></g></g></svg>