<svg xmlns="http://www.w3.org/2000/svg" width="261" height="81" viewBox="0 0 261 81">
  <g fill="none" fill-rule="evenodd" transform="translate(.664 .773)">
    <path fill="#009CA6" d="M79.6289,51.8944 C73.6209,62.1524 62.4369,68.5224 50.4369,68.5224 C44.5559,68.5224 38.7469,66.9844 33.6289,64.0724 C32.3089,63.3234 31.8439,61.6354 32.5949,60.3114 C32.9589,59.6694 33.5499,59.2094 34.2599,59.0124 C34.9699,58.8154 35.7159,58.9104 36.3589,59.2754 C40.6409,61.7134 45.5049,63.0034 50.4289,63.0064 C60.4869,63.0034 69.8499,57.6794 74.8629,49.1104 C75.2379,48.4744 75.8349,48.0224 76.5459,47.8354 C77.2589,47.6494 78.0039,47.7504 78.6399,48.1254 C79.9449,48.8934 80.3889,50.5834 79.6289,51.8944 Z"/>
    <path fill="#949300" d="M49.0903,74.4814 C33.5843,74.4814 20.9463,62.0334 20.9183,46.7364 C20.9183,45.2134 19.6813,43.9764 18.1593,43.9764 C16.6393,43.9764 15.4023,45.2134 15.4023,46.7364 C15.4023,65.0414 30.5133,79.9634 49.0903,80.0004 C50.6123,80.0004 51.8503,78.7624 51.8503,77.2414 C51.8503,75.7194 50.6123,74.4814 49.0903,74.4814"/>
    <path fill="#009CA6" d="M25.5649,22.9931 C24.8099,21.6711 23.1209,21.2091 21.8059,21.9631 C11.3999,27.8821 4.9389,38.9311 4.9409,50.8001 C4.9409,56.6181 6.5069,62.3671 9.4699,67.4231 C9.9609,68.2681 10.8749,68.7921 11.8519,68.7921 C12.3389,68.7921 12.8189,68.6611 13.2449,68.4131 C14.5539,67.6451 14.9989,65.9551 14.2359,64.6441 L14.1419,64.4851 C11.7319,60.3071 10.4579,55.5791 10.4579,50.8001 C10.4609,40.9101 15.8539,31.6961 24.5359,26.7541 C25.8519,26.0021 26.3149,24.3181 25.5649,22.9931"/>
    <path fill="#949300" d="M47.6724 16.8935C47.4774 16.1825 47.0174 15.5905 46.3784 15.2265 41.2634 12.3085 35.4534 10.7675 29.5764 10.7675 17.5734 10.7675 6.3854 17.1395.3804 27.3945.0064 28.0315-.0956 28.7745.0904 29.4885.2764 30.2025.7314 30.8005 1.3624 31.1685 1.7874 31.4195 2.2704 31.5525 2.7614 31.5525 3.7404 31.5525 4.6524 31.0265 5.1414 30.1855 10.1554 21.6145 19.5184 16.2875 29.5754 16.2825 34.5014 16.2875 39.3664 17.5785 43.6464 20.0195 44.9654 20.7695 46.6544 20.3075 47.4074 18.9875 47.7734 18.3485 47.8664 17.6045 47.6724 16.8935M70.7563 11.8305C70.3943 11.1895 69.8053 10.7275 69.0963 10.5315 68.3883 10.3355 67.6443 10.4255 67.0073 10.7865 66.5793 11.0265 66.2223 11.3775 65.9773 11.7995 65.4873 12.6425 65.4823 13.6925 65.9633 14.5415L66.1313 14.8395C70.8323 23.3865 70.6823 33.9575 65.7173 42.5145 63.2523 46.7525 59.7093 50.2935 55.4723 52.7555 54.8373 53.1245 54.3843 53.7195 54.1963 54.4305 54.0093 55.1415 54.1093 55.8825 54.4773 56.5155 54.8443 57.1515 55.4383 57.6045 56.1493 57.7935 56.3843 57.8565 56.6233 57.8885 56.8603 57.8885 57.3403 57.8885 57.8133 57.7615 58.2383 57.5135 63.3083 54.5675 67.5403 50.3365 70.4773 45.2775 76.4783 34.9435 76.5843 22.1255 70.7563 11.8305"/>
    <path fill="#009CA6" d="M64.5933,31.967 C64.5933,33.43 63.4043,34.62 61.9413,34.62 C60.4783,34.62 59.2883,33.43 59.2883,31.968 C59.2623,17.265 47.1193,5.301 32.2183,5.301 L32.2183,5.304 C30.7553,5.304 29.5643,4.114 29.5643,2.651 C29.5643,1.189 30.7553,0 32.2183,0 C50.0653,0.032 64.5883,14.373 64.5933,31.967 Z"/>
    <path fill="#707372" d="M95.7837 26.3359C95.7837 23.0529 93.8237 22.5139 90.1487 22.3669L90.1487 20.2599 106.8087 20.2599 106.8087 22.3669C103.1337 22.5139 101.1737 23.0529 101.1737 26.3359L101.1737 52.4039C101.1737 55.6859 103.1337 56.2259 106.8087 56.3719L106.8087 58.4789 90.1487 58.4789 90.1487 56.3719C93.8237 56.2259 95.7837 55.6859 95.7837 52.4039L95.7837 26.3359zM132.2344 40.7421C132.2344 37.1171 130.3234 35.9891 127.0884 35.9891 124.4444 35.9891 121.0624 37.3611 119.0054 39.0271L119.0054 53.7751C119.0054 56.0291 120.6704 56.2751 122.9244 56.5681L122.9244 58.4791 110.1864 58.4791 110.1864 56.5681C112.4404 56.2751 114.1054 56.0291 114.1054 53.7751L114.1054 37.3611 110.4304 35.6461 110.4304 34.4701 117.5344 32.0201 119.2504 32.0201 119.0054 36.8221C121.1614 34.4701 125.0804 32.0201 128.9514 32.0201 133.7534 32.0201 137.1344 34.3241 137.1344 40.0561L137.1344 53.7751C137.1344 56.0291 138.7994 56.2751 141.0534 56.5681L141.0534 58.4791 128.3144 58.4791 128.3144 56.5681C130.5684 56.2751 132.2344 56.0291 132.2344 53.7751L132.2344 40.7421zM145.2417 56.4213L144.9487 49.9043 147.0057 49.9043C148.0347 54.1183 150.3377 56.3723 154.4057 56.3723 157.8347 56.3723 159.8917 54.8533 159.8917 52.0113 159.8917 49.6603 158.2267 48.7283 155.4337 47.8963L152.0027 46.8173C147.8877 45.5433 145.3407 43.8783 145.3407 39.4183 145.3407 34.8623 148.8667 32.0203 154.4057 32.0203 157.8837 32.0203 160.5287 32.8033 162.8317 34.1273L162.8317 40.2033 160.7747 40.2033C159.9897 36.2343 157.8837 34.6173 154.2567 34.6173 151.6127 34.6173 149.7487 35.8423 149.7487 38.3893 149.7487 40.4483 150.9247 41.3293 153.3747 42.1133L157.2457 43.2893C161.8527 44.6613 164.3507 46.5243 164.3507 51.1783 164.3507 56.0293 160.3817 58.9683 154.4057 58.9683 150.4347 58.9683 147.2517 57.8903 145.2417 56.4213M174.4902 20.9457C176.4012 20.9457 177.9212 22.4657 177.9212 24.3767 177.9212 26.2877 176.4012 27.8057 174.4902 27.8057 172.5792 27.8057 171.0612 26.2877 171.0612 24.3767 171.0612 22.4657 172.5792 20.9457 174.4902 20.9457zM176.9902 53.7757C176.9902 56.0287 178.6552 56.2747 180.9082 56.5687L180.9082 58.4787 168.1712 58.4787 168.1712 56.5687C170.4242 56.2747 172.0902 56.0287 172.0902 53.7757L172.0902 37.3607 168.4142 35.6457 168.4142 34.4697 175.5192 32.0207 177.2352 32.0207 176.9902 37.1167 176.9902 53.7757zM201.1919 42.2607C201.1919 38.7817 199.2809 34.6167 194.7739 34.6167 191.3439 34.6167 189.7269 37.1647 189.7269 40.5947 189.7269 44.0737 191.6869 48.2387 196.1939 48.2387 199.6239 48.2387 201.1919 45.6897 201.1919 42.2607zM188.7949 59.5577C187.7169 60.7817 187.5219 61.8607 187.5219 63.1337 187.5219 66.3677 190.2159 68.2297 195.1159 68.2297 201.4849 68.2297 205.4559 66.4157 205.4559 62.9867 205.4559 60.0967 203.5449 59.5577 200.7519 59.5577L188.7949 59.5577zM200.3099 32.7057L209.8169 32.4607 209.8169 35.8917 207.8559 35.8917 202.0249 35.1067 202.0249 35.2057C204.4259 36.2347 206.2879 38.6847 206.2879 41.6727 206.2879 47.5037 201.6339 50.6887 195.5089 50.6887 193.4509 50.6887 191.3919 50.2467 190.1669 49.8567 189.2849 50.5417 188.4039 51.6187 188.4039 52.7467 188.4039 54.1177 189.2369 54.8537 190.7549 54.8537L201.7799 54.8537C206.8269 54.8537 209.7669 57.1077 209.7669 61.5177 209.7669 66.6617 204.5729 70.7287 194.8229 70.7287 186.1979 70.7287 182.8179 67.3477 182.8179 64.1627 182.8179 61.2227 185.3659 60.0967 187.8159 58.9687 185.7579 58.2337 184.3369 56.5687 184.3369 54.5587 184.3369 51.6187 186.5409 50.1987 188.6489 49.0717 186.1009 47.4537 184.6799 45.0537 184.6799 41.8677 184.6799 35.6957 189.3839 32.0207 195.9489 32.0207 197.6639 32.0207 199.1839 32.3137 200.3099 32.7057zM212.3867 22.4164L212.3867 21.2414 219.4907 18.7914 221.2057 18.7914 220.9607 23.0054 220.9607 36.8214C223.1167 34.4704 227.0377 32.0204 230.9077 32.0204 235.7097 32.0204 239.0897 34.3234 239.0897 40.0564L239.0897 53.7754C239.0897 56.0294 240.7567 56.2744 243.0107 56.5684L243.0107 58.4794 230.2707 58.4794 230.2707 56.5684C232.5247 56.2744 234.1897 56.0294 234.1897 53.7754L234.1897 40.7424C234.1897 37.1164 232.2787 35.9884 229.0457 35.9884 226.3997 35.9884 223.0197 37.3604 220.9607 39.0274L220.9607 53.7754C220.9607 56.0294 222.6277 56.2744 224.8807 56.5684L224.8807 58.4794 212.1407 58.4794 212.1407 56.5684C214.3947 56.2744 216.0617 56.0294 216.0617 53.7754L216.0617 23.7384 212.3867 22.4164zM250.6885 32.5102L258.3325 32.5102 258.3325 35.2052 250.6885 35.2052 250.6885 50.2962C250.6885 53.8242 252.2085 55.3922 255.1965 55.3922 256.5205 55.3922 257.7945 55.1472 259.1165 54.5102L259.7055 55.8822C258.4805 57.2542 256.2745 58.9682 252.8945 58.9682 249.1695 58.9682 245.7885 57.0582 245.7885 52.0112L245.7885 35.2052 242.0165 35.2052 242.0165 33.4892C244.6125 31.9212 246.7205 30.0602 249.2195 26.9242L250.6885 26.9242 250.6885 32.5102z"/>
  </g>
</svg>
