<svg height="80" viewBox="0 0 260 80" width="260" xmlns="http://www.w3.org/2000/svg"><g fill="none" fill-rule="evenodd"><path d="m79.6289 51.8944c-6.008 10.258-17.192 16.628-29.192 16.628-5.881 0-11.69-1.538-16.808-4.45-1.32-.749-1.785-2.437-1.034-3.761.364-.642.955-1.102 1.665-1.299s1.456-.102 2.099.263c4.282 2.438 9.146 3.728 14.07 3.731 10.058-.003 19.421-5.327 24.434-13.896.375-.636.972-1.088 1.683-1.275.713-.186 1.458-.085 2.094.29 1.305.768 1.749 2.458.989 3.769z" fill="#009ca6"/><path d="m49.0903 74.4814c-15.506 0-28.144-12.448-28.172-27.745 0-1.523-1.237-2.76-2.759-2.76-1.52 0-2.757 1.237-2.757 2.76 0 18.305 15.111 33.227 33.688 33.264 1.522 0 2.76-1.238 2.76-2.759 0-1.522-1.238-2.76-2.76-2.76" fill="#949300"/><path d="m25.5649 22.9931c-.755-1.322-2.444-1.784-3.759-1.03-10.406 5.919-16.867 16.968-16.865 28.837 0 5.818 1.566 11.567 4.529 16.623.491.845 1.405 1.369 2.382 1.369.487 0 .967-.131 1.393-.379 1.309-.768 1.754-2.458.991-3.769l-.094-.159c-2.41-4.178-3.684-8.906-3.684-13.685.003-9.89 5.396-19.104 14.078-24.046 1.316-.752 1.779-2.436 1.029-3.761" fill="#009ca6"/><path d="m47.6724 16.8935c-.195-.711-.655-1.303-1.294-1.667-5.115-2.918-10.925-4.459-16.802-4.459-12.003 0-23.191 6.372-29.196 16.627-.374.637-.476 1.38-.29 2.094s.641 1.312 1.272 1.68c.425.251.908.384 1.399.384.979 0 1.891-.526 2.38-1.367 5.014-8.571 14.377-13.898 24.434-13.903 4.926.005 9.791 1.296 14.071 3.737 1.319.75 3.008.288 3.761-1.032.366-.639.459-1.383.265-2.094m23.0839-5.063c-.362-.641-.951-1.103-1.66-1.299-.708-.196-1.452-.106-2.089.255-.428.24-.785.591-1.03 1.013-.49.843-.495 1.893-.014 2.742l.168.298c4.701 8.547 4.551 19.118-.414 27.675-2.465 4.238-6.008 7.779-10.245 10.241-.635.369-1.088.964-1.276 1.675-.187.711-.087 1.452.281 2.085.367.636.961 1.089 1.672 1.278.235.063.474.095.711.095.48 0 .953-.127 1.378-.375 5.07-2.946 9.302-7.177 12.239-12.236 6.001-10.334 6.107-23.152.279-33.447" fill="#949300"/><path d="m64.5933 31.967c0 1.463-1.189 2.653-2.652 2.653s-2.653-1.19-2.653-2.652c-.026-14.703-12.169-26.667-27.07-26.667v.003c-1.463 0-2.654-1.19-2.654-2.653 0-1.462 1.191-2.651 2.654-2.651 17.847.032 32.37 14.373 32.375 31.967z" fill="#009ca6"/><path d="m95.7837 20.6064c0-3.283-1.96-3.822-5.635-3.968v-2.108h16.66v2.108c-3.675.146-5.635.685-5.635 3.968v26.068c0 3.283 1.96 3.822 5.635 3.969v2.107h-16.66v-2.107c3.675-.147 5.635-.686 5.635-3.969zm36.4507 14.4067c0-3.626-1.911-4.753-5.146-4.753-2.644 0-6.026 1.371-8.083 3.038v14.748c0 2.254 1.665 2.499 3.919 2.793v1.911h-12.738v-1.911c2.254-.294 3.919-.539 3.919-2.793v-16.415l-3.675-1.714v-1.176l7.104-2.45h1.716l-.245 4.801c2.156-2.351 6.075-4.801 9.946-4.801 4.802 0 8.183 2.303 8.183 8.036v13.719c0 2.254 1.665 2.499 3.919 2.793v1.911h-12.739v-1.911c2.254-.294 3.92-.539 3.92-2.793zm13.0073 15.6792-.293-6.518h2.057c1.029 4.215 3.332 6.469 7.4 6.469 3.429 0 5.486-1.519 5.486-4.361 0-2.351-1.665-3.283-4.458-4.115l-3.431-1.079c-4.115-1.274-6.662-2.939-6.662-7.399 0-4.556 3.526-7.398 9.065-7.398 3.478 0 6.123.783 8.426 2.107v6.076h-2.057c-.785-3.969-2.891-5.586-6.518-5.586-2.644 0-4.508 1.224-4.508 3.772 0 2.059 1.176 2.94 3.626 3.724l3.871 1.176c4.607 1.372 7.105 3.235 7.105 7.889 0 4.85-3.969 7.79-9.945 7.79-3.971 0-7.154-1.078-9.164-2.547m29.2485-35.4756c1.911 0 3.431 1.52 3.431 3.431s-1.52 3.429-3.431 3.429-3.429-1.518-3.429-3.429 1.518-3.431 3.429-3.431zm2.5 32.83c0 2.253 1.665 2.499 3.918 2.793v1.91h-12.737v-1.91c2.253-.294 3.919-.54 3.919-2.793v-16.415l-3.676-1.715v-1.176l7.105-2.45h1.716l-.245 5.096zm24.2017-11.515c0-3.479-1.911-7.644-6.418-7.644-3.43 0-5.047 2.548-5.047 5.978 0 3.479 1.96 7.644 6.467 7.644 3.43 0 4.998-2.549 4.998-5.978zm-12.397 17.296c-1.078 1.225-1.273 2.304-1.273 3.577 0 3.234 2.694 5.096 7.594 5.096 6.369 0 10.34-1.814 10.34-5.243 0-2.891-1.911-3.43-4.704-3.43zm11.515-26.851 9.507-.245v3.431h-1.961l-5.831-.785v.099c2.401 1.029 4.263 3.479 4.263 6.466 0 5.832-4.654 9.017-10.779 9.017-2.058 0-4.117-.442-5.342-.833-.882.686-1.763 1.763-1.763 2.891 0 1.371.833 2.107 2.351 2.107h11.025c5.047 0 7.987 2.254 7.987 6.664 0 5.144-5.194 9.211-14.944 9.211-8.625 0-12.005-3.381-12.005-6.567 0-2.939 2.548-4.066 4.998-5.193-2.058-.735-3.479-2.4-3.479-4.41 0-2.94 2.204-4.36 4.312-5.487-2.548-1.618-3.969-4.018-3.969-7.204 0-6.172 4.704-9.848 11.269-9.848 1.715 0 3.235.294 4.361.686zm12.0768-10.2893v-1.176l7.104-2.449h1.715l-.245 4.213v13.817c2.156-2.351 6.077-4.801 9.947-4.801 4.802 0 8.182 2.303 8.182 8.036v13.719c0 2.253 1.667 2.499 3.921 2.793v1.911h-12.74v-1.911c2.254-.294 3.919-.54 3.919-2.793v-13.033c0-3.626-1.911-4.754-5.144-4.754-2.646 0-6.026 1.372-8.085 3.039v14.748c0 2.253 1.667 2.499 3.92 2.793v1.911h-12.74v-1.911c2.254-.294 3.921-.54 3.921-2.793v-30.037zm38.3018 10.0933h7.644v2.696h-7.644v15.091c0 3.528 1.52 5.096 4.508 5.096 1.324 0 2.598-.246 3.92-.882l.589 1.372c-1.225 1.371-3.431 3.086-6.811 3.086-3.725 0-7.106-1.911-7.106-6.958v-16.805h-3.772v-1.717c2.596-1.567 4.704-3.429 7.203-6.564h1.469z" fill="#707372"/><g fill="#949300"><path d="m96.9238 59.5253-1.887.646c-.208-.75-.616-1.178-1.386-1.178-1.211 0-1.67.981-1.67 2.199 0 1.221.47 2.202 1.658 2.202.689 0 1.159-.313 1.377-1.126l1.856.646c-.48 1.293-1.575 2.086-3.221 2.086-2.243 0-3.651-1.335-3.651-3.808 0-2.47 1.418-3.805 3.66-3.805 1.627 0 2.836.74 3.264 2.138m5.003-.1357c-.116.542-.731 2.461-.731 2.461h1.481s-.626-1.919-.73-2.461zm3.722 5.454h-1.96l-.532-1.554h-2.441l-.532 1.554h-1.886l2.606-7.299h2.138z"/><path d="m106.241 57.544h6.048v1.615h-2.055v5.684h-1.938v-5.684h-2.055z"/><path d="m116.5098 59.3896c-.116.542-.731 2.461-.731 2.461h1.481s-.626-1.919-.73-2.461zm3.722 5.454h-1.96l-.532-1.554h-2.441l-.532 1.554h-1.886l2.606-7.299h2.138zm5.2838-4.4843c1.449.323 2.377.897 2.377 2.273 0 1.47-1.273 2.368-3.014 2.368-1.553 0-3.013-.689-3.17-2.273l1.95-.271c.094.687.584 1 1.263 1 .447 0 1.031-.145 1.031-.689 0-.449-.385-.603-1.304-.812-1.584-.366-2.741-.825-2.741-2.285 0-1.626 1.345-2.283 2.857-2.283 1.418 0 2.722.604 2.962 2.064l-1.867.366c-.104-.584-.522-.907-1.158-.907-.531 0-.886.24-.886.584 0 .499.594.604 1.7.865"/><path d="m129.435 57.544h6.048v1.615h-2.055v5.684h-1.938v-5.684h-2.055z"/><path d="m139.4106 59.0551v1.774h.741c.802 0 1.24-.273 1.24-.888 0-.635-.438-.886-1.24-.886zm2.617 2.889 1.565 2.899h-2.097l-1.303-2.544h-.782v2.544h-1.898v-7.299h2.722c1.836 0 3.097.687 3.097 2.387 0 .97-.501 1.648-1.304 2.013zm5.2854-.7513c0 1.346.542 2.201 1.679 2.201s1.679-.855 1.679-2.201c0-1.344-.542-2.2-1.679-2.2-1.126 0-1.679.856-1.679 2.2m5.339 0c0 2.358-1.439 3.807-3.66 3.807s-3.66-1.449-3.66-3.807c0-2.356 1.439-3.805 3.66-3.805s3.66 1.449 3.66 3.805m5.0541-2.0952h-.907v1.846h.907c.834 0 1.251-.283 1.251-.95 0-.677-.406-.896-1.251-.896zm-.907 3.399v2.347h-1.898v-7.299h2.888c1.878 0 3.128.729 3.128 2.449 0 1.71-1.292 2.503-3.128 2.503z"/><path d="m163.032 57.544h1.919v2.741h2.347v-2.741h1.919v7.299h-1.919v-2.931h-2.347v2.931h-1.919z"/><path d="m171.879 64.843v-7.299h5.235v1.542h-3.347v1.242h3.097v1.532h-3.097v1.44h3.389v1.543z"/><path d="m214.7144 60.6513h3.515v4.192h-1.689v-.772c-.366.542-1.064.929-1.993.929-2.106 0-3.211-1.722-3.211-3.807 0-2.252 1.345-3.806 3.67-3.806 1.513 0 2.691.625 3.265 1.939l-1.773.751c-.24-.73-.792-1.095-1.512-1.095-1.022 0-1.668.835-1.668 2.211 0 1.293.531 2.242 1.636 2.242.741 0 1.461-.375 1.491-1.314h-1.731zm9.1069-1.5962v1.774h.741c.803 0 1.24-.273 1.24-.888 0-.635-.437-.886-1.24-.886zm2.618 2.889 1.564 2.899h-2.097l-1.303-2.544h-.782v2.544h-1.898v-7.299h2.722c1.836 0 3.097.687 3.097 2.387 0 .97-.501 1.648-1.303 2.013zm6.4694-.7513c0 1.346.542 2.201 1.679 2.201s1.679-.855 1.679-2.201c0-1.344-.542-2.2-1.679-2.2-1.126 0-1.679.856-1.679 2.2m5.339 0c0 2.358-1.439 3.807-3.66 3.807s-3.66-1.449-3.66-3.807c0-2.356 1.439-3.805 3.66-3.805s3.66 1.449 3.66 3.805m3.391.9497v-4.598h1.919v4.619c0 .792.439 1.241 1.116 1.241.679 0 1.116-.449 1.116-1.241v-4.619h1.919v4.598c0 1.919-1.147 2.857-3.035 2.857s-3.035-.938-3.035-2.857m12.5381-3.0449h-.907v1.846h.907c.834 0 1.252-.283 1.252-.95 0-.677-.407-.896-1.252-.896zm-.907 3.399v2.347h-1.898v-7.299h2.888c1.878 0 3.129.729 3.129 2.449 0 1.71-1.293 2.503-3.129 2.503z"/></g></g></svg>