<svg xmlns="http://www.w3.org/2000/svg" width="299" height="342.72" overflow="inherit" version="1.2" viewBox="17 19.142 299 342.715"><path fill="#B4D6E4" d="M20.5 21.75H313V315.25H20.5z"/><g transform="translate(146 134)"><path d="M-97 185.29v28.722l32.966-13.058L-33.5 214.16v-29l-63.5.13zm-9 0v-8.981l8.981-.019 63.5-.13 9.019-.02v51.717l-12.572-5.438-30.535-13.206 6.887.106-32.965 13.058-12.315 4.88V185.29z" fill="#FFF"/><path fill="#7F99B3" d="M-97 185.27L-97 213.99 -64.034 200.94 -33.5 214.14 -33.5 185.14z"/><path d="M-129-106.86l8-8v299l-8-8h299l-8 8v-299l8 8h-299zm0-8h299v299h-299v-299z" fill="#FFF"/><path d="M-97-44.999c0 1.801 1.5 1.801 2.4 1.801h10.619c.9 0 2.4 0 2.4-1.801 0-1.859-1.439-1.859-2.4-1.859h-3.24v-11.04h11.101c8.521 0 14.82-5.16 14.82-10.979 0-5.82-6.3-10.98-14.82-10.98H-94.6c-.961 0-2.4 0-2.4 1.86 0 1.8 1.5 1.8 2.4 1.8h3.24v29.34h-3.24c-.961-.001-2.4-.001-2.4 1.858zm9.779-16.56v-14.64h10.08c6.66 0 11.701 3.42 11.701 7.32 0 3.899-5.101 7.319-11.701 7.319l-10.08.001zm43.901-16.5c0 1.86 1.561 1.86 2.461 1.86h2.039l9.66 32.16c.66 1.32 1.98 1.32 3 1.32 1.68 0 2.58-.062 3.24-2.221l9.6-31.98 9.66 31.919c.54 1.86 1.02 2.281 3.24 2.281 1.32 0 2.641 0 3.24-2.041L12.24-76.2h2.039c.9 0 2.461 0 2.461-1.8 0-1.86-1.561-1.86-2.461-1.86h-8.1c-.959 0-2.459 0-2.459 1.86 0 1.8 1.619 1.8 2.459 1.8H8.7L-.42-45.78l-9.6-32.04c-.601-2.04-1.92-2.04-3.24-2.04-1.62 0-2.641 0-3.24 2.04l-9.66 32.04-9.119-30.42h2.52c.9 0 2.46 0 2.46-1.8 0-1.86-1.56-1.86-2.46-1.86h-8.1c-.901.002-2.461.002-2.461 1.801zM37-44.999c0 1.801 1.5 1.801 2.4 1.801h28.26c1.979 0 2.398-.54 2.398-2.46v-5.341c0-1.199 0-2.459-2.039-2.459-2.101 0-2.101 1.199-2.101 2.459v4.141h-19.14v-29.34h4.681c.899 0 2.399 0 2.399-1.8 0-1.86-1.439-1.86-2.399-1.86H39.4c-.961 0-2.4 0-2.4 1.86 0 1.8 1.5 1.8 2.4 1.8h3.238v29.34H39.4c-.961 0-2.4 0-2.4 1.859zM-96.28 2.441c0 10.021 8.76 19.021 21.119 19.021 10.801 0 17.34-4.62 17.34-10.74 0-1.98-1.439-1.98-2.1-1.98-.6 0-1.92 0-2.04 1.74-.12 1.44-.3 3.721-4.261 5.641-2.279 1.14-5.639 1.68-8.52 1.68-10.14 0-17.4-7.26-17.4-15.36s7.381-15.3 17.281-15.3c3.18 0 6.239.78 8.399 2.04 3.601 2.101 4.14 4.5 4.56 6.18.301 1.38 1.44 1.38 1.98 1.38 2.1 0 2.1-1.26 2.1-2.459v-8.341c0-.96 0-2.46-1.8-2.46-1.14 0-1.44.6-1.86 1.5-.539.9-.539 1.02-1.08 2.221-2.459-1.92-6.959-3.721-12.719-3.721-12.06-.002-20.999 8.878-20.999 18.958zm65.479 0c0 10.38 9.239 19.021 21 19.021 11.88 0 21-8.82 21-18.961 0-10.379-9.24-19.02-21-19.02-11.88 0-21 8.821-21 18.96zm4.14-.659c0-7.98 7.439-14.641 16.86-14.641 9.42 0 16.86 6.66 16.86 14.641 0 8.699-7.44 16.02-16.86 16.02-9.479 0-16.86-7.38-16.86-16.02zm64.519 17.219c0 1.801 1.5 1.801 2.399 1.801h9.842c.899 0 2.399 0 2.399-1.801 0-1.859-1.44-1.859-2.399-1.859h-3.24v-29.939h.061l18.12 31.56c1.2 2.04 2.521 2.04 3.78 2.04 1.92 0 2.459-.36 2.459-2.46v-30.54h3.24c.899 0 2.399 0 2.399-1.801 0-1.859-1.438-1.859-2.399-1.859h-9.84c-.961 0-2.4 0-2.4 1.859 0 1.801 1.5 1.801 2.4 1.801h3.239v29.939h-.06l-18.121-31.56c-1.199-2.04-2.521-2.04-3.779-2.04h-5.7c-.96 0-2.399 0-2.399 1.859 0 1.801 1.5 1.801 2.399 1.801h3.24v29.34h-3.24c-.959 0-2.4 0-2.4 1.859zm65.061 0c0 1.801 1.5 1.801 2.4 1.801h12.06c.899 0 2.399 0 2.399-1.801 0-1.859-1.439-1.859-2.399-1.859h-4.68V4.302h11.579c0 2.46 0 3.42 2.101 3.42 2.04 0 2.04-1.32 2.04-2.46v-5.58c0-1.14 0-2.46-2.04-2.46-2.101 0-2.101.96-2.101 3.42h-11.579v-12.84h20.88v3.18c0 1.141 0 2.46 2.04 2.46 2.101 0 2.101-1.26 2.101-2.46v-4.38c0-1.86-.359-2.46-2.4-2.46h-30c-.959 0-2.399 0-2.399 1.859 0 1.801 1.5 1.801 2.399 1.801h3.24v29.34h-3.24c-.962 0-2.401 0-2.401 1.859zm-199.56 127.94c0 1.859 1.5 1.859 2.461 1.859h20.34c1.98 0 2.4-.54 2.4-2.46v-1.56c0-1.141 0-2.461-2.041-2.461-2.1 0-2.1 1.141-2.1 2.82H-89.86c3.539-3.062 9.299-7.562 11.879-9.961 3.78-3.359 6.541-7.199 6.541-12 0-7.199-6.061-11.699-13.381-11.699-7.08 0-11.82 4.92-11.82 10.02 0 2.221 1.681 2.881 2.701 2.881 1.26 0 2.64-1.02 2.64-2.699 0-.721-.3-1.5-.841-1.921.9-2.761 3.721-4.62 7.021-4.62 4.92 0 9.54 2.76 9.54 8.041 0 4.199-2.939 7.68-6.9 10.979l-13.26 11.16c-.539.482-.901.782-.901 1.621zm65.381-16.5c0 4.021 0 19.021 12.72 19.021s12.72-15 12.72-18.961c0-4.021 0-19.021-12.72-19.021s-12.72 15-12.72 18.961zm4.14-.541c0-3.299 0-14.76 8.58-14.76s8.58 11.461 8.58 14.76c0 3.181 0 15.9-8.58 15.9s-8.58-12.719-8.58-15.9zm64.66-12.899c0 1.801 1.62 1.801 2.101 1.801 1.68 0 4.319-.479 6.119-1.438v27.779H40.3c-.96 0-2.399 0-2.399 1.858 0 1.801 1.5 1.801 2.399 1.801h15.06c.899 0 2.399 0 2.399-1.801 0-1.858-1.438-1.858-2.399-1.858H49.9v-31.201c0-.959 0-2.459-1.801-2.459-.779 0-1.08.301-1.681 1.02-2.28 2.461-5.88 2.58-7.14 2.641-.839.058-1.738.538-1.738 1.857z" fill="#FFF"/></g><path d="M244.88 257.147q.152-5.25 2.423-8.256 3.779-5.087 10.475-4.894 6.048.174 8.974 5.19 2.982 5.104 2.73 14.84-.167 5.812-1.735 10.018-1.567 4.177-3.99 6.292-2.422 2.085-4.869 2.99-2.447.903-4.984.83-4.484-.13-6.436-2.046-1.922-1.945-1.854-4.305.04-1.386.883-1.982.845-.625 1.671-.601.974.028 1.633.726.689.67.658 1.731-.023.797-.7 1.751 1.647 1.258 4.184 1.332 3.687.106 6.174-2.184 2.487-2.29 3.432-5.363.975-3.102 1.142-6.847-4.06 4.607-10.166 4.431-5.25-.151-8.11-5.43-1.682-3.09-1.534-8.223zm4.573 1.166q-.105 3.628 1.473 6.242t5.531 2.728q3.688.107 5.917-2.457 2.259-2.562 2.358-6.014.134-4.66-1.51-8.074-1.612-3.442-5.536-3.555-3.923-.113-6.002 2.366-1.314 1.527-1.717 3.228-.403 1.671-.48 4.326z" font-weight="500" font-family="CMU Concrete" fill="#ffffff" aria-label="9" font-size="60.44100189px" letter-spacing="0px" word-spacing="0px"/></svg>