<?xml version="1.0" encoding="UTF-8" standalone="no"?>
<svg
   xmlns:dc="http://purl.org/dc/elements/1.1/"
   xmlns:cc="http://creativecommons.org/ns#"
   xmlns:rdf="http://www.w3.org/1999/02/22-rdf-syntax-ns#"
   xmlns:svg="http://www.w3.org/2000/svg"
   xmlns="http://www.w3.org/2000/svg"
   xmlns:sodipodi="http://sodipodi.sourceforge.net/DTD/sodipodi-0.dtd"
   xmlns:inkscape="http://www.inkscape.org/namespaces/inkscape"
   width="299"
   height="342.72"
   overflow="inherit"
   version="1.2"
   viewBox="17 19.142 299 342.715"
   xml:space="preserve"
   id="svg106"
   sodipodi:docname="pwl_conf_2019_logo.svg"
   inkscape:version="0.92.2 5c3e80d, 2017-08-06"><defs
     id="defs110" /><sodipodi:namedview
     pagecolor="#ffffff"
     bordercolor="#666666"
     borderopacity="1"
     objecttolerance="10"
     gridtolerance="10"
     guidetolerance="10"
     inkscape:pageopacity="0"
     inkscape:pageshadow="2"
     inkscape:window-width="1135"
     inkscape:window-height="725"
     id="namedview108"
     showgrid="false"
     inkscape:zoom="1.6865079"
     inkscape:cx="149.5"
     inkscape:cy="171.36"
     inkscape:window-x="0"
     inkscape:window-y="640"
     inkscape:window-maximized="0"
     inkscape:current-layer="svg106" /><metadata
     id="metadata88"><rdf:RDF><cc:Work
         rdf:about=""><dc:format>image/svg+xml</dc:format><dc:type
           rdf:resource="http://purl.org/dc/dcmitype/StillImage" /><dc:title /></cc:Work></rdf:RDF></metadata><rect
     x="20.5"
     y="21.75"
     width="292.5"
     height="293.5"
     fill="#B4D6E4"
     id="rect90" /><g
     transform="translate(146 134)"
     id="g100"><path
       d="m-97 185.29v28.722l32.966-13.058 30.534 13.206v-29l-63.5 0.13zm-9 0v-8.981l8.981-0.019 63.5-0.13 9.019-0.02v51.717l-12.572-5.438-30.535-13.206 6.887 0.106-32.965 13.058-12.315 4.88v-41.967z"
       fill="#FFF"
       id="path92" /><polygon
       points="-97 185.27 -97 213.99 -64.034 200.94 -33.5 214.14 -33.5 185.14"
       fill="#7F99B3"
       id="polygon94" /><path
       d="m-129-106.86l8-8v299l-8-8h299l-8 8v-299l8 8h-299zm0-8h299v299h-299v-299z"
       fill="#FFF"
       id="path96" /><path
       d="m-97-44.999c0 1.801 1.5 1.801 2.4 1.801h10.619c0.9 0 2.4 0 2.4-1.801 0-1.859-1.439-1.859-2.4-1.859h-3.24v-11.04h11.101c8.521 0 14.82-5.16 14.82-10.979 0-5.82-6.3-10.98-14.82-10.98h-18.48c-0.961 0-2.4 0-2.4 1.86 0 1.8 1.5 1.8 2.4 1.8h3.24v29.34h-3.24c-0.961-1e-3 -2.4-1e-3 -2.4 1.858zm9.779-16.56v-14.64h10.08c6.66 0 11.701 3.42 11.701 7.32 0 3.899-5.101 7.319-11.701 7.319l-10.08 1e-3zm43.901-16.5c0 1.86 1.561 1.86 2.461 1.86h2.039l9.66 32.16c0.66 1.32 1.98 1.32 3 1.32 1.68 0 2.58-0.062 3.24-2.221l9.6-31.98 9.66 31.919c0.54 1.86 1.02 2.281 3.24 2.281 1.32 0 2.641 0 3.24-2.041l9.42-31.439h2.039c0.9 0 2.461 0 2.461-1.8 0-1.86-1.561-1.86-2.461-1.86h-8.1c-0.959 0-2.459 0-2.459 1.86 0 1.8 1.619 1.8 2.459 1.8h2.521l-9.12 30.42-9.6-32.04c-0.601-2.04-1.92-2.04-3.24-2.04-1.62 0-2.641 0-3.24 2.04l-9.66 32.04-9.119-30.42h2.52c0.9 0 2.46 0 2.46-1.8 0-1.86-1.56-1.86-2.46-1.86h-8.1c-0.901 2e-3 -2.461 2e-3 -2.461 1.801zm80.32 33.06c0 1.801 1.5 1.801 2.4 1.801h28.26c1.979 0 2.398-0.54 2.398-2.46v-5.341c0-1.199 0-2.459-2.039-2.459-2.101 0-2.101 1.199-2.101 2.459v4.141h-19.14v-29.34h4.681c0.899 0 2.399 0 2.399-1.8 0-1.86-1.439-1.86-2.399-1.86h-12.059c-0.961 0-2.4 0-2.4 1.86 0 1.8 1.5 1.8 2.4 1.8h3.238v29.34h-3.238c-0.961 0-2.4 0-2.4 1.859zm-133.28 47.44c0 10.021 8.76 19.021 21.119 19.021 10.801 0 17.34-4.62 17.34-10.74 0-1.98-1.439-1.98-2.1-1.98-0.6 0-1.92 0-2.04 1.74-0.12 1.44-0.3 3.721-4.261 5.641-2.279 1.14-5.639 1.68-8.52 1.68-10.14 0-17.4-7.26-17.4-15.36s7.381-15.3 17.281-15.3c3.18 0 6.239 0.78 8.399 2.04 3.601 2.101 4.14 4.5 4.56 6.18 0.301 1.38 1.44 1.38 1.98 1.38 2.1 0 2.1-1.26 2.1-2.459v-8.341c0-0.96 0-2.46-1.8-2.46-1.14 0-1.44 0.6-1.86 1.5-0.539 0.9-0.539 1.02-1.08 2.221-2.459-1.92-6.959-3.721-12.719-3.721-12.06-2e-3 -20.999 8.878-20.999 18.958zm65.479 0c0 10.38 9.239 19.021 21 19.021 11.88 0 21-8.82 21-18.961 0-10.379-9.24-19.02-21-19.02-11.88 0-21 8.821-21 18.96zm4.14-0.659c0-7.98 7.439-14.641 16.86-14.641 9.42 0 16.86 6.66 16.86 14.641 0 8.699-7.44 16.02-16.86 16.02-9.479 0-16.86-7.38-16.86-16.02zm64.519 17.219c0 1.801 1.5 1.801 2.399 1.801h9.842c0.899 0 2.399 0 2.399-1.801 0-1.859-1.44-1.859-2.399-1.859h-3.24v-29.939h0.061l18.12 31.56c1.2 2.04 2.521 2.04 3.78 2.04 1.92 0 2.459-0.36 2.459-2.46v-30.54h3.24c0.899 0 2.399 0 2.399-1.801 0-1.859-1.438-1.859-2.399-1.859h-9.84c-0.961 0-2.4 0-2.4 1.859 0 1.801 1.5 1.801 2.4 1.801h3.239v29.939h-0.06l-18.121-31.56c-1.199-2.04-2.521-2.04-3.779-2.04h-5.7c-0.96 0-2.399 0-2.399 1.859 0 1.801 1.5 1.801 2.399 1.801h3.24v29.34h-3.24c-0.959 0-2.4 0-2.4 1.859zm65.061 0c0 1.801 1.5 1.801 2.4 1.801h12.06c0.899 0 2.399 0 2.399-1.801 0-1.859-1.439-1.859-2.399-1.859h-4.68v-12.84h11.579c0 2.46 0 3.42 2.101 3.42 2.04 0 2.04-1.32 2.04-2.46v-5.58c0-1.14 0-2.46-2.04-2.46-2.101 0-2.101 0.96-2.101 3.42h-11.579v-12.84h20.88v3.18c0 1.141 0 2.46 2.04 2.46 2.101 0 2.101-1.26 2.101-2.46v-4.38c0-1.86-0.359-2.46-2.4-2.46h-30c-0.959 0-2.399 0-2.399 1.859 0 1.801 1.5 1.801 2.399 1.801h3.24v29.34h-3.24c-0.962 0-2.401 0-2.401 1.859zm-199.56 127.94c0 1.859 1.5 1.859 2.461 1.859h20.34c1.98 0 2.4-0.54 2.4-2.46v-1.56c0-1.141 0-2.461-2.041-2.461-2.1 0-2.1 1.141-2.1 2.82h-14.279c3.539-3.062 9.299-7.562 11.879-9.961 3.78-3.359 6.541-7.199 6.541-12 0-7.199-6.061-11.699-13.381-11.699-7.08 0-11.82 4.92-11.82 10.02 0 2.221 1.681 2.881 2.701 2.881 1.26 0 2.64-1.02 2.64-2.699 0-0.721-0.3-1.5-0.841-1.921 0.9-2.761 3.721-4.62 7.021-4.62 4.92 0 9.54 2.76 9.54 8.041 0 4.199-2.939 7.68-6.9 10.979l-13.26 11.16c-0.539 0.482-0.901 0.782-0.901 1.621zm65.381-16.5c0 4.021 0 19.021 12.72 19.021s12.72-15 12.72-18.961c0-4.021 0-19.021-12.72-19.021s-12.72 15-12.72 18.961zm4.14-0.541c0-3.299 0-14.76 8.58-14.76s8.58 11.461 8.58 14.76c0 3.181 0 15.9-8.58 15.9s-8.58-12.719-8.58-15.9zm64.66-12.899c0 1.801 1.62 1.801 2.101 1.801 1.68 0 4.319-0.479 6.119-1.438v27.779h-5.46c-0.96 0-2.399 0-2.399 1.858 0 1.801 1.5 1.801 2.399 1.801h15.06c0.899 0 2.399 0 2.399-1.801 0-1.858-1.438-1.858-2.399-1.858h-5.46v-31.201c0-0.959 0-2.459-1.801-2.459-0.779 0-1.08 0.301-1.681 1.02-2.28 2.461-5.88 2.58-7.14 2.641-0.839 0.058-1.738 0.538-1.738 1.857z"
       fill="#FFF"
       id="path98" /></g><g
     aria-label="9"
     transform="rotate(1.6515)"
     style="font-size:60.44100189px;line-height:1.25;font-family:sans-serif;letter-spacing:0px;word-spacing:0px;fill:#ffffff;stroke-width:1.51100004"
     id="text104"><path
       d="m 252.18989,249.98308 q 0,-5.25317 2.1839,-8.32244 3.63,-5.19415 10.32927,-5.19415 6.05,0 9.11927,4.92854 3.1283,5.01707 3.15781,14.7561 0,5.81391 -1.4461,10.06366 -1.4461,4.22025 -3.80707,6.40415 -2.36098,2.15439 -4.78098,3.1283 -2.42,0.9739 -4.95805,0.9739 -4.48586,0 -6.49269,-1.85927 -1.97732,-1.88878 -1.97732,-4.24976 0,-1.38707 0.82635,-2.00683 0.82634,-0.64927 1.65268,-0.64927 0.9739,0 1.65268,0.67878 0.7083,0.64927 0.7083,1.71171 0,0.79683 -0.64927,1.77073 1.68219,1.21001 4.22024,1.21001 3.68903,0 6.10903,-2.36098 2.42,-2.36098 3.27586,-5.45976 0.88536,-3.12829 0.94439,-6.87634 -3.92513,4.72195 -10.03415,4.72195 -5.25318,0 -8.26342,-5.19415 -1.77073,-3.03976 -1.77073,-8.17488 z m 4.6039,1.03293 q 0,3.63 1.65268,6.19756 1.65269,2.56756 5.60732,2.56756 3.68903,0 5.84342,-2.62658 2.1839,-2.62659 2.1839,-6.07952 0,-4.66293 -1.74122,-8.02732 -1.71171,-3.3939 -5.63683,-3.3939 -3.92512,0 -5.93195,2.53805 -1.26903,1.56414 -1.62317,3.27585 -0.35415,1.6822 -0.35415,4.3383 z"
       style="font-weight:500;font-family:'CMU Concrete';fill:#ffffff;stroke-width:1.51100004"
       id="path920" /></g></svg>