<?xml version="1.0" encoding="utf-8"?>
<!-- Generator: Adobe Illustrator 15.0.2, SVG Export Plug-In . SVG Version: 6.00 Build 0)  -->
<!DOCTYPE svg PUBLIC "-//W3C//DTD SVG 1.1//EN" "http://www.w3.org/Graphics/SVG/1.1/DTD/svg11.dtd">
<svg xmlns="http://www.w3.org/2000/svg" width="998.06" height="998.051" viewBox="0 0 998.06 998.051"><path fill="#FFF" d="M499.037 998.05c-67.358 0-132.714-13.196-194.252-39.222-59.43-25.136-112.795-61.112-158.618-106.935-45.824-45.82-81.804-99.186-106.94-158.61C13.197 631.745 0 566.39 0 499.03c0-67.358 13.198-132.714 39.227-194.252 25.136-59.427 61.116-112.793 106.94-158.615 45.822-45.823 99.188-81.8 158.617-106.937C366.322 13.196 431.68 0 499.037 0c67.36 0 132.715 13.197 194.254 39.226 59.427 25.135 112.794 61.114 158.614 106.937 45.82 45.822 81.8 99.188 106.934 158.615 26.025 61.538 39.224 126.894 39.224 194.253s-13.197 132.717-39.223 194.254c-25.136 59.426-61.114 112.79-106.935 158.61-45.82 45.823-99.188 81.8-158.614 106.936-61.54 26.024-126.892 39.22-194.252 39.22zm0-952.01c-61.163 0-120.485 11.974-176.318 35.588-53.94 22.814-102.39 55.48-144 97.09-41.61 41.608-74.277 90.055-97.09 143.995-23.617 55.83-35.59 115.154-35.59 176.318 0 61.165 11.973 120.487 35.59 176.318 22.812 53.938 55.48 102.384 97.09 143.992 41.61 41.606 90.057 74.27 144 97.085 55.83 23.614 115.153 35.588 176.316 35.588 61.165 0 120.487-11.974 176.32-35.588 53.937-22.813 102.383-55.478 143.99-97.086 41.61-41.61 74.272-90.056 97.086-143.994 23.615-55.83 35.59-115.153 35.59-176.316s-11.975-120.486-35.59-176.318c-22.813-53.94-55.478-102.387-97.086-143.996-41.607-41.61-90.053-74.275-143.99-97.09C619.522 58.014 560.2 46.04 499.036 46.04z"></path><path d="M146.465 715.805c-2.846-3.717-6.068-8.823-9.082-14.416-5.01-9.3-6.59-16.23-5.575-22.87 1.037-7.12 5.344-13.564 13.988-18.224 9.37-5.05 17.675-5.12 24.215-2.552 7.067 2.847 13.33 9.597 18.496 19.185 3.092 5.737 4.922 10.002 6.046 12.96l-48.085 25.914zm33.962-32.645c-.29-1.062-1.113-2.588-1.857-3.968-5.33-10.063-14.374-13.626-26.068-7.323-10.21 5.406-12.374 14.26-7.246 23.776 1.33 2.47 2.41 3.95 3.136 4.776l32.035-17.263zm-48.754-78.464l6.523 19.396 12.515-4.208-7.284-21.665 9.777-3.29 11.31 33.633-52.717 17.73-10.94-32.538 9.775-3.29 6.92 20.572 10.95-3.683-6.524-19.397 9.698-3.262zm-37.34-19.836c-1.287-3.717-2.668-9.01-3.925-16.58-1.27-7.652-.71-13.35 1.61-17.5 2.188-3.96 6.355-7.078 11.728-7.97s10.23.14 13.864 2.884c4.69 3.57 7.523 9.542 8.74 16.868.27 1.63.433 3.108.46 4.274l19.618-3.258 2.042 12.293-54.138 8.99zm22.87-16.428c.07-1.1-.066-2.416-.364-4.207-1.097-6.594-5.11-10.11-10.728-9.177-5.048.838-7.48 4.838-6.45 11.026.418 2.522.946 4.192 1.34 5.047l16.2-2.687zm9.187-58.915l14.292 3.9.056 13.036-55.69-16.76-.07-16.503 55.542-17.485.058 13.532-14.257 4.353.07 15.927zm-9.468-14.07l-11.785 3.517c-3.296 1.004-7.418 2.013-10.715 2.852v.165c3.306.814 7.517 1.62 10.74 2.514l11.813 3.25-.053-12.296zM88.488 448.22c.033-4.096.563-10.115 1.692-16.704 1.395-8.133 3.59-13.617 7.35-16.99 3.16-2.808 7.29-3.94 12.333-3.077 6.994 1.2 10.942 6.98 11.84 11.99l.245.043c2.2-3.558 6.223-5.043 11.502-5.562 6.474-.647 13.923-1.13 16.22-1.823l-2.176 12.688c-1.7.63-6.394 1.165-13.423 1.633-7.08.292-9.355 2.33-10.302 7.357l-.642 3.742 21.552 3.694-2.105 12.28-54.084-9.272zm25.69-8.235l.838-4.88c1.06-6.18-1.403-10.37-6.202-11.194-5.042-.862-8.15 2.12-9.207 7.8-.516 3.01-.564 4.76-.555 5.683l15.127 2.593zm1.287-65.97l-4.854 14.122-9.986-3.433 13.892-40.42 9.988 3.433-4.934 14.358 42.603 14.643-4.103 11.938-42.605-14.642zm62.867-78.95c-5.926-3.102-13.068-6.9-20.09-10.915l-.12.215c5.3 5.026 11.03 10.964 15.623 16.062l15.48 16.647-4.873 8.524-21.646-5.533c-6.56-1.66-14.38-3.944-21.338-6.402l-.082.143c6.355 4.014 13.683 8.488 19.494 12.287l17.848 11.346-5.775 10.1-46.52-30.69 8.313-14.54 18.82 4.49c6.448 1.687 13.326 3.624 19.6 5.785l.123-.215c-4.81-4.554-10.244-9.848-14.716-14.495l-13.098-14.333 8.15-14.255 49.798 24.957-6.103 10.672-18.89-9.85zm41.45-57.127l-13.31 15.543 10.028 8.59 14.868-17.36 7.835 6.707-23.08 26.95-42.243-36.175 22.328-26.072 7.834 6.71-14.116 16.482 8.775 7.514 13.313-15.542 7.77 6.656zm33.068-.433l-35.415-42.89 11.327-9.354 21.888 8.365c6.276 2.416 13.235 5.66 19.138 8.918l.19-.158c-5.312-5.137-10.285-10.77-15.592-17.197l-10.352-12.536 8.91-7.355 35.415 42.89-10.184 8.406-22.825-8.977c-6.33-2.48-13.7-5.705-19.95-8.998l-.14.22c4.933 5.454 10.05 11.394 15.83 18.394l10.67 12.917-8.91 7.357zm40.775-85.723l-12.982 7.387-5.223-9.183 37.153-21.138 5.224 9.18-13.197 7.51 22.28 39.16-10.974 6.243-22.28-39.162zm130.957-33.264c4.748 17.607-3.048 31.16-18.743 35.393-15.936 4.298-28.5-5.22-32.625-20.513-4.34-16.093 2.694-30.894 18.548-35.17 16.49-4.447 28.822 5.474 32.818 20.292zm-38.605 11.18c2.836 10.516 9.773 16.593 17.9 14.4 8.205-2.21 10.8-11.286 7.985-21.722-2.6-9.64-9.454-16.68-17.82-14.424-8.204 2.213-10.878 11.31-8.065 21.745zm60.047-41.62l33.86-3.017.916 10.275-21.286 1.896 1.127 12.658 19.89-1.77.91 10.19-19.89 1.772 1.984 22.27-12.575 1.12-4.935-55.392zm96.444-.468c3.362-.15 10.044.38 16.242 1.337 7.584 1.17 12.12 2.62 15.75 5.603 3.52 2.63 5.714 6.81 4.945 11.784-.755 4.894-4.313 9.02-10.864 10.347l-.022.165c6.015 2.682 9.934 8.13 8.84 15.224-.77 4.974-3.656 8.536-7.51 10.78-4.486 2.564-11.45 3.326-22.38 1.64-6.115-.943-10.62-2.055-13.33-2.892l8.33-53.987zm5.306 47.325c1.198.352 2.666.58 4.786.906 5.628.87 10.93-.483 11.822-6.273.855-5.546-3.778-8.515-9.977-9.472l-4.24-.653-2.39 15.495zm3.763-24.384l4.077.63c6.524 1.008 10.446-1.143 11.075-5.22.64-4.16-2.2-6.853-7.828-7.72-2.69-.417-4.266-.49-5.35-.49l-1.976 12.802zm70.46-6.826l-15.727 53.348-12.11-3.57 15.728-53.348 12.11 3.57zm5.41 59.98l23.154-50.57 13.356 6.115 2.02 23.34c.562 6.7.678 14.38.318 21.11l.225.104c2.307-7.02 5.207-13.95 8.677-21.53l6.768-14.78 10.504 4.808-23.154 50.57-12.005-5.496-1.87-24.454c-.53-6.776-.84-14.815-.605-21.877l-.26-.028c-2.757 6.816-5.87 14.012-9.648 22.265l-6.974 15.23-10.505-4.808zm79.413 25.856l-11.46 9.39-10.657-7.51 45.924-35.675 13.492 9.504-17.93 55.394-11.065-7.793 4.713-14.14-13.02-9.17zm16.952.436l3.962-11.642c1.092-3.268 2.658-7.21 3.885-10.385l-.138-.097c-2.575 2.223-5.673 5.188-8.27 7.296l-9.493 7.745 10.05 7.08zm54.976 4.18c3.318 2.4 7.916 6.325 12.627 11.065 5.817 5.856 9.012 10.825 9.58 15.845.453 4.203-1.02 8.225-4.647 11.83-5.033 5.003-12.035 4.865-16.638 2.69l-.176.175c1.622 3.856.5 7.996-2.14 12.597-3.226 5.65-7.155 11.998-7.92 14.27l-9.076-9.13c.473-1.75 2.76-5.884 6.455-11.883 3.87-5.94 3.53-8.975-.02-12.662l-2.675-2.692-15.51 15.414-8.783-8.837 38.923-38.682zm-8.19 25.706l3.49 3.512c4.42 4.448 9.262 4.872 12.715 1.44 3.63-3.607 3-7.87-1.014-12.024-2.154-2.165-3.55-3.22-4.308-3.747l-10.886 10.82zm16.658 65.988l18.57-13.183 16.605-33.34 8.313 11.705-7.604 12.38c-2.295 3.754-4.05 6.415-6.196 9.662l.095.133c3.54-.997 6.93-1.782 11.115-2.73l14.147-3.162 8.17 11.506-37.047 3.837-18.907 13.42-7.26-10.226zm57.042 72.67l-14.75 1.388-4.645-12.183 58.02-3.938 5.882 15.42-45.818 35.933-4.822-12.644 11.81-9.096-5.677-14.88zm13.818 9.83l9.79-7.442c2.73-2.1 6.233-4.497 9.022-6.444l-.058-.153c-3.38.406-7.604 1.136-10.935 1.434l-12.2 1.122 4.38 11.486zm43.814 33.778l6.664 33.336-10.115 2.02-4.19-20.956-12.46 2.49 3.912 19.58-10.033 2.007-3.915-19.582-21.927 4.383-2.476-12.38 54.536-10.898zm10.068 62.278l1.49 33.966-10.305.453-.938-21.35-12.695.556.875 19.95-10.222.45-.876-19.95-22.342.98-.553-12.612 55.566-2.44zm-41.473 65.944l-13.763-5.478 1.41-12.96 53.45 22.908-1.785 16.406-57.15 11.133 1.462-13.455 14.652-2.723 1.722-15.832zm7.827 15.046l12.104-2.17c3.39-.63 7.598-1.166 10.968-1.63l.017-.164c-3.19-1.178-7.283-2.452-10.385-3.702l-11.373-4.557-1.328 12.223zm20.544 61.086l-53.92-13.64 3.098-12.24 53.92 13.64-3.098 12.24zm-9.032 28.155c-.886 4-2.658 9.777-5.136 15.985-3.06 7.664-6.35 12.57-10.73 15.086-3.675 2.087-7.95 2.337-12.7.44-6.592-2.63-9.248-9.11-9.084-14.197l-.23-.09c-2.894 3.02-7.138 3.637-12.41 3.044-6.466-.715-13.852-1.797-16.242-1.596l4.77-11.955c1.793-.263 6.498.193 13.47 1.2 6.99 1.188 9.64-.33 11.61-5.053l1.408-3.524-20.31-8.105 4.618-11.57 50.966 20.34zm-26.844 2.703l-1.835 4.598c-2.325 5.825-.788 10.437 3.733 12.24 4.752 1.896 8.412-.374 10.63-5.71 1.132-2.834 1.544-4.535 1.727-5.44l-14.255-5.688zm-37.21 38.87c-3.228 2.01-7.387 5.577-10.146 10.178-2.97 4.954-2.488 8.804.625 10.67 2.97 1.783 6.027.537 11.517-3.965 7.514-6.27 15-8.807 21.936-4.647 8.14 4.882 10.292 15.41 3.544 26.662-3.225 5.38-6.733 8.664-9.705 10.73l-7.262-7.626c2.066-1.36 5.448-3.95 8.25-8.622s2.035-8.208-.442-9.693c-3.043-1.824-6 .06-12.028 4.814-8.164 6.557-14.93 7.89-21.65 3.856-8-4.795-11.1-15.026-3.25-28.12 3.27-5.448 7.91-9.978 11.01-11.775l7.6 7.54z" fill="#FFF"></path><path fill="#FFF" d="M498.767 165.823c-184.033 0-333.222 149.18-333.222 333.208 0 184.02 149.19 333.208 333.222 333.208 184.036 0 333.21-149.188 333.21-333.206 0-184.027-149.174-333.207-333.21-333.207zM656.68 352.737l-1.49 316.974c0 .318-.574 33.244-48.346 34.087-2.665.063-5.188.205-7.74.3-5.36.223-10.738.412-16.114.635-6.6.255-13.195.542-19.78.795-6.057.254-12.116.396-18.175.632-10.8.445-19.683 2.855-28.885 8.63-6.104 3.853-14.72 9.01-16.414 16.652-.555-3.474-2.777-6.69-5.202-9.118-4.997-4.963-11.5-8.23-17.78-11.23-7.757-3.694-15.798-3.506-24.19-3.71-12.783-.303-25.582-1.225-38.366-1.634-7.123-.223-14.228-.54-21.333-.808-47.663-.844-48.218-33.77-48.218-34.12l-1.507-316.95-30.674-39.017 133.152-.017 241.785-1.174-30.724 39.075z"></path><path fill="none" stroke="#FFF" stroke-width="12.3" stroke-miterlimit="10" d="M332.593 449.616H677.9M325.36 584.504h345.325"></path><path fill="#FFF" d="M532.426 425.76l-40.797-92.35-6.71 2.966 12.642 28.597-30.248 58.686 6.52 3.36 27.534-53.412 24.347 55.116"></path><path fill="none" stroke="#FFF" stroke-width="5.617" stroke-miterlimit="10" d="M532.426 425.76l-40.797-92.35-6.71 2.966 12.642 28.597-30.248 58.686 6.52 3.36 27.534-53.412 24.347 55.116z"></path><path fill="none" stroke="#FFF" stroke-width="10.299" stroke-miterlimit="10" d="M425.824 485.365h65.157v65.165h-65.155z"></path><path fill="none" stroke="#FFF" stroke-width="10.299" stroke-miterlimit="10" d="M490.885 485.365h65.158v65.165h-65.158z"></path><path fill="#FFF" d="M532.726 517.507c0 5.123-4.17 9.28-9.264 9.28-5.104 0-9.278-4.157-9.278-9.28 0-5.108 4.174-9.264 9.278-9.264 5.093 0 9.264 4.156 9.264 9.264z"></path><path fill="none" stroke="#FFF" stroke-width="6.866" stroke-miterlimit="10" d="M523.462 517.507h48.11"></path><path fill="#FFF" d="M570.063 502.346c.81 0 16.528 14.878 16.528 14.878l-16.526 14.306v-29.184zM406.837 611.245h11.58c.982.445 1.204 1.303 1.332 2.286.33 2.41.743 4.837 1.076 7.266.08.443.238.634.667.792 1.046.38 2.06.795 3.045 1.253.475.225.76.207 1.172-.11 2.03-1.554 4.092-3.092 6.14-4.63.808-.604 1.632-.65 2.33.03 2.538 2.523 5.06 5.06 7.52 7.663.92.966.854 1.712.014 2.806-1.396 1.84-2.79 3.68-4.234 5.486-.38.478-.43.842-.158 1.397.507 1.03.982 2.093 1.346 3.188.19.605.54.795 1.11.87 2.41.353 4.79.765 7.186 1.066 1.143.142 1.824.65 2.062 1.76v10.754c-.317.984-.952 1.488-2.03 1.634-2.395.285-4.79.697-7.185 1.03-.634.08-1.015.268-1.22.95-.317.97-.745 1.905-1.206 2.81-.27.507-.27.872.096 1.314 1.54 1.934 3.03 3.872 4.536 5.807.698.92.778 1.555.174 2.317-2.283 2.854-4.79 5.486-7.645 7.77-1.33 1.03-1.918.982-3.234-.048-1.84-1.443-3.695-2.872-5.52-4.33-.363-.316-.665-.333-1.092-.126-1.016.476-2.078.902-3.125 1.3-.428.158-.633.38-.698.872-.38 2.697-.808 5.376-1.284 8.074-.19 1.014-.73 1.396-1.745 1.396-3.457.016-6.9.016-10.34 0-1.11 0-1.666-.54-1.824-1.617-.397-2.57-.793-5.172-1.174-7.758-.08-.52-.27-.81-.793-.998-1-.35-1.966-.73-2.92-1.188-.506-.24-.854-.21-1.3.14-1.982 1.555-3.996 3.062-5.995 4.57-.777.6-1.633.663-2.268.06-2.555-2.507-5.093-5.013-7.567-7.613-1.03-1.078-.95-1.807-.048-3.012 1.428-1.857 2.855-3.712 4.298-5.553.302-.38.317-.666.095-1.11-.523-1.108-1-2.27-1.412-3.428-.19-.504-.428-.727-.983-.79-2.52-.35-5.075-.73-7.597-1.128-1.19-.173-1.665-.682-1.665-1.855-.015-3.425-.015-6.85 0-10.244 0-1.11.525-1.697 1.603-1.872 2.6-.412 5.218-.826 7.835-1.19.476-.078.682-.285.84-.73.397-1.048.84-2.077 1.334-3.11.207-.457.19-.778-.11-1.187-1.555-1.935-3.062-3.9-4.584-5.852-.683-.89-.78-1.477-.096-2.3 2.268-2.888 4.82-5.552 7.724-7.804 1.205-.936 1.712-.89 2.935.063 1.918 1.46 3.806 2.92 5.678 4.413.38.315.667.315 1.11.093.937-.445 1.888-.857 2.87-1.206.604-.19.873-.478.953-1.11.334-2.523.76-5.013 1.14-7.52.13-.81.514-1.43 1.258-1.81zm5.822 24.237c-6.74 0-12.104 5.345-12.12 12.055-.015 6.757 5.38 12.148 12.12 12.148 6.71.017 12.1-5.392 12.084-12.148-.016-6.744-5.36-12.055-12.086-12.055zM491.805 611.245h11.58c1 .445 1.204 1.303 1.332 2.286.333 2.41.746 4.837 1.095 7.266.062.443.237.634.65.792 1.048.38 2.06.795 3.06 1.253.46.225.762.207 1.175-.11 2.028-1.554 4.076-3.092 6.122-4.63.807-.604 1.63-.65 2.33.03 2.537 2.523 5.075 5.06 7.534 7.663.92.966.84 1.712.015 2.806-1.41 1.84-2.808 3.68-4.25 5.486-.383.478-.414.842-.143 1.397.507 1.03.967 2.093 1.33 3.188.206.605.54.795 1.127.87 2.394.353 4.773.765 7.184 1.066 1.126.142 1.825.65 2.06 1.76v10.754c-.332.984-.967 1.488-2.028 1.634-2.41.285-4.79.697-7.2 1.03-.635.08-1.018.268-1.222.95-.317.97-.73 1.905-1.207 2.81-.267.507-.267.872.098 1.314 1.537 1.934 3.03 3.872 4.535 5.807.713.92.778 1.555.174 2.317-2.268 2.854-4.79 5.486-7.646 7.77-1.33 1.03-1.92.982-3.235-.048-1.838-1.443-3.68-2.872-5.517-4.33-.364-.316-.667-.333-1.078-.126-1.03.476-2.08.902-3.126 1.3-.443.158-.634.38-.714.872-.38 2.697-.808 5.376-1.284 8.074-.174 1.014-.714 1.396-1.73 1.396-3.472.016-6.916.016-10.356 0-1.11 0-1.65-.54-1.824-1.617-.396-2.57-.792-5.172-1.174-7.758-.062-.52-.27-.81-.792-.998-.985-.35-1.966-.73-2.904-1.188-.507-.24-.872-.21-1.315.14-1.98 1.555-3.98 3.062-5.995 4.57-.775.6-1.633.663-2.25.06-2.555-2.507-5.108-5.013-7.567-7.613-1.03-1.078-.967-1.807-.046-3.012 1.41-1.857 2.84-3.712 4.297-5.553.286-.38.302-.666.095-1.11-.523-1.108-1-2.27-1.428-3.428-.19-.504-.428-.727-.984-.79-2.52-.35-5.06-.73-7.598-1.128-1.173-.173-1.665-.682-1.665-1.855-.015-3.425-.015-6.85 0-10.244 0-1.11.524-1.697 1.604-1.872 2.616-.412 5.217-.826 7.835-1.19.473-.078.695-.285.853-.73.38-1.048.825-2.077 1.317-3.11.222-.457.206-.778-.11-1.187-1.554-1.935-3.046-3.9-4.568-5.852-.698-.89-.778-1.477-.112-2.3 2.284-2.888 4.822-5.552 7.724-7.804 1.206-.936 1.713-.89 2.95.063 1.904 1.46 3.792 2.92 5.678 4.413.38.315.667.315 1.095.093.937-.445 1.888-.857 2.888-1.206.587-.19.856-.478.937-1.11.35-2.523.775-5.013 1.156-7.52.127-.81.507-1.43 1.237-1.81zm5.82 24.237c-6.74 0-12.084 5.345-12.102 12.055-.016 6.757 5.36 12.148 12.102 12.148 6.727.017 12.104-5.392 12.087-12.148-.014-6.744-5.342-12.055-12.087-12.055zM576.772 611.245h11.594c.984.445 1.19 1.303 1.317 2.286.35 2.41.76 4.837 1.095 7.266.062.443.237.634.666.792 1.046.38 2.062.795 3.044 1.253.46.225.762.207 1.175-.11 2.03-1.554 4.076-3.092 6.123-4.63.81-.604 1.648-.65 2.33.03 2.555 2.523 5.076 5.06 7.535 7.663.92.966.84 1.712.017 2.806-1.396 1.84-2.79 3.68-4.234 5.486-.38.478-.43.842-.157 1.397.507 1.03.966 2.093 1.346 3.188.193.605.526.795 1.112.87 2.396.353 4.79.765 7.184 1.066 1.128.142 1.824.65 2.063 1.76v10.754c-.32.984-.95 1.488-2.03 1.634-2.396.285-4.79.697-7.185 1.03-.635.08-1.017.268-1.236.95-.304.97-.73 1.905-1.19 2.81-.27.507-.27.872.094 1.314 1.538 1.934 3.016 3.872 4.536 5.807.696.92.777 1.555.16 2.317-2.27 2.854-4.793 5.486-7.632 7.77-1.332 1.03-1.935.982-3.236-.048-1.84-1.443-3.694-2.872-5.533-4.33-.367-.316-.654-.333-1.08-.126-1.016.476-2.078.902-3.127 1.3-.443.158-.635.38-.697.872-.382 2.697-.81 5.376-1.3 8.074-.175 1.014-.716 1.396-1.73 1.396-3.457.016-6.9.016-10.357 0-1.095 0-1.65-.54-1.825-1.617-.396-2.57-.793-5.172-1.172-7.758-.064-.52-.255-.81-.78-.998-.998-.35-1.966-.73-2.918-1.188-.507-.24-.855-.21-1.314.14-1.966 1.555-3.98 3.062-5.98 4.57-.775.6-1.65.663-2.267.06-2.555-2.507-5.093-5.013-7.567-7.613-1.03-1.078-.966-1.807-.046-3.012 1.413-1.857 2.84-3.712 4.296-5.553.305-.38.32-.666.098-1.11-.522-1.108-.997-2.27-1.428-3.428-.173-.504-.413-.727-.967-.79-2.54-.35-5.078-.73-7.6-1.128-1.19-.173-1.665-.682-1.665-1.855-.015-3.425-.015-6.85 0-10.244 0-1.11.524-1.697 1.586-1.872 2.618-.412 5.235-.826 7.85-1.19.48-.078.686-.285.844-.73.396-1.048.824-2.077 1.33-3.11.207-.457.19-.778-.11-1.187-1.552-1.935-3.06-3.9-4.582-5.852-.698-.89-.778-1.477-.096-2.3 2.268-2.888 4.806-5.552 7.725-7.804 1.205-.936 1.713-.89 2.935.063 1.904 1.46 3.807 2.92 5.68 4.413.378.315.666.315 1.108.093.92-.445 1.887-.857 2.87-1.206.605-.19.873-.478.954-1.11.333-2.523.76-5.013 1.14-7.52.123-.81.503-1.43 1.234-1.81zm5.82 24.237c-6.74 0-12.084 5.345-12.1 12.055-.017 6.757 5.36 12.148 12.1 12.148 6.727.017 12.105-5.392 12.105-12.148-.018-6.744-5.362-12.055-12.104-12.055z"></path></svg>