<?xml version="1.0" encoding="UTF-8" standalone="no"?>
<svg width="999px" height="999px" viewBox="0 0 999 999" version="1.1" xmlns="http://www.w3.org/2000/svg" xmlns:xlink="http://www.w3.org/1999/xlink">
    <!-- Generator: Sketch 3.8.3 (29802) - http://www.bohemiancoding.com/sketch -->
    <title>binary-affairs</title>
    <desc>Created with Sketch.</desc>
    <defs></defs>
    <g id="Page-1" stroke="none" stroke-width="1" fill="none" fill-rule="evenodd">
        <g id="binary-affairs">
            <path d="M499.037,998.05 C431.679,998.05 366.323,984.854 304.785,958.828 C245.355,933.692 191.99,897.716 146.167,851.893 C100.343,806.073 64.363,752.707 39.227,693.283 C13.197,631.745 0,566.39 0,499.03 C0,431.672 13.198,366.316 39.227,304.778 C64.363,245.351 100.343,191.985 146.167,146.163 C191.989,100.34 245.355,64.363 304.784,39.226 C366.322,13.196 431.68,0 499.037,0 C566.397,0 631.752,13.197 693.291,39.226 C752.718,64.361 806.085,100.34 851.905,146.163 C897.725,191.985 933.705,245.351 958.839,304.778 C984.864,366.316 998.063,431.672 998.063,499.031 C998.063,566.39 984.866,631.748 958.84,693.285 C933.704,752.711 897.726,806.075 851.905,851.895 C806.085,897.718 752.717,933.695 693.291,958.831 C631.751,984.855 566.399,998.051 499.039,998.051 L499.037,998.05 Z M499.037,46.04 C437.874,46.04 378.552,58.014 322.719,81.628 C268.779,104.442 220.329,137.108 178.719,178.718 C137.109,220.326 104.442,268.773 81.629,322.713 C58.012,378.543 46.039,437.867 46.039,499.031 C46.039,560.196 58.012,619.518 81.629,675.349 C104.441,729.287 137.109,777.733 178.719,819.341 C220.329,860.947 268.776,893.611 322.719,916.426 C378.549,940.04 437.872,952.014 499.035,952.014 C560.2,952.014 619.522,940.04 675.355,916.426 C729.292,893.613 777.738,860.948 819.345,819.34 C860.955,777.73 893.617,729.284 916.431,675.346 C940.046,619.516 952.021,560.193 952.021,499.03 C952.021,437.867 940.046,378.544 916.431,322.712 C893.618,268.772 860.953,220.325 819.345,178.716 C777.738,137.106 729.292,104.441 675.355,81.626 C619.522,58.014 560.2,46.04 499.036,46.04 L499.037,46.04 Z" id="Shape" fill="#000000"></path>
            <path d="M146.465,715.805 C143.619,712.088 140.397,706.982 137.383,701.389 C132.373,692.089 130.793,685.159 131.808,678.519 C132.845,671.399 137.152,664.955 145.796,660.295 C155.166,655.245 163.471,655.175 170.011,657.743 C177.078,660.59 183.341,667.34 188.507,676.928 C191.599,682.665 193.429,686.93 194.553,689.888 L146.468,715.802 L146.465,715.805 Z M180.427,683.16 C180.137,682.098 179.314,680.572 178.57,679.192 C173.24,669.129 164.196,665.566 152.502,671.869 C142.292,677.275 140.128,686.129 145.256,695.645 C146.586,698.115 147.666,699.595 148.392,700.421 L180.427,683.158 L180.427,683.16 Z M131.673,604.696 L138.196,624.092 L150.711,619.884 L143.427,598.219 L153.204,594.929 L164.514,628.562 L111.797,646.292 L100.857,613.754 L110.632,610.464 L117.552,631.036 L128.502,627.353 L121.978,607.956 L131.676,604.694 L131.673,604.696 Z M94.333,584.86 C93.046,581.143 91.665,575.85 90.408,568.28 C89.138,560.628 89.698,554.93 92.018,550.78 C94.206,546.82 98.373,543.702 103.746,542.81 C109.119,541.918 113.976,542.95 117.61,545.694 C122.3,549.264 125.133,555.236 126.35,562.562 C126.62,564.192 126.783,565.67 126.81,566.836 L146.428,563.578 L148.47,575.871 L94.332,584.861 L94.333,584.86 Z M117.203,568.432 C117.273,567.332 117.137,566.016 116.839,564.225 C115.742,557.631 111.729,554.115 106.111,555.048 C101.063,555.886 98.631,559.886 99.661,566.074 C100.079,568.596 100.607,570.266 101.001,571.121 L117.201,568.434 L117.203,568.432 Z M126.39,509.517 L140.682,513.417 L140.738,526.453 L85.048,509.693 L84.978,493.19 L140.52,475.705 L140.578,489.237 L126.321,493.59 L126.391,509.517 L126.39,509.517 Z M116.922,495.447 L105.137,498.964 C101.841,499.968 97.719,500.977 94.422,501.816 L94.422,501.981 C97.728,502.795 101.939,503.601 105.162,504.495 L116.975,507.745 L116.922,495.449 L116.922,495.447 Z M88.488,448.22 C88.521,444.124 89.051,438.105 90.18,431.516 C91.575,423.383 93.77,417.899 97.53,414.526 C100.69,411.718 104.82,410.586 109.863,411.449 C116.857,412.649 120.805,418.429 121.703,423.439 L121.948,423.482 C124.148,419.924 128.171,418.439 133.45,417.92 C139.924,417.273 147.373,416.79 149.67,416.097 L147.494,428.785 C145.794,429.415 141.1,429.95 134.071,430.418 C126.991,430.71 124.716,432.748 123.769,437.775 L123.127,441.517 L144.679,445.211 L142.574,457.491 L88.49,448.219 L88.488,448.22 Z M114.178,439.985 L115.016,435.105 C116.076,428.925 113.613,424.735 108.814,423.911 C103.772,423.049 100.664,426.031 99.607,431.711 C99.091,434.721 99.043,436.471 99.052,437.394 L114.179,439.987 L114.178,439.985 Z M115.465,374.015 L110.611,388.137 L100.625,384.704 L114.517,344.284 L124.505,347.717 L119.571,362.075 L162.174,376.718 L158.071,388.656 L115.466,374.014 L115.465,374.015 Z M178.332,295.065 C172.406,291.963 165.264,288.165 158.242,284.15 L158.122,284.365 C163.422,289.391 169.152,295.329 173.745,300.427 L189.225,317.074 L184.352,325.598 L162.706,320.065 C156.146,318.405 148.326,316.121 141.368,313.663 L141.286,313.806 C147.641,317.82 154.969,322.294 160.78,326.093 L178.628,337.439 L172.853,347.539 L126.333,316.849 L134.646,302.309 L153.466,306.799 C159.914,308.486 166.792,310.423 173.066,312.584 L173.189,312.369 C168.379,307.815 162.945,302.521 158.473,297.874 L145.375,283.541 L153.525,269.286 L203.323,294.243 L197.22,304.915 L178.33,295.065 L178.332,295.065 Z M219.782,237.938 L206.472,253.481 L216.5,262.071 L231.368,244.711 L239.203,251.418 L216.123,278.368 L173.88,242.193 L196.208,216.121 L204.042,222.831 L189.926,239.313 L198.701,246.827 L212.014,231.285 L219.784,237.941 L219.782,237.938 Z M252.85,237.505 L217.435,194.615 L228.762,185.261 L250.65,193.626 C256.926,196.042 263.885,199.286 269.788,202.544 L269.978,202.386 C264.666,197.249 259.693,191.616 254.386,185.189 L244.034,172.653 L252.944,165.298 L288.359,208.188 L278.175,216.594 L255.35,207.617 C249.02,205.137 241.65,201.912 235.4,198.619 L235.26,198.839 C240.193,204.293 245.31,210.233 251.09,217.233 L261.76,230.15 L252.85,237.507 L252.85,237.505 Z M293.625,151.782 L280.643,159.169 L275.42,149.986 L312.573,128.848 L317.797,138.028 L304.6,145.538 L326.88,184.698 L315.906,190.941 L293.626,151.779 L293.625,151.782 Z M424.582,118.518 C429.33,136.125 421.534,149.678 405.839,153.911 C389.903,158.209 377.339,148.691 373.214,133.398 C368.874,117.305 375.908,102.504 391.762,98.228 C408.252,93.781 420.584,103.702 424.58,118.52 L424.582,118.518 Z M385.977,129.698 C388.813,140.214 395.75,146.291 403.877,144.098 C412.082,141.888 414.677,132.812 411.862,122.376 C409.262,112.736 402.408,105.696 394.042,107.952 C385.838,110.165 383.164,119.262 385.977,129.697 L385.977,129.698 Z M446.024,88.078 L479.884,85.061 L480.8,95.336 L459.514,97.232 L460.641,109.89 L480.531,108.12 L481.441,118.31 L461.551,120.082 L463.535,142.352 L450.96,143.472 L446.025,88.08 L446.024,88.078 Z M542.468,87.61 C545.83,87.46 552.512,87.99 558.71,88.947 C566.294,90.117 570.83,91.567 574.46,94.55 C577.98,97.18 580.174,101.36 579.405,106.334 C578.65,111.228 575.092,115.354 568.541,116.681 L568.519,116.846 C574.534,119.528 578.453,124.976 577.359,132.07 C576.589,137.044 573.703,140.606 569.849,142.85 C565.363,145.414 558.399,146.176 547.469,144.49 C541.354,143.547 536.849,142.435 534.139,141.598 L542.469,87.611 L542.468,87.61 Z M547.774,134.935 C548.972,135.287 550.44,135.515 552.56,135.841 C558.188,136.711 563.49,135.358 564.382,129.568 C565.237,124.022 560.604,121.053 554.405,120.096 L550.165,119.443 L547.775,134.938 L547.774,134.935 Z M551.537,110.551 L555.614,111.181 C562.138,112.189 566.06,110.038 566.689,105.961 C567.329,101.801 564.489,99.108 558.861,98.241 C556.171,97.824 554.595,97.751 553.511,97.751 L551.535,110.553 L551.537,110.551 Z M621.997,103.725 L606.27,157.073 L594.16,153.503 L609.888,100.155 L621.998,103.725 L621.997,103.725 Z M627.407,163.705 L650.561,113.135 L663.917,119.25 L665.937,142.59 C666.499,149.29 666.615,156.97 666.255,163.7 L666.48,163.804 C668.787,156.784 671.687,149.854 675.157,142.274 L681.925,127.494 L692.429,132.302 L669.275,182.872 L657.27,177.376 L655.4,152.922 C654.87,146.146 654.56,138.107 654.795,131.045 L654.535,131.017 C651.778,137.833 648.665,145.029 644.887,153.282 L637.913,168.512 L627.408,163.704 L627.407,163.705 Z M706.82,189.561 L695.36,198.951 L684.703,191.441 L730.627,155.766 L744.119,165.27 L726.189,220.664 L715.124,212.871 L719.837,198.731 L706.817,189.561 L706.82,189.561 Z M723.772,189.997 L727.734,178.355 C728.826,175.087 730.392,171.145 731.619,167.97 L731.481,167.873 C728.906,170.096 725.808,173.061 723.211,175.169 L713.718,182.914 L723.768,189.994 L723.772,189.997 Z M778.748,194.177 C782.066,196.577 786.664,200.502 791.375,205.242 C797.192,211.098 800.387,216.067 800.955,221.087 C801.408,225.29 799.935,229.312 796.308,232.917 C791.275,237.92 784.273,237.782 779.67,235.607 L779.494,235.782 C781.116,239.638 779.994,243.778 777.354,248.379 C774.128,254.029 770.199,260.377 769.434,262.649 L760.358,253.519 C760.831,251.769 763.118,247.635 766.813,241.636 C770.683,235.696 770.343,232.661 766.793,228.974 L764.118,226.282 L748.608,241.696 L739.825,232.859 L778.748,194.177 L778.748,194.177 Z M770.558,219.883 L774.048,223.395 C778.468,227.843 783.31,228.267 786.763,224.835 C790.393,221.228 789.763,216.965 785.749,212.811 C783.595,210.646 782.199,209.591 781.441,209.064 L770.555,219.884 L770.558,219.883 Z M787.216,285.871 L805.786,272.688 L822.391,239.348 L830.704,251.053 L823.1,263.433 C820.805,267.187 819.05,269.848 816.904,273.095 L816.999,273.228 C820.539,272.231 823.929,271.446 828.114,270.498 L842.261,267.336 L850.431,278.842 L813.384,282.679 L794.477,296.099 L787.217,285.873 L787.216,285.871 Z M844.258,358.541 L829.508,359.929 L824.863,347.746 L882.883,343.808 L888.765,359.228 L842.947,395.161 L838.125,382.517 L849.935,373.421 L844.258,358.541 L844.258,358.541 Z M858.076,368.371 L867.866,360.929 C870.596,358.829 874.099,356.432 876.888,354.485 L876.83,354.332 C873.45,354.738 869.226,355.468 865.895,355.766 L853.695,356.888 L858.075,368.374 L858.076,368.371 Z M901.89,402.149 L908.554,435.485 L898.439,437.505 L894.249,416.549 L881.789,419.039 L885.701,438.619 L875.668,440.626 L871.753,421.044 L849.826,425.427 L847.35,413.047 L901.886,402.149 L901.89,402.149 Z M911.958,464.427 L913.448,498.393 L903.143,498.846 L902.205,477.496 L889.51,478.052 L890.385,498.002 L880.163,498.452 L879.287,478.502 L856.945,479.482 L856.392,466.87 L911.958,464.43 L911.958,464.427 Z M870.485,530.371 L856.722,524.893 L858.132,511.933 L911.582,534.841 L909.797,551.247 L852.647,562.38 L854.109,548.925 L868.761,546.202 L870.483,530.37 L870.485,530.371 Z M878.312,545.417 L890.416,543.247 C893.806,542.617 898.014,542.081 901.384,541.617 L901.401,541.453 C898.211,540.275 894.118,539.001 891.016,537.751 L879.643,533.194 L878.315,545.417 L878.312,545.417 Z M898.856,606.503 L844.936,592.863 L848.034,580.623 L901.954,594.263 L898.856,606.503 L898.856,606.503 Z M889.824,634.658 C888.938,638.658 887.166,644.435 884.688,650.643 C881.628,658.307 878.338,663.213 873.958,665.729 C870.283,667.816 866.008,668.066 861.258,666.169 C854.666,663.539 852.01,657.059 852.174,651.972 L851.944,651.882 C849.05,654.902 844.806,655.519 839.534,654.926 C833.068,654.211 825.682,653.129 823.292,653.33 L828.062,641.375 C829.855,641.112 834.56,641.568 841.532,642.575 C848.522,643.763 851.172,642.245 853.142,637.522 L854.55,633.998 L834.24,625.893 L838.858,614.323 L889.824,634.663 L889.824,634.658 Z M862.98,637.361 L861.145,641.959 C858.82,647.784 860.357,652.396 864.878,654.199 C869.63,656.095 873.29,653.825 875.508,648.489 C876.64,645.655 877.052,643.954 877.235,643.049 L862.98,637.361 L862.98,637.361 Z M825.77,676.231 C822.542,678.241 818.383,681.808 815.624,686.409 C812.654,691.363 813.136,695.213 816.249,697.079 C819.219,698.862 822.276,697.616 827.766,693.114 C835.28,686.844 842.766,684.307 849.702,688.467 C857.842,693.349 859.994,703.877 853.246,715.129 C850.021,720.509 846.513,723.793 843.541,725.859 L836.279,718.233 C838.345,716.873 841.727,714.283 844.529,709.611 C847.331,704.939 846.564,701.403 844.087,699.918 C841.044,698.094 838.087,699.978 832.059,704.732 C823.895,711.289 817.129,712.622 810.409,708.588 C802.409,703.793 799.309,693.562 807.159,680.468 C810.429,675.02 815.069,670.49 818.169,668.693 L825.769,676.233 L825.77,676.231 Z" id="Shape" fill="#000000"></path>
            <path d="M498.767,165.823 C314.734,165.823 165.545,315.003 165.545,499.031 C165.545,683.051 314.735,832.239 498.767,832.239 C682.803,832.239 831.977,683.051 831.977,499.033 C831.977,315.006 682.803,165.826 498.767,165.826 L498.767,165.823 Z M656.68,352.737 L655.19,669.711 C655.19,670.029 654.616,702.955 606.844,703.798 C604.179,703.861 601.656,704.003 599.104,704.098 C593.744,704.321 588.366,704.51 582.99,704.733 C576.39,704.988 569.795,705.275 563.21,705.528 C557.153,705.782 551.094,705.924 545.035,706.16 C534.235,706.605 525.352,709.015 516.15,714.79 C510.046,718.643 501.43,723.8 499.736,731.442 C499.181,727.968 496.959,724.752 494.534,722.324 C489.537,717.361 483.034,714.094 476.754,711.094 C468.997,707.4 460.956,707.588 452.564,707.384 C439.781,707.081 426.982,706.159 414.198,705.75 C407.075,705.527 399.97,705.21 392.865,704.942 C345.202,704.098 344.647,671.172 344.647,670.822 L343.14,353.872 L312.466,314.855 L445.618,314.838 L687.403,313.664 L656.679,352.739 L656.68,352.737 Z" id="Shape" fill="#000000"></path>
            <path d="M332.593,449.616 L677.9,449.616 M325.36,584.504 L670.685,584.504" id="Shape" stroke="#000000" stroke-width="12.3"></path>
            <polyline id="Shape" stroke="#000000" fill="#000000" points="532.426 425.76 491.629 333.41 484.919 336.376 497.561 364.973 467.313 423.659 473.833 427.019 501.367 373.607 525.714 428.723"></polyline>
            <polygon id="Shape" stroke="#000000" stroke-width="5.617" points="532.426 425.76 491.629 333.41 484.919 336.376 497.561 364.973 467.313 423.659 473.833 427.019 501.367 373.607 525.714 428.723"></polygon>
            <polygon id="Shape" stroke="#000000" stroke-width="10.299" points="425.824 485.365 490.981 485.365 490.981 550.53 425.826 550.53"></polygon>
            <polygon id="Shape" stroke="#000000" stroke-width="10.299" points="490.885 485.365 556.043 485.365 556.043 550.53 490.885 550.53"></polygon>
            <path d="M532.726,517.507 C532.726,522.63 528.556,526.787 523.462,526.787 C518.358,526.787 514.184,522.63 514.184,517.507 C514.184,512.399 518.358,508.243 523.462,508.243 C528.555,508.243 532.726,512.399 532.726,517.507 L532.726,517.507 Z" id="Shape" fill="#000000"></path>
            <path d="M523.462,517.507 L571.572,517.507" id="Shape" stroke="#000000" stroke-width="6.866"></path>
            <path d="M570.063,502.346 C570.873,502.346 586.591,517.224 586.591,517.224 L570.065,531.53 L570.065,502.346 L570.063,502.346 Z M406.837,611.245 L418.417,611.245 C419.399,611.69 419.621,612.548 419.749,613.531 C420.079,615.941 420.492,618.368 420.825,620.797 C420.905,621.24 421.063,621.431 421.492,621.589 C422.538,621.969 423.552,622.384 424.537,622.842 C425.012,623.067 425.297,623.049 425.709,622.732 C427.739,621.178 429.801,619.64 431.849,618.102 C432.657,617.498 433.481,617.452 434.179,618.132 C436.717,620.655 439.239,623.192 441.699,625.795 C442.619,626.761 442.553,627.507 441.713,628.601 C440.317,630.441 438.923,632.281 437.479,634.087 C437.099,634.565 437.049,634.929 437.321,635.484 C437.828,636.514 438.303,637.577 438.667,638.672 C438.857,639.277 439.207,639.467 439.777,639.542 C442.187,639.895 444.567,640.307 446.963,640.608 C448.106,640.75 448.787,641.258 449.025,642.368 L449.025,653.122 C448.708,654.106 448.073,654.61 446.995,654.756 C444.6,655.041 442.205,655.453 439.81,655.786 C439.176,655.866 438.795,656.054 438.59,656.736 C438.273,657.706 437.845,658.641 437.384,659.546 C437.114,660.053 437.114,660.418 437.48,660.86 C439.02,662.794 440.51,664.732 442.016,666.667 C442.714,667.587 442.794,668.222 442.19,668.984 C439.907,671.838 437.4,674.47 434.545,676.754 C433.215,677.784 432.627,677.736 431.311,676.706 C429.471,675.263 427.616,673.834 425.791,672.376 C425.428,672.06 425.126,672.043 424.699,672.25 C423.683,672.726 422.621,673.152 421.574,673.55 C421.146,673.708 420.941,673.93 420.876,674.422 C420.496,677.119 420.068,679.798 419.592,682.496 C419.402,683.51 418.862,683.892 417.847,683.892 C414.39,683.908 410.947,683.908 407.507,683.892 C406.397,683.892 405.841,683.352 405.683,682.275 C405.286,679.705 404.89,677.103 404.509,674.517 C404.429,673.997 404.239,673.707 403.716,673.519 C402.716,673.169 401.75,672.789 400.796,672.331 C400.29,672.091 399.942,672.121 399.496,672.471 C397.514,674.026 395.5,675.533 393.501,677.041 C392.724,677.641 391.868,677.704 391.233,677.101 C388.678,674.594 386.14,672.088 383.666,669.488 C382.636,668.41 382.716,667.681 383.618,666.476 C385.046,664.619 386.473,662.764 387.916,660.923 C388.218,660.543 388.233,660.257 388.011,659.813 C387.488,658.705 387.011,657.543 386.599,656.385 C386.409,655.881 386.171,655.658 385.616,655.595 C383.096,655.245 380.541,654.865 378.019,654.467 C376.829,654.294 376.354,653.785 376.354,652.612 C376.339,649.187 376.339,645.762 376.354,642.368 C376.354,641.258 376.879,640.671 377.957,640.496 C380.557,640.084 383.175,639.67 385.792,639.306 C386.268,639.228 386.474,639.021 386.632,638.576 C387.029,637.528 387.472,636.499 387.966,635.466 C388.173,635.009 388.156,634.688 387.856,634.279 C386.301,632.344 384.794,630.379 383.272,628.427 C382.589,627.537 382.492,626.95 383.176,626.127 C385.444,623.239 387.996,620.575 390.9,618.323 C392.105,617.387 392.612,617.433 393.835,618.386 C395.753,619.846 397.641,621.306 399.513,622.799 C399.893,623.114 400.18,623.114 400.623,622.892 C401.56,622.447 402.511,622.035 403.493,621.686 C404.097,621.496 404.366,621.208 404.446,620.576 C404.78,618.053 405.206,615.563 405.586,613.056 C405.716,612.246 406.1,611.626 406.844,611.246 L406.837,611.245 Z M412.659,635.482 C405.919,635.482 400.555,640.827 400.539,647.537 C400.524,654.294 405.919,659.685 412.659,659.685 C419.369,659.702 424.759,654.293 424.743,647.537 C424.727,640.793 419.383,635.482 412.657,635.482 L412.659,635.482 Z M491.805,611.245 L503.385,611.245 C504.385,611.69 504.589,612.548 504.717,613.531 C505.05,615.941 505.463,618.368 505.812,620.797 C505.874,621.24 506.049,621.431 506.462,621.589 C507.51,621.969 508.522,622.384 509.522,622.842 C509.982,623.067 510.284,623.049 510.697,622.732 C512.725,621.178 514.773,619.64 516.819,618.102 C517.626,617.498 518.449,617.452 519.149,618.132 C521.686,620.655 524.224,623.192 526.683,625.795 C527.603,626.761 527.523,627.507 526.698,628.601 C525.288,630.441 523.89,632.281 522.448,634.087 C522.065,634.565 522.034,634.929 522.305,635.484 C522.812,636.514 523.272,637.577 523.635,638.672 C523.841,639.277 524.175,639.467 524.762,639.542 C527.156,639.895 529.535,640.307 531.946,640.608 C533.072,640.75 533.771,641.258 534.006,642.368 L534.006,653.122 C533.674,654.106 533.039,654.61 531.978,654.756 C529.568,655.041 527.188,655.453 524.778,655.786 C524.143,655.866 523.76,656.054 523.556,656.736 C523.239,657.706 522.826,658.641 522.349,659.546 C522.082,660.053 522.082,660.418 522.447,660.86 C523.984,662.794 525.477,664.732 526.982,666.667 C527.695,667.587 527.76,668.222 527.156,668.984 C524.888,671.838 522.366,674.47 519.51,676.754 C518.18,677.784 517.59,677.736 516.275,676.706 C514.437,675.263 512.595,673.834 510.758,672.376 C510.394,672.06 510.091,672.043 509.68,672.25 C508.65,672.726 507.6,673.152 506.554,673.55 C506.111,673.708 505.92,673.93 505.84,674.422 C505.46,677.119 505.032,679.798 504.556,682.496 C504.382,683.51 503.842,683.892 502.826,683.892 C499.354,683.908 495.91,683.908 492.47,683.892 C491.36,683.892 490.82,683.352 490.646,682.275 C490.25,679.705 489.854,677.103 489.472,674.517 C489.41,673.997 489.202,673.707 488.68,673.519 C487.695,673.169 486.714,672.789 485.776,672.331 C485.269,672.091 484.904,672.121 484.461,672.471 C482.481,674.026 480.481,675.533 478.466,677.041 C477.691,677.641 476.833,677.704 476.216,677.101 C473.661,674.594 471.108,672.088 468.649,669.488 C467.619,668.41 467.682,667.681 468.603,666.476 C470.013,664.619 471.443,662.764 472.9,660.923 C473.186,660.543 473.202,660.257 472.995,659.813 C472.472,658.705 471.995,657.543 471.567,656.385 C471.377,655.881 471.139,655.658 470.583,655.595 C468.063,655.245 465.523,654.865 462.985,654.467 C461.812,654.294 461.32,653.785 461.32,652.612 C461.305,649.187 461.305,645.762 461.32,642.368 C461.32,641.258 461.844,640.671 462.924,640.496 C465.54,640.084 468.141,639.67 470.759,639.306 C471.232,639.228 471.454,639.021 471.612,638.576 C471.992,637.528 472.437,636.499 472.929,635.466 C473.151,635.009 473.135,634.688 472.819,634.279 C471.265,632.344 469.773,630.379 468.251,628.427 C467.553,627.537 467.473,626.95 468.139,626.127 C470.423,623.239 472.961,620.575 475.863,618.323 C477.069,617.387 477.576,617.433 478.813,618.386 C480.717,619.846 482.605,621.306 484.491,622.799 C484.871,623.114 485.158,623.114 485.586,622.892 C486.523,622.447 487.474,622.035 488.474,621.686 C489.061,621.496 489.33,621.208 489.411,620.576 C489.761,618.053 490.186,615.563 490.567,613.056 C490.694,612.246 491.074,611.626 491.804,611.246 L491.805,611.245 Z M497.625,635.482 C490.885,635.482 485.541,640.827 485.523,647.537 C485.507,654.294 490.883,659.685 497.625,659.685 C504.352,659.702 509.729,654.293 509.712,647.537 C509.698,640.793 504.37,635.482 497.625,635.482 L497.625,635.482 Z M576.772,611.245 L588.366,611.245 C589.35,611.69 589.556,612.548 589.683,613.531 C590.033,615.941 590.443,618.368 590.778,620.797 C590.84,621.24 591.015,621.431 591.444,621.589 C592.49,621.969 593.506,622.384 594.488,622.842 C594.948,623.067 595.25,623.049 595.663,622.732 C597.693,621.178 599.739,619.64 601.786,618.102 C602.596,617.498 603.434,617.452 604.116,618.132 C606.671,620.655 609.192,623.192 611.651,625.795 C612.571,626.761 612.491,627.507 611.668,628.601 C610.272,630.441 608.878,632.281 607.434,634.087 C607.054,634.565 607.004,634.929 607.277,635.484 C607.784,636.514 608.243,637.577 608.623,638.672 C608.816,639.277 609.149,639.467 609.735,639.542 C612.131,639.895 614.525,640.307 616.919,640.608 C618.047,640.75 618.743,641.258 618.982,642.368 L618.982,653.122 C618.662,654.106 618.032,654.61 616.952,654.756 C614.556,655.041 612.162,655.453 609.767,655.786 C609.132,655.866 608.75,656.054 608.531,656.736 C608.227,657.706 607.801,658.641 607.341,659.546 C607.071,660.053 607.071,660.418 607.435,660.86 C608.973,662.794 610.451,664.732 611.971,666.667 C612.667,667.587 612.748,668.222 612.131,668.984 C609.861,671.838 607.338,674.47 604.499,676.754 C603.167,677.784 602.564,677.736 601.263,676.706 C599.423,675.263 597.569,673.834 595.73,672.376 C595.363,672.06 595.076,672.043 594.65,672.25 C593.634,672.726 592.572,673.152 591.523,673.55 C591.08,673.708 590.888,673.93 590.826,674.422 C590.444,677.119 590.016,679.798 589.526,682.496 C589.351,683.51 588.81,683.892 587.796,683.892 C584.339,683.908 580.896,683.908 577.439,683.892 C576.344,683.892 575.789,683.352 575.614,682.275 C575.218,679.705 574.821,677.103 574.442,674.517 C574.378,673.997 574.187,673.707 573.662,673.519 C572.664,673.169 571.696,672.789 570.744,672.331 C570.237,672.091 569.889,672.121 569.43,672.471 C567.464,674.026 565.45,675.533 563.45,677.041 C562.675,677.641 561.8,677.704 561.183,677.101 C558.628,674.594 556.09,672.088 553.616,669.488 C552.586,668.41 552.65,667.681 553.57,666.476 C554.983,664.619 556.41,662.764 557.866,660.923 C558.171,660.543 558.186,660.257 557.964,659.813 C557.442,658.705 556.967,657.543 556.536,656.385 C556.363,655.881 556.123,655.658 555.569,655.595 C553.029,655.245 550.491,654.865 547.969,654.467 C546.779,654.294 546.304,653.785 546.304,652.612 C546.289,649.187 546.289,645.762 546.304,642.368 C546.304,641.258 546.828,640.671 547.89,640.496 C550.508,640.084 553.125,639.67 555.74,639.306 C556.22,639.228 556.426,639.021 556.584,638.576 C556.98,637.528 557.408,636.499 557.914,635.466 C558.121,635.009 558.104,634.688 557.804,634.279 C556.252,632.344 554.744,630.379 553.222,628.427 C552.524,627.537 552.444,626.95 553.126,626.127 C555.394,623.239 557.932,620.575 560.851,618.323 C562.056,617.387 562.564,617.433 563.786,618.386 C565.69,619.846 567.593,621.306 569.466,622.799 C569.844,623.114 570.132,623.114 570.574,622.892 C571.494,622.447 572.461,622.035 573.444,621.686 C574.049,621.496 574.317,621.208 574.398,620.576 C574.731,618.053 575.158,615.563 575.538,613.056 C575.661,612.246 576.041,611.626 576.772,611.246 L576.772,611.245 Z M582.592,635.482 C575.852,635.482 570.508,640.827 570.492,647.537 C570.475,654.294 575.852,659.685 582.592,659.685 C589.319,659.702 594.697,654.293 594.697,647.537 C594.679,640.793 589.335,635.482 582.593,635.482 L582.592,635.482 Z" id="Shape" fill="#000000"></path>
        </g>
    </g>
</svg>