<?xml version="1.0" encoding="UTF-8" standalone="no"?>
    <svg xmlns="http://www.w3.org/2000/svg" xmlns:xlink="http://www.w3.org/1999/xlink" xmlns:sketch="http://www.bohemiancoding.com/sketch/ns" width="200px" height="53px" viewBox="0 0 200 53" version="1.1">
    <!-- Generator: Sketch 3.4.4 (17249) - http://www.bohemiancoding.com/sketch -->
    <title>Group Copy</title>
    <desc>Created with Sketch.</desc>
    <defs>
        <path id="path-1" d="M22.2040921,0.293606138 L16.9375959,5.56061381 L31.9994885,20.6225064 C34.7892583,23.4122762 36.2378517,26.8076726 36.3227621,30.7519182 C36.4076726,34.711509 35.0368286,38.1237852 32.2368286,40.9242967 C29.4363171,43.7248082 26.0240409,45.0951407 22.0644501,45.0102302 C18.1202046,44.9258312 14.7248082,43.4767263 11.9350384,40.687468 C9.15294118,37.9053708 7.70792839,34.5253197 7.6511509,30.5902813 C7.5943734,26.6450128 8.98772379,23.2537084 11.7769821,20.4644501 L19.1754476,13.0654731 L14.3043478,8.19386189 L6.90537084,15.5928389 C2.69207161,19.8056266 0.554987212,24.8680307 0.479283887,30.8255754 C0.404092072,36.7560102 2.43375959,41.7984655 6.6286445,45.9933504 C10.8388747,50.2035806 15.9084399,52.2250639 21.8578005,52.1626598 C27.8148338,52.0997442 32.8930946,50.0107417 37.1084399,45.7959079 C41.3176471,41.5861893 43.4051151,36.5176471 43.455243,30.5672634 C43.5053708,24.6230179 41.4721228,19.5611253 37.2664962,15.3560102 L22.2040921,0.293606138"></path>
        <path id="path-3" d="M16.9375959,5.56061381 L31.9994885,20.6225064 C34.7892583,23.4122762 36.2378517,26.8076726 36.3227621,30.7519182 C36.4076726,34.711509 35.0368286,38.1237852 32.2368286,40.9242967 C29.4363171,43.7248082 26.0240409,45.0951407 22.0644501,45.0102302 C18.1202046,44.9258312 14.7248082,43.4767263 11.9350384,40.687468 C9.15294118,37.9053708 7.70792839,34.5253197 7.6511509,30.5902813 C7.5943734,26.6450128 8.98772379,23.2537084 11.7769821,20.4644501 L19.1754476,13.0654731 L14.3043478,8.19386189 L6.90537084,15.5928389 C2.69207161,19.8056266 0.554987212,24.8680307 0.479283887,30.8255754 C0.404092072,36.7560102 2.43375959,41.7984655 6.6286445,45.9933504 C10.8388747,50.2035806 15.9084399,52.2250639 21.8578005,52.1626598 C27.8148338,52.0997442 32.8930946,50.0107417 37.1084399,45.7959079 C41.3176471,41.5861893 43.4051151,36.5176471 43.455243,30.5672634 C43.5053708,24.6230179 41.4721228,19.5611253 37.2664962,15.3560102 L22.2040921,0.293606138 L16.9375959,5.56061381 Z"></path>
    </defs>
    <g id="Page-1" stroke="none" stroke-width="1" fill="none" fill-rule="evenodd" sketch:type="MSPage">
        <g id="Group-Copy" sketch:type="MSLayerGroup">
            <g id="Group-12-+-Fill-13">
                <g>
                    <g id="Group-12">
                        <mask id="mask-2" sketch:name="Clip 11" fill="white">
                            <use xlink:href="#path-1"></use>
                        </mask>
                        <g id="Clip-11"></g>
                        <g id="Fill-10">
                            <use fill="none" sketch:type="MSShapeGroup" mask="url(#mask-2)" xlink:href="#path-3"></use>
                            <use fill="#000000" fill-rule="evenodd" xlink:href="#path-3"></use>
                        </g>
                    </g>
                    <path d="M29.4849105,30.8153453 L17.8895141,37.5099744 L17.8895141,24.1202046 L29.4849105,30.8153453" id="Fill-13" fill="#000000" sketch:type="MSShapeGroup"></path>
                </g>
            </g>
            <path d="M50.8521739,15.0710145 L56.5550725,15.0710145 C60.2318841,15.0710145 62.9630435,15.5297101 64.7543478,16.4398551 C66.5398551,17.35 68.0137681,18.8304348 69.1710145,20.8862319 C70.3282609,22.9362319 70.9036232,25.3318841 70.9036232,28.0746377 C70.9036232,30.0253623 70.5804348,31.8166667 69.9347826,33.4492754 C69.2884058,35.0818841 68.3898551,36.4391304 67.2507246,37.5195652 C66.1115942,38.5942029 64.8775362,39.3398551 63.55,39.7572464 C62.2231884,40.1681159 59.9210145,40.373913 56.6427536,40.373913 L50.8521739,40.373913 L50.8521739,15.0710145 L50.8521739,15.0710145 Z M55.6442029,19.7231884 L55.6442029,35.6869565 L57.8768116,35.6869565 C60.0789855,35.6869565 61.6710145,35.434058 62.6637681,34.9289855 C63.6557971,34.423913 64.4666667,33.5724638 65.0949275,32.3804348 C65.7231884,31.1876812 66.0405797,29.7195652 66.0405797,27.9695652 C66.0405797,25.2855072 65.2891304,23.2 63.7913043,21.7202899 C62.4405797,20.3869565 60.2673913,19.7231884 57.2775362,19.7231884 L55.6442029,19.7231884 L55.6442029,19.7231884 Z" id="Fill-1" fill="#000000" sketch:type="MSShapeGroup"></path>
            <path d="M88.8130435,21.6615942 L93.4992754,21.6615942 L93.4992754,40.373913 L88.8130435,40.373913 L88.8130435,38.3826087 C87.8963768,39.2521739 86.973913,39.8746377 86.0521739,40.2565217 C85.1304348,40.6384058 84.1253623,40.8326087 83.0507246,40.8326087 C80.6253623,40.8326087 78.534058,39.8985507 76.765942,38.0246377 C74.9978261,36.1572464 74.1173913,33.8311594 74.1173913,31.0528986 C74.1173913,28.1688406 74.9746377,25.807971 76.684058,23.9637681 C78.3927536,22.1253623 80.4666667,21.2028986 82.9094203,21.2028986 C84.0376812,21.2028986 85.0891304,21.4144928 86.076087,21.8318841 C87.0623188,22.2485507 87.9724638,22.8833333 88.8130435,23.7166667 L88.8130435,21.6615942 L88.8130435,21.6615942 Z M83.8731884,25.5028986 C82.4166667,25.5028986 81.2065217,26.0137681 80.2492754,27.0413043 C79.2855072,28.0630435 78.8043478,29.3789855 78.8043478,30.9826087 C78.8043478,32.5978261 79.292029,33.9246377 80.2724638,34.9702899 C81.2536232,36.0101449 82.4572464,36.5326087 83.8905797,36.5326087 C85.3644928,36.5326087 86.5927536,36.0217391 87.5615942,34.9942029 C88.5369565,33.9717391 89.023913,32.6268116 89.023913,30.9644928 C89.023913,29.3376812 88.5369565,28.0224638 87.5615942,27.0115942 C86.5927536,26.007971 85.3594203,25.5028986 83.8731884,25.5028986 L83.8731884,25.5028986 Z" id="Fill-2" fill="#000000" sketch:type="MSShapeGroup"></path>
            <path d="M100.089855,13.9789855 C100.912319,13.9789855 101.616667,14.2782609 102.204348,14.8717391 C102.797826,15.4652174 103.091304,16.1818841 103.091304,17.0268116 C103.091304,17.8608696 102.797826,18.5717391 102.215942,19.1586957 C101.634783,19.7463768 100.936232,20.0398551 100.119565,20.0398551 C99.2855072,20.0398551 98.5746377,19.7405797 97.9869565,19.142029 C97.3942029,18.5427536 97.1007246,17.8144928 97.1007246,16.9572464 C97.1007246,16.1347826 97.3942029,15.4355072 97.976087,14.8536232 C98.5572464,14.2731884 99.2615942,13.9789855 100.089855,13.9789855 L100.089855,13.9789855 Z M97.7347826,21.6615942 L102.421739,21.6615942 L102.421739,40.373913 L97.7347826,40.373913 L97.7347826,21.6615942 Z" id="Fill-3" fill="#000000" sketch:type="MSShapeGroup"></path>
            <path d="M106.180435,14.4369565 L110.867391,14.4369565 L110.867391,40.3731884 L106.180435,40.3731884 L106.180435,14.4369565 Z" id="Fill-4" fill="#000000" sketch:type="MSShapeGroup"></path>
            <path d="M113.02971,21.6615942 L117.845652,21.6615942 L122.691304,33.3782609 L128.05942,21.6615942 L132.863768,21.6615942 L121.157971,47.2101449 L116.354348,47.2101449 L120.15942,38.9934783 L113.02971,21.6615942" id="Fill-5" fill="#000000" sketch:type="MSShapeGroup"></path>
            <path d="M136.264493,40.373913 L136.264493,15.0710145 L141.515217,15.0710145 C145.298551,15.0710145 148.047101,15.3768116 149.755797,15.9811594 C152.211594,16.8449275 154.131884,18.3311594 155.512319,20.4572464 C156.892029,22.5775362 157.585507,25.1028986 157.585507,28.0398551 C157.585507,30.5768116 157.03913,32.8028986 155.94058,34.7297101 C154.848551,36.6557971 153.421014,38.0833333 151.676087,38.9992754 C149.926087,39.9152174 147.471014,40.373913 144.316667,40.373913 L136.264493,40.373913 L136.264493,40.373913 Z M138.696377,37.9775362 L141.615942,37.9775362 C145.104348,37.9775362 147.518116,37.7601449 148.869565,37.326087 C150.765942,36.7028986 152.263768,35.5927536 153.350725,33.9833333 C154.436957,32.3688406 154.977536,30.4007246 154.977536,28.0746377 C154.977536,25.6376812 154.389855,23.5471014 153.20942,21.8195652 C152.034783,20.0876812 150.39058,18.9007246 148.287681,18.2608696 C146.707971,17.7789855 144.105797,17.5384058 140.481884,17.5384058 L138.696377,17.5384058 L138.696377,37.9775362 L138.696377,37.9775362 Z" id="Fill-6" fill="#000000" sketch:type="MSShapeGroup"></path>
            <path d="M159.635507,21.6615942 L162.102174,21.6615942 L162.102174,24.3985507 C162.836232,23.3173913 163.611594,22.5188406 164.428261,21.9905797 C165.244203,21.4673913 166.095652,21.2028986 166.976812,21.2028986 C167.646377,21.2028986 168.357246,21.4144928 169.114493,21.8376812 L167.857971,23.857971 C167.352899,23.6405797 166.92971,23.5289855 166.583333,23.5289855 C165.778986,23.5289855 165.003623,23.857971 164.257971,24.515942 C163.511594,25.1731884 162.942029,26.2014493 162.548551,27.5876812 C162.248551,28.6507246 162.102174,30.8057971 162.102174,34.0478261 L162.102174,40.373913 L159.635507,40.373913 L159.635507,21.6615942" id="Fill-7" fill="#000000" sketch:type="MSShapeGroup"></path>
            <path d="M172.662319,13.9789855 C173.208696,13.9789855 173.673188,14.1724638 174.060145,14.565942 C174.447826,14.9536232 174.642029,15.4289855 174.642029,15.9753623 C174.642029,16.5166667 174.447826,16.9862319 174.060145,17.373913 C173.673188,17.7673913 173.208696,17.9608696 172.662319,17.9608696 C172.122464,17.9608696 171.663768,17.7673913 171.276812,17.373913 C170.888406,16.9862319 170.694928,16.5166667 170.694928,15.9753623 C170.694928,15.4289855 170.888406,14.9536232 171.276812,14.565942 C171.663768,14.1724638 172.122464,13.9789855 172.662319,13.9789855 L172.662319,13.9789855 Z M171.47029,21.6615942 L173.866667,21.6615942 L173.866667,40.373913 L171.47029,40.373913 L171.47029,21.6615942 Z" id="Fill-8" fill="#000000" sketch:type="MSShapeGroup"></path>
            <path d="M180.304348,21.6615942 L182.700725,21.6615942 L182.700725,25.1028986 C183.652174,23.7934783 184.744928,22.8181159 185.984058,22.1724638 C187.223188,21.526087 188.603623,21.2028986 190.130435,21.2028986 C192.791304,21.2028986 195.064493,22.1608696 196.955072,24.0695652 C198.846377,25.9782609 199.792754,28.2804348 199.792754,30.9644928 C199.792754,33.7130435 198.852899,36.0391304 196.978986,37.9601449 C195.105072,39.8746377 192.844203,40.8326087 190.194928,40.8326087 C188.708696,40.8326087 187.34058,40.5202899 186.089855,39.9043478 C184.838406,39.2811594 183.71087,38.3594203 182.700725,37.1318841 L182.700725,47.2101449 L180.304348,47.2101449 L180.304348,21.6615942 L180.304348,21.6615942 Z M189.954348,23.5289855 C187.869565,23.5289855 186.118841,24.2514493 184.697826,25.7021739 C183.271014,27.1528986 182.55942,28.9557971 182.55942,31.1115942 C182.55942,32.5268116 182.876812,33.8014493 183.51087,34.9289855 C184.145652,36.0630435 185.055797,36.9550725 186.236232,37.6188406 C187.423188,38.2826087 188.673913,38.6115942 189.983333,38.6115942 C191.276087,38.6115942 192.492029,38.2768116 193.631159,37.6072464 C194.77029,36.9434783 195.675362,36.0101449 196.350725,34.8115942 C197.026087,33.6137681 197.36087,32.3565217 197.36087,31.0471014 C197.36087,29.7195652 197.026087,28.4630435 196.356522,27.2768116 C195.686957,26.0898551 194.788406,25.1673913 193.654348,24.515942 C192.526812,23.857971 191.287681,23.5289855 189.954348,23.5289855 L189.954348,23.5289855 Z" id="Fill-9" fill="#000000" sketch:type="MSShapeGroup"></path>
        </g>
    </g>
</svg>