<?xml version="1.0" encoding="utf-8"?>
<!-- Generator: Adobe Illustrator 15.0.2, SVG Export Plug-In . SVG Version: 6.00 Build 0)  -->
<svg version="1.2" baseProfile="tiny" id="Layer_1" xmlns="http://www.w3.org/2000/svg" xmlns:xlink="http://www.w3.org/1999/xlink"
	 x="0px" y="0px" width="440px" height="84.501px" viewBox="0 0 440 84.501" overflow="inherit" xml:space="preserve">
<g>
	<path fill="none" d="M48.097,32.16l-5.855,2.582c-0.692,2.069-1.036,4.48-1.036,7.236c0,6.288,2.153,11.11,5.598,14.383
		l1.293-0.603V32.16z"/>
	<path fill="#010101" d="M69.025,59.462V46.972l6.801-6.116l-6.801-6.024v-8.528c6.37-0.26,10.939-4.999,10.939-10.683
		c0-7.318-6.976-9.901-10.939-9.901c-0.863,0-1.811,0-3.186,0.344v0.342c0.513,0,1.291-0.084,1.547-0.084
		c2.758,0,4.822,1.294,4.822,3.789c0,1.896-1.547,3.792-4.302,3.792c-6.808,0-14.815-5.516-23.513-5.516
		c-7.753,0-13.091,5.773-13.091,11.628c0,5.77,3.358,7.665,6.89,8.958l0.084-0.346c-1.118-0.688-1.894-1.892-1.894-3.789
		c0-2.584,2.412-4.739,5.427-4.739c7.317,0,19.118,6.033,26.438,6.204h0.26v8.612l-6.805,5.94l6.805,6.116v12.662
		c-2.499,0.859-5.34,1.294-8.44,1.294c-5.084,0-9.559-1.294-12.833-4.224l12.399-5.509v-24.72l-17.222,7.577
		c2.151-6.112,6.459-9.297,9.989-10.851l-0.083-0.259c-12.489,2.759-22.566,11.8-22.566,24.2c0,14.474,11.196,25.41,27.216,25.41
		c16.709,0,24.372-12.23,24.372-24.547v-1.033h-0.259C79.016,52.483,74.967,57.047,69.025,59.462z M41.206,41.978
		c0-2.756,0.344-5.167,1.036-7.236l5.855-2.582v23.599l-1.293,0.603C43.359,53.088,41.206,48.266,41.206,41.978z"/>
	<path fill="#63BB46" d="M5.729,47.218v13.154c0,6.12,0.725,9.029,3.066,11.371c2.583,2.74,5.158,3.304,14.839,3.548v-4.275
		c-5.319-1.051-6.209-2.26-6.209-8.792V48.106c0-2.422-0.318-4.922-0.805-6.775c-0.406-1.614-1.129-2.506-2.823-3.711
		c1.694-1.047,2.417-2.017,2.898-3.793c0.412-1.771,0.729-4.52,0.729-6.775V13.179c0-6.698,0.968-8.064,6.209-9.031V0h-3.915
		c-3.652,0.174-5.296,0.455-7.214,1.074C9.92,1.888,7.744,4.065,6.776,6.721c-0.806,2.183-1.048,3.958-1.048,8.074V27.86
		c0,3.632-0.159,4.512-1.13,5.896c-0.961,1.194-2.086,1.841-4.568,2.563v2.517C5.087,40.61,5.729,41.584,5.729,47.218z"/>
</g>
<g>
	<path fill="none" d="M220.471,13.617v-2.282c0,0-0.466,0.533-1.209,0.533c-0.734,0-1.224-0.533-1.224-0.533v2.308
		c0,0,0.49-0.538,1.224-0.538C220.005,13.105,220.471,13.617,220.471,13.617z"/>
	<path fill="none" d="M249.633,58.434c0-3.156-1.122-4.734-3.365-4.734c-1.521,0-2.548,0.723-3.081,2.167
		c-0.114,0.304-0.19,0.637-0.228,0.998c-0.038,0.362-0.058,0.96-0.058,1.797v0.456h6.731V58.434z"/>
	<path fill="none" d="M219.266,11.606c0.741,0,1.206-0.594,1.206-0.594V6.384l-1.64-1.442l-0.793,0.627v5.42
		C218.038,10.989,218.53,11.606,219.266,11.606z"/>
	<polygon fill="none" points="181.632,10.294 181.632,16.544 184.197,14.666 	"/>
	<polygon fill="none" points="308.29,10.294 308.29,16.544 310.86,14.666 	"/>
	<path fill="none" d="M266.127,13.26c0.08,1.486,0.912,3.258,1.548,4.003l1.23-0.61V9.026l-2.295,1.026
		C266.61,10.052,266.025,11.359,266.127,13.26z"/>
	<path fill="none" d="M219.753,21.409c0.803-0.663,0.718-1.588,0.718-1.588v-5.851c0,0-0.464-0.593-1.206-0.593
		c-0.736,0-1.228,0.611-1.228,0.611v7.747C218.038,21.735,219.033,22,219.753,21.409z"/>
	<polygon fill="none" points="229.779,17.984 232.579,20.527 232.579,12.765 229.779,10.178 	"/>
	<path fill="none" d="M184.381,53.7c-1.521,0-2.548,0.723-3.081,2.167c-0.114,0.304-0.191,0.637-0.228,0.998
		c-0.038,0.362-0.057,0.96-0.057,1.797v0.456h6.73v-0.684C187.747,55.278,186.624,53.7,184.381,53.7z"/>
	<path fill="none" d="M335.762,67.047c0.761,0,1.445-0.237,2.055-0.712c0.606-0.476,1.064-1.093,1.369-1.855
		c0.264-0.76,0.398-1.996,0.398-3.708c0-0.988-0.038-1.872-0.113-2.652c-0.078-0.779-0.192-1.377-0.342-1.796
		c-0.305-0.799-0.752-1.435-1.341-1.911c-0.591-0.475-1.266-0.713-2.026-0.713c-2.472,0-3.707,2.13-3.707,6.388
		C332.055,64.729,333.29,67.047,335.762,67.047z"/>
	<path fill="none" d="M318.179,18.161c1.889,0.384,2.543,2.381,2.543,2.381v-4.589l-1.314-1.143
		c-1.445,1.455-4.017,3.558-4.339,4.83C315.068,19.641,316.212,17.751,318.179,18.161z"/>
	<path fill="none" d="M370.329,53.7c-1.522,0-2.548,0.723-3.082,2.167c-0.113,0.304-0.19,0.637-0.228,0.998
		c-0.038,0.362-0.056,0.96-0.056,1.797v0.456h6.729v-0.684C373.693,55.278,372.571,53.7,370.329,53.7z"/>
	<path fill="none" d="M145.196,65.108c0.874-0.266,1.711-0.761,2.509-1.483c2.054-1.825,3.081-5,3.081-9.525
		c0-2.167-0.238-3.983-0.713-5.447c-0.476-1.463-1.264-2.747-2.367-3.85c-0.684-0.722-1.483-1.208-2.395-1.455
		c-0.913-0.246-2.168-0.351-3.765-0.314V65.45C143.104,65.489,144.321,65.375,145.196,65.108z"/>
	<polygon fill="none" points="153.281,10.294 153.281,16.544 155.849,14.666 	"/>
	<path fill="none" d="M296.007,55.298c-0.609,1.064-0.913,2.623-0.913,4.676c0,2.282,0.314,4.031,0.942,5.248
		c0.627,1.218,1.53,1.826,2.708,1.826c0.646,0,1.265-0.237,1.854-0.712c0.589-0.476,1.036-1.093,1.341-1.855
		c0.265-0.76,0.399-1.996,0.399-3.708c0-2.129-0.153-3.611-0.457-4.449c-0.305-0.799-0.742-1.435-1.312-1.911
		c-0.57-0.475-1.218-0.713-1.94-0.713C297.489,53.7,296.614,54.233,296.007,55.298z"/>
	<path fill="none" d="M124.362,13.26c0.081,1.486,0.912,3.258,1.549,4.003l1.228-0.61V9.026l-2.293,1.026
		C124.846,10.052,124.259,11.359,124.362,13.26z"/>
	<path fill="none" d="M322.755,10.694c0,0-1.178,1.595-2.753,1.105c-1.327-0.406-2.017-1.736-2.017-1.736v3.609l1.208,1.055
		C319.193,14.727,321.806,12.631,322.755,10.694z"/>
	<path fill="#63BB46" d="M87.457,4.148c5.245,0.966,6.213,2.333,6.213,9.031v13.872c0,2.255,0.325,5.004,0.727,6.775
		c0.484,1.776,1.21,2.746,2.904,3.793c-1.694,1.206-2.42,2.097-2.825,3.711c-0.481,1.854-0.806,4.353-0.806,6.775v14.117
		c0,6.532-0.887,7.741-6.213,8.792v4.275c9.683-0.244,12.261-0.808,14.846-3.548c2.336-2.342,3.066-5.251,3.066-11.371V47.218
		c0-5.646,0.641-6.612,5.724-8.393v-2.497c-2.501-0.726-3.627-1.374-4.599-2.573c-0.972-1.384-1.125-2.264-1.125-5.896V14.795
		c0-4.116-0.246-5.892-1.053-8.074c-0.97-2.655-3.148-4.833-5.728-5.646c-1.917-0.619-3.563-0.9-7.215-1.074h-3.916V4.148z"/>
	<path d="M127.03,6.986c0.329-0.217,0.596-0.417,0.827-0.574c-0.502,0.04-0.644,0.128-0.999,0.26
		c-2.913,1.098-5.433,4.019-5.502,7.406c-0.037,1.729,0.355,3.334,1.221,4.718c1.24,1.956,3.059,3.074,5.057,3.489
		c1.705,0.354,3.298,0.244,5.422-0.931c1.201-0.664,2.156-1.827,2.677-3.039c0.699-1.593,0.757-2.843,0.657-3.462
		c-0.103,0.241-0.15,0.367-0.15,0.367c-1.111,2.295-2.904,3.325-2.904,3.325v-5.006l1.791-1.447l-1.791-1.447V6.972
		c0,0,1.057,0.047,1.935-0.547c0.868-0.582,1.113-1.025,1.338-1.875c0.247-0.95,0.084-2.002-0.627-2.687
		c-0.667-0.588-1.558-0.874-2.122-0.918c-0.442-0.041-0.575-0.041-1.17,0.081c0.691,0.133,1.505,0.115,1.928,0.843
		c0.365,0.63-0.08,1.102-0.333,1.28c-0.543,0.314-1.142,0.255-1.912,0.068c-1.996-0.477-4.234-1.421-5.895-1.66
		c-1.143-0.16-2.125,0.198-2.992,0.754c-0.996,0.735-1.494,1.828-1.422,3.032c0.059,0.922,0.547,1.675,1.181,2.062
		c0.357,0.211,0.551,0.223,0.551,0.223c-0.167-0.181-0.39-0.368-0.485-0.685c-0.169-0.567,0.078-1.198,0.474-1.558
		c0.395-0.353,1.051-0.376,1.582-0.299c0.529,0.08,3.907,1.028,4.923,1.279c0.689,0.168,1.867,0.493,2.835,0.606v3.674l-1.777,1.445
		l1.777,1.447v5.116c0,0-1.347,1-3.638,0.748c-1.352-0.154-2.93-1.237-3.444-1.966l4.553-2.275V7.258l-5.651,2.515
		C125.287,8.833,126.093,7.608,127.03,6.986z M127.139,9.026v7.627l-1.228,0.61c-0.637-0.746-1.468-2.518-1.549-4.003
		c-0.103-1.901,0.484-3.208,0.484-3.208L127.139,9.026z"/>
	<path d="M158.334,13.099l-2.559-4.448c0,0-1.727,1.057-2.895,1.746c-1.163,0.688-2.725,1.455-2.725,1.455v7.282l-1.042,0.829
		l0.139,0.168l1.016-0.822l3.184,2.877l5.535-4.383l-0.133-0.16l-3.057,2.401l-2.516-2.355v-0.877L158.334,13.099z M153.281,10.294
		l2.568,4.372l-2.568,1.878V10.294z"/>
	<path d="M136.76,20.334l0.116,0.174l0.819-0.605l2.267,2.11l3.566-2.842l-0.125-0.166l-0.839,0.667l-0.89-0.88l0.009-7.262
		l1.039-0.886l1.55,1.931c0,0-0.003,4.698,0.005,6.262c-0.017,1.66-0.02,3.735-0.892,4.74c-0.877,1.01-1.228,1.082-2.115,1.348
		c0.725,0.178,2.007,0.276,3.549-0.497c1.712-0.855,2.575-2.673,2.562-4.54l0.074-2.639V11.48l1.094-0.836l-0.128-0.164
		l-1.077,0.816l-2.483-2.771l-3.188,2.739v-9.3l-3.979,3.077c0.173,0.116,0.738,0.217,0.758,1.014v13.03L136.76,20.334z"/>
	<path d="M162.537,19.608c-0.6,1.134-0.563,2.409,0.075,3.31c0.52,0.732,1.592,1.669,3.438,1.352
		c-1.426-0.169-2.028-1.026-2.01-1.71c0.012-0.442,0.408-1.295,1.274-1.415c0.864-0.111,1.751,0.291,2.5,1.168l3.293-3.642
		l-0.157-0.143l-0.884,0.992c-0.9-1.021-2.176-1.664-3.443-1.852V6.572l8.556,15.591c0,0,0.081,0.175,0.435,0.175
		c0.301,0.009,0.229-0.246,0.229-0.246l-0.001-15.686c0.697-0.026,1.755-0.413,2.271-0.938c1.648-1.693,0.976-3.54,0.793-3.721
		c-0.1,0.812-0.716,1.621-1.754,1.623c-1.361,0.006-2.192-0.996-2.192-0.996l-3.289,3.748l0.157,0.145l0.94-1.074
		c1.155,1.061,1.996,1.159,2.866,1.214v9.105l-6.35-11.535c-0.575-0.95-1.445-1.79-2.819-1.799
		c-1.579-0.006-2.707,1.381-2.843,2.572c-0.152,1.358,0.021,1.667,0.021,1.667s0.229-1.508,1.161-1.488
		c0.835,0.009,1.272,0.779,1.61,1.357v3.34c-0.867,0.065-3.109,0.158-3.251,2.497c-0.008,0.871,0.534,1.783,1.004,2.09
		c0.607,0.401,1.08,0.392,1.08,0.392s-0.726-0.391-0.509-1.156c0.195-0.683,1.625-0.793,1.676-0.508v4.711
		C165.724,17.644,163.527,17.723,162.537,19.608z"/>
	<path d="M186.683,13.099l-2.557-4.448c0,0-1.733,1.057-2.898,1.746c-1.168,0.688-2.727,1.455-2.727,1.455v7.282l-1.04,0.829
		l0.136,0.168l1.019-0.822l3.181,2.877l5.539-4.383l-0.131-0.16l-3.061,2.401l-2.512-2.355v-0.877L186.683,13.099z M181.632,10.294
		l2.565,4.372l-2.565,1.878V10.294z"/>
	<path d="M189.942,6.04c0,0-0.688,0-1.317,0.323c-0.594,0.297-1.765,1.213-1.823,2.423c-0.132,2.758,2.304,2.112,2.244,4.707v6.306
		l-1.208,0.885l0.119,0.167l1.192-0.865l2.712,2.256l2.948-2.339l2.977,2.354l5.812-3.589V11.94l2.272-1.996l-0.135-0.156
		l-1.012,0.89l-2.526-2.085l-2.709,2.472l1.054,0.985v8.258l-0.412,0.256l-2.306-1.902v-6.861l0.941-1.015L196.3,8.602l-2.699,2.382
		l1.05,1.038v7.745l-0.513,0.401l-1.946-1.556v-7.156c-0.047-2.048-2.679-2.184-3.094-3.724
		C188.828,6.733,189.942,6.04,189.942,6.04z"/>
	<path d="M313.344,13.099l-2.56-4.448c0,0-1.733,1.057-2.895,1.746c-1.163,0.688-2.725,1.455-2.725,1.455v7.282l-1.045,0.829
		l0.139,0.168l1.019-0.822l3.182,2.877l5.537-4.383l-0.131-0.16l-3.06,2.401l-2.516-2.355v-0.877L313.344,13.099z M308.29,10.294
		l2.57,4.372l-2.57,1.878V10.294z"/>
	<polygon points="302.83,10.49 302.701,10.325 301.493,11.242 299.199,8.674 295.929,11.265 293.634,8.771 290.474,11.239 
		288.157,8.779 284.8,11.701 284.936,11.855 285.978,10.963 287.521,12.713 287.521,18.727 286.778,19.412 289.185,22.14 
		291.657,19.701 290.642,18.646 290.642,11.369 291.255,10.877 292.971,12.876 292.971,18.874 292.327,19.516 294.599,22.073 
		297.021,19.641 296.132,18.706 296.108,11.397 296.764,10.871 298.547,12.833 298.547,18.798 297.961,19.386 300.471,22.118 
		303.836,19.009 303.692,18.854 302.874,19.608 301.62,18.217 301.62,11.407 	"/>
	<polygon points="278.084,11.667 278.965,10.908 280.347,12.541 280.347,19.416 279.372,20.267 279.509,20.423 280.527,19.552 
		282.751,22.118 285.961,19.249 285.824,19.092 284.88,19.925 283.55,18.396 283.55,11.67 284.673,10.699 284.536,10.542 
		283.47,11.456 281.129,8.732 277.947,11.514 	"/>
	<polygon points="281.292,3.605 278.876,5.819 280.827,7.99 283.258,5.784 	"/>
	<path d="M268.792,6.986c0.337-0.217,0.597-0.417,0.832-0.574c-0.502,0.04-0.648,0.128-0.998,0.26
		c-2.913,1.098-5.437,4.019-5.507,7.406c-0.034,1.729,0.353,3.334,1.224,4.718c1.238,1.956,3.055,3.074,5.054,3.489
		c1.706,0.354,3.3,0.244,5.424-0.931c1.199-0.664,2.154-1.827,2.679-3.039c0.698-1.593,0.75-2.843,0.655-3.462
		c-0.1,0.241-0.152,0.367-0.152,0.367c-1.107,2.295-2.902,3.325-2.902,3.325v-5.006l1.792-1.447l-1.792-1.447V6.972
		c0,0,1.057,0.047,1.934-0.547c0.865-0.582,1.116-1.025,1.335-1.875c0.252-0.95,0.09-2.002-0.623-2.687
		c-0.67-0.588-1.556-0.874-2.127-0.918c-0.441-0.041-0.574-0.041-1.166,0.081c0.69,0.133,1.502,0.115,1.927,0.843
		c0.362,0.63-0.08,1.102-0.336,1.28c-0.538,0.314-1.136,0.255-1.911,0.068c-1.995-0.477-4.232-1.421-5.894-1.66
		c-1.142-0.16-2.124,0.198-2.992,0.754c-0.998,0.735-1.499,1.828-1.421,3.032c0.053,0.922,0.543,1.675,1.185,2.062
		c0.349,0.211,0.541,0.223,0.541,0.223c-0.16-0.181-0.383-0.368-0.478-0.685c-0.169-0.567,0.074-1.198,0.473-1.558
		c0.396-0.353,1.049-0.376,1.583-0.299c0.53,0.08,3.905,1.028,4.921,1.279c0.691,0.168,1.87,0.493,2.84,0.606v3.674l-1.78,1.445
		l1.78,1.447v5.116c0,0-1.35,1-3.646,0.748c-1.35-0.154-2.927-1.237-3.445-1.966l4.558-2.275V7.258l-5.65,2.515
		C267.053,8.833,267.858,7.608,268.792,6.986z M268.905,9.026v7.627l-1.23,0.61c-0.637-0.746-1.468-2.518-1.548-4.003
		c-0.102-1.901,0.483-3.208,0.483-3.208L268.905,9.026z"/>
	<path d="M314.602,21.194c0.386,1.653,1.972,2.044,2.342,1.936c-1.095-0.404-1.457-1.312-0.672-1.851
		c1.154-0.798,2.484,0.871,2.484,0.871c2.386-1.745,4.9-3.056,4.9-3.056v-4.517l-2.169-1.748c2.661-3.071,1.973-4.445,1.712-4.908
		c0.044,0.284,0.117,1.48-1.401,1.614c-0.964,0.079-1.821-0.996-1.821-0.996s-1.181,0.773-2.324,1.496
		c-1.145,0.714-2.612,1.447-2.612,1.447v3.48l1.992,1.819C315.351,18.499,314.228,19.592,314.602,21.194z M317.985,10.063
		c0,0,0.689,1.33,2.017,1.736c1.575,0.49,2.753-1.105,2.753-1.105c-0.949,1.937-3.562,4.033-3.562,4.033l-1.208-1.055V10.063z
		 M319.407,14.811l1.314,1.143v4.589c0,0-0.654-1.997-2.543-2.381c-1.967-0.41-3.11,1.48-3.11,1.48
		C315.391,18.369,317.962,16.266,319.407,14.811z"/>
	<path d="M235.551,11.656l-3.523-3.062c0,0-1.319,0.776-2.498,1.441c-1.322,0.743-2.885,1.447-2.885,1.447h-0.009v7.727l-0.924,0.8
		l0.145,0.164l0.874-0.77l3.311,2.795c0,0,1.354-0.831,2.612-1.549c1.26-0.705,3.063-1.669,3.063-1.669v-7.182l0.952-0.885
		l-0.14-0.157L235.551,11.656z M232.579,20.527l-2.8-2.542v-7.807l2.8,2.587V20.527z"/>
	<path d="M244.737,9.168c-0.274-0.136-0.563-0.389-0.563-0.389l-2.109,2.153l-1.882-2.269l-3.372,3.038l0.138,0.15l0.955-0.84
		l1.114,1.476l-0.011,6.671l-1.452,1.313l0.161,0.164l0.95-0.903l2.649,2.418l3.483-2.91l-0.127-0.16l-1.111,0.919l-1.333-1.173
		V11.09c1.255,1.531,2.449,1.148,2.859,0.946c1.003-0.485,1.806-1.658,1.736-3.334c-0.35,0.327-0.391,0.374-0.709,0.549
		C245.529,9.567,244.887,9.241,244.737,9.168z"/>
	<path d="M255.967,11.971c1.583-0.26,2.354-1.984,2.558-3.497c0,0-1.066,1.175-2.277,0.855c-0.896-0.232-1.409-0.838-1.409-0.838
		l-3.89,5.666l4.986,7.961l3.712-3.24l-0.146-0.156l-1.08,0.946l-5.4-8.161l0.25-0.389
		C253.271,11.117,254.568,12.204,255.967,11.971z"/>
	<path d="M246.575,4.663c0.656-0.051,1.157,0.706,1.157,1.928v12.636l-1.62,1.411l0.152,0.16l0.92-0.818l2.322,2.181l3.42-2.989
		l-0.139-0.159l-0.847,0.736l-1.121-1.182V1.688L246.575,4.663z"/>
	<path d="M209.614,12.017c-0.858,1.186-0.198,2.466,0.119,2.83c0.653,0.749,1.424,0.642,1.424,0.642s-0.933-0.391-0.518-1.225
		c0.274-0.549,1.528-0.631,1.599-0.333v7.526c0,0-2.354,0.803-2.409,2.84c-0.078,1.409,0.737,2.85,1.884,3.331
		c2.238,0.934,5.56-0.415,8.34-0.728c1.273-0.142,1.667,0.017,1.839,0.601c0.338,1.142-0.849,1.826-0.849,1.826
		s2.43-0.333,2.958-2.262c0.313-1.019,0.321-2.514-1.705-3.46c-2.23-1.039-8.717,1.572-10.171,0.594
		c-0.729-0.479-0.744-1.228-0.53-1.71c0.623-1.47,3.134-1.167,4.737-0.929c2.156,0.312,4.579,1.687,6.586,0.494
		c0.899-0.551,1.05-1.521,1.111-2.479V4.971l1.218-1.048l-0.132-0.161l-1.167,1.012l-2.495-2.22l-3.415,2.746V2.745h-0.205v18.939
		c0,0-0.476-0.133-0.969-0.244c-0.434-0.089-1.06-0.167-1.06-0.167V5.569c0-1.143-0.477-2.431-2.141-2.833
		c-1.608-0.385-2.637,0.445-3.188,1.043c-0.986,1.067-0.788,2.241-0.788,2.241s0.259-1.522,1.336-1.5
		c0.751,0.013,1.214,0.656,1.214,1.79v4.44C211.166,10.871,210.322,11.042,209.614,12.017z M218.038,5.569l0.793-0.627l1.64,1.442
		v4.628c0,0-0.464,0.594-1.206,0.594c-0.736,0-1.228-0.617-1.228-0.617V5.569z M218.038,11.335c0,0,0.49,0.533,1.224,0.533
		c0.743,0,1.209-0.533,1.209-0.533v2.282c0,0-0.466-0.511-1.209-0.511c-0.734,0-1.224,0.538-1.224,0.538V11.335z M218.038,13.988
		c0,0,0.492-0.611,1.228-0.611c0.741,0,1.206,0.593,1.206,0.593v5.851c0,0,0.085,0.926-0.718,1.588
		c-0.721,0.592-1.716,0.326-1.716,0.326V13.988z"/>
	<path d="M122.951,43.033h3.822V65.45h-3.822v8.784h22.017c0.229,0,0.599-0.018,1.112-0.057c0.514-0.037,1.207-0.094,2.083-0.171
		c2.661-0.228,5.085-0.855,7.272-1.882s4.05-2.385,5.59-4.078c1.54-1.692,2.737-3.679,3.593-5.96
		c0.855-2.282,1.283-4.792,1.283-7.53c0-4.486-1.036-8.346-3.109-11.578c-2.073-3.232-5.029-5.609-8.869-7.13
		c-1.408-0.57-2.853-0.979-4.335-1.227c-1.483-0.247-3.176-0.371-5.076-0.371h-21.561V43.033z M141.545,43.033
		c1.597-0.037,2.852,0.068,3.765,0.314c0.912,0.248,1.711,0.733,2.395,1.455c1.103,1.103,1.891,2.387,2.367,3.85
		c0.476,1.463,0.713,3.279,0.713,5.447c0,4.526-1.027,7.7-3.081,9.525c-0.798,0.723-1.635,1.218-2.509,1.483
		c-0.875,0.267-2.092,0.381-3.651,0.342V43.033z"/>
	<path d="M199.097,61.4c0.076-1.178-0.009-2.348-0.256-3.508c-0.248-1.16-0.619-2.262-1.112-3.309
		c-0.495-1.045-1.094-2.005-1.797-2.88c-0.704-0.874-1.475-1.616-2.311-2.224c-1.445-1.103-2.966-1.911-4.562-2.424
		c-1.598-0.514-3.365-0.77-5.305-0.77c-2.282,0-4.383,0.341-6.302,1.026c-1.921,0.685-3.576,1.654-4.963,2.909
		c-1.389,1.255-2.463,2.748-3.223,4.478c-0.761,1.73-1.14,3.642-1.14,5.732c0,1.978,0.417,3.907,1.254,5.79
		c0.836,1.882,1.997,3.508,3.479,4.876c2.661,2.472,6.616,3.708,11.864,3.708c2.282,0,4.392-0.352,6.331-1.055
		s3.537-1.683,4.792-2.938c0.646-0.646,1.198-1.349,1.654-2.11c0.456-0.762,0.95-1.806,1.482-3.138h-8.955
		c-0.647,0.875-1.303,1.493-1.968,1.854c-0.666,0.362-1.437,0.542-2.31,0.542c-2.701,0-4.278-1.541-4.734-4.621h17.967L199.097,61.4
		z M187.747,59.118h-6.73v-0.456c0-0.836,0.019-1.435,0.057-1.797c0.037-0.361,0.114-0.694,0.228-0.998
		c0.532-1.445,1.559-2.167,3.081-2.167c2.243,0,3.365,1.578,3.365,4.734V59.118z"/>
	<polygon points="199.439,54.27 201.322,54.27 209.364,74.234 219.061,74.234 228.302,54.27 229.728,54.27 229.728,46.855 
		219.061,46.855 219.061,54.27 221.17,54.27 217.578,62.541 214.383,54.27 216.267,54.27 216.267,46.855 199.439,46.855 	"/>
	<path d="M231.152,54.698c-0.761,1.73-1.14,3.642-1.14,5.732c0,1.978,0.417,3.907,1.255,5.79c0.836,1.882,1.996,3.508,3.479,4.876
		c2.661,2.472,6.616,3.708,11.864,3.708c2.282,0,4.392-0.352,6.332-1.055c1.938-0.703,3.536-1.683,4.791-2.938
		c0.646-0.646,1.198-1.349,1.654-2.11c0.457-0.762,0.95-1.806,1.483-3.138h-8.955c-0.647,0.875-1.303,1.493-1.968,1.854
		c-0.666,0.362-1.436,0.542-2.31,0.542c-2.701,0-4.278-1.541-4.735-4.621h17.968l0.114-1.939c0.075-1.178-0.01-2.348-0.257-3.508
		c-0.249-1.16-0.619-2.262-1.112-3.309c-0.495-1.045-1.094-2.005-1.797-2.88c-0.704-0.874-1.474-1.616-2.31-2.224
		c-1.446-1.103-2.967-1.911-4.564-2.424c-1.597-0.514-3.364-0.77-5.304-0.77c-2.281,0-4.383,0.341-6.303,1.026
		c-1.921,0.685-3.575,1.654-4.963,2.909C232.987,51.476,231.913,52.968,231.152,54.698z M242.902,58.663
		c0-0.836,0.02-1.435,0.058-1.797c0.037-0.361,0.113-0.694,0.228-0.998c0.533-1.445,1.56-2.167,3.081-2.167
		c2.243,0,3.365,1.578,3.365,4.734v0.684h-6.731V58.663z"/>
	<polygon points="262.867,66.819 262.867,74.234 280.378,74.234 280.378,66.819 278.038,66.819 278.038,34.249 262.867,34.249 
		262.867,41.664 265.148,41.664 265.148,66.819 	"/>
	<path d="M292.185,47.369c-2.015,0.722-3.764,1.721-5.248,2.995c-1.483,1.274-2.643,2.787-3.479,4.535
		c-0.837,1.749-1.254,3.65-1.254,5.704s0.417,3.945,1.254,5.675c0.836,1.731,1.996,3.223,3.479,4.478
		c1.484,1.254,3.232,2.244,5.248,2.966c2.017,0.722,4.221,1.083,6.617,1.083s4.601-0.342,6.617-1.026
		c2.014-0.684,3.755-1.654,5.22-2.909c1.462-1.255,2.594-2.747,3.394-4.478c0.798-1.73,1.196-3.641,1.196-5.732
		c0-2.13-0.398-4.08-1.196-5.847c-0.8-1.768-1.921-3.28-3.365-4.535c-1.447-1.255-3.187-2.233-5.22-2.938
		c-2.034-0.704-4.27-1.055-6.703-1.055C296.387,46.285,294.201,46.646,292.185,47.369z M301.882,56.324
		c0.304,0.837,0.457,2.32,0.457,4.449c0,1.712-0.135,2.948-0.399,3.708c-0.305,0.762-0.752,1.379-1.341,1.855
		c-0.59,0.475-1.208,0.712-1.854,0.712c-1.178,0-2.081-0.608-2.708-1.826c-0.628-1.216-0.942-2.966-0.942-5.248
		c0-2.054,0.304-3.612,0.913-4.676c0.607-1.065,1.482-1.598,2.623-1.598c0.723,0,1.37,0.238,1.94,0.713
		C301.14,54.889,301.577,55.525,301.882,56.324z"/>
	<path d="M332.055,77.086v-5.191c1.749,1.065,3.26,1.817,4.534,2.254s2.52,0.656,3.736,0.656c1.484,0,2.985-0.352,4.506-1.055
		s2.853-1.683,3.994-2.938c1.178-1.255,2.081-2.766,2.709-4.535c0.628-1.768,0.942-3.679,0.942-5.732
		c0-2.204-0.411-4.335-1.228-6.389c-0.817-2.053-1.931-3.745-3.337-5.075c-1.979-1.863-4.374-2.795-7.188-2.795
		c-1.446,0-2.834,0.238-4.163,0.712c-1.332,0.476-2.833,1.283-4.507,2.424v-2.566h-15.173v7.415h2.282v22.816h-2.282v7.415h18.254
		v-7.415H332.055z M335.762,53.7c0.761,0,1.436,0.238,2.026,0.713c0.589,0.476,1.036,1.112,1.341,1.911
		c0.149,0.419,0.264,1.018,0.342,1.796c0.075,0.78,0.113,1.665,0.113,2.652c0,1.712-0.135,2.948-0.398,3.708
		c-0.305,0.762-0.763,1.379-1.369,1.855c-0.609,0.475-1.294,0.712-2.055,0.712c-2.472,0-3.707-2.319-3.707-6.959
		C332.055,55.831,333.29,53.7,335.762,53.7z"/>
	<path d="M385.045,61.4c0.073-1.178-0.011-2.348-0.257-3.508c-0.247-1.16-0.619-2.262-1.112-3.309
		c-0.495-1.045-1.095-2.005-1.797-2.88c-0.705-0.874-1.475-1.616-2.311-2.224c-1.446-1.103-2.967-1.911-4.562-2.424
		c-1.598-0.514-3.365-0.77-5.306-0.77c-2.28,0-4.382,0.341-6.303,1.026c-1.921,0.685-3.574,1.654-4.962,2.909
		c-1.389,1.255-2.463,2.748-3.224,4.478c-0.761,1.73-1.14,3.642-1.14,5.732c0,1.978,0.418,3.907,1.255,5.79
		c0.837,1.882,1.996,3.508,3.479,4.876c2.663,2.472,6.617,3.708,11.865,3.708c2.281,0,4.392-0.352,6.332-1.055
		c1.938-0.703,3.535-1.683,4.79-2.938c0.646-0.646,1.198-1.349,1.654-2.11c0.456-0.762,0.95-1.806,1.482-3.138h-8.954
		c-0.647,0.875-1.304,1.493-1.969,1.854c-0.666,0.362-1.436,0.542-2.309,0.542c-2.702,0-4.278-1.541-4.734-4.621h17.966
		L385.045,61.4z M373.693,59.118h-6.729v-0.456c0-0.836,0.018-1.435,0.056-1.797c0.037-0.361,0.114-0.694,0.228-0.998
		c0.534-1.445,1.56-2.167,3.082-2.167c2.242,0,3.364,1.578,3.364,4.734V59.118z"/>
	<path d="M387.098,66.819v7.415h18.251v-7.415h-3.079v-2.738c0-1.559,0.047-2.7,0.142-3.422c0.096-0.722,0.276-1.332,0.542-1.826
		c0.8-1.331,2.073-2.205,3.821-2.624c0.8-0.189,1.617-0.313,2.454-0.371c0.836-0.057,2.054-0.085,3.65-0.085v-9.468l-0.97-0.058
		c-1.824-0.114-3.489,0.238-4.99,1.055c-1.503,0.818-3.053,2.082-4.649,3.793v-4.22h-15.172v7.415h2.281v12.549H387.098z"/>
	<path d="M434.383,58.263l-5.817-2.282c-1.408-0.57-2.11-1.387-2.11-2.452c0-0.607,0.246-1.113,0.741-1.511
		c0.492-0.4,1.121-0.599,1.882-0.599c1.026,0,1.816,0.362,2.368,1.083c0.549,0.723,0.959,1.768,1.225,3.138h5.704v-8.784h-6.218
		v1.141c-1.33-0.607-2.537-1.045-3.621-1.312c-1.085-0.266-2.233-0.399-3.451-0.399c-1.445,0-2.804,0.238-4.078,0.712
		c-1.273,0.476-2.385,1.113-3.337,1.911c-0.95,0.798-1.691,1.73-2.224,2.795c-0.533,1.065-0.799,2.188-0.799,3.365
		c0,1.446,0.39,2.787,1.169,4.021c0.779,1.236,1.929,2.178,3.452,2.823l5.932,2.51c1.217,0.533,1.825,1.274,1.825,2.224
		c0,0.686-0.258,1.208-0.771,1.569c-0.514,0.361-1.207,0.542-2.082,0.542c-1.181,0-2.055-0.304-2.624-0.912
		c-0.57-0.608-1.046-1.521-1.427-2.738h-6.101v9.126h6.158v-1.369c1.027,0.381,1.93,0.694,2.71,0.941
		c0.778,0.248,1.511,0.447,2.195,0.599c0.685,0.152,1.342,0.256,1.968,0.314c0.628,0.057,1.304,0.085,2.025,0.085
		c1.597,0,3.07-0.237,4.421-0.712c1.349-0.475,2.5-1.132,3.45-1.968c0.951-0.835,1.692-1.815,2.226-2.938
		c0.531-1.121,0.798-2.347,0.798-3.678C439.973,62.123,438.108,59.708,434.383,58.263z"/>
</g>
</svg>
