<?xml version="1.0" encoding="UTF-8" standalone="no"?>
<svg width="555px" height="151px" viewBox="0 0 555 151" version="1.1" xmlns="http://www.w3.org/2000/svg" xmlns:xlink="http://www.w3.org/1999/xlink">
    <!-- Generator: Sketch 3.8.3 (29802) - http://www.bohemiancoding.com/sketch -->
    <title>simple-small-applications</title>
    <desc>Created with Sketch.</desc>
    <defs></defs>
    <g id="Page-1" stroke="none" stroke-width="1" fill="none" fill-rule="evenodd">
        <g id="simple-small-applications">
            <path d="M229.607007,73.364375 C242.006548,76.391875 248.468096,80.845625 248.468096,90.671875 C248.468096,101.766875 239.833793,108.320625 227.521511,108.320625 C218.546896,108.320625 210.087111,105.214375 203.058378,98.905625 L209.249422,91.51625 C214.864556,96.39 220.484052,99.16375 227.7702,99.16375 C234.135763,99.16375 238.154052,96.22375 238.154052,91.686875 C238.154052,87.395 235.811141,85.133125 224.921185,82.613125 C212.438748,79.585625 205.401289,75.88875 205.401289,64.964375 C205.401289,54.718125 213.778178,47.823125 225.422926,47.823125 C233.96997,47.823125 240.754378,50.430625 246.701096,55.216875 L241.173222,63.030625 C235.8984,59.08875 230.623578,56.984375 225.25277,56.984375 C219.223156,56.984375 215.702244,60.090625 215.702244,64.04125 C215.702244,68.66125 218.385467,70.678125 229.607007,73.364375" id="Fill-1" fill="#2D2E2C"></path>
            <polygon id="Fill-2" fill="#2D2E2C" points="271.242763 107.480625 281.552444 107.480625 281.552444 48.663125 271.242763 48.663125"></polygon>
            <polyline id="Fill-3" fill="#2D2E2C" points="332.795444 88.57625 317.402911 65.471875 317.402911 107.480625 307.272111 107.480625 307.272111 48.663125 318.249326 48.663125 336.093844 76.475 353.938363 48.663125 364.911215 48.663125 364.911215 107.480625 354.610259 107.480625 354.610259 65.30125 339.065022 88.57625 332.795444 88.57625"></polyline>
            <path d="M412.323533,58.078125 L400.342837,58.078125 L400.342837,79.253125 L412.323533,79.253125 C420.120148,79.253125 424.980489,74.965625 424.980489,68.66125 C424.980489,61.6875 420.037252,58.078125 412.323533,58.078125 L412.323533,58.078125 Z M411.991948,88.57625 L400.342837,88.57625 L400.342837,107.480625 L390.041881,107.480625 L390.041881,48.663125 L413.169948,48.663125 C426.821659,48.663125 435.4516,56.39375 435.4516,68.411875 C435.4516,81.69 424.89323,88.57625 411.991948,88.57625 L411.991948,88.57625 Z" id="Fill-4" fill="#2D2E2C"></path>
            <polyline id="Fill-5" fill="#2D2E2C" points="453.544807 48.663125 463.854489 48.663125 463.854489 98.07 494.683185 98.07 494.683185 107.480625 453.544807 107.480625 453.544807 48.663125"></polyline>
            <polyline id="Fill-6" fill="#2D2E2C" points="555.001148 57.9075 521.388881 57.9075 521.388881 73.198125 553.91477 73.198125 553.91477 82.4425 521.388881 82.4425 521.388881 98.23625 555.001148 98.23625 555.001148 107.480625 511.087926 107.480625 511.087926 48.663125 555.001148 48.663125 555.001148 57.9075"></polyline>
            <path d="M133.224793,75.2675 L136.147978,73.7975 C132.1166,65.716875 126.641081,59.4825 121.623674,54.578125 C116.645533,49.7175 112.186585,45.976875 108.303548,42.07875 C104.416148,38.185 100.698904,33.705 95.8472889,28.70875 C90.9651333,23.6775 84.7479111,18.165 76.6938815,14.118125 C69.8658444,10.688125 61.8074519,8.47875 53.421837,8.474375 C51.8817111,8.474375 50.3328593,8.54875 48.7796444,8.70625 C38.7622815,9.716875 28.9412519,14.1575 21.6332889,21.459375 C14.3515037,28.77 9.90564444,38.61375 8.88034815,48.6675 C8.71891852,50.23375 8.64474815,51.795625 8.64474815,53.34875 C8.64474815,61.74875 10.8524074,69.820625 14.2511556,76.6675 C18.2781704,84.7525 23.7624148,90.986875 28.7754593,95.886875 C33.7623259,100.75625 38.2125481,104.496875 42.1086741,108.399375 L42.1043111,108.395 C45.9873481,112.28875 49.7133185,116.76875 54.5518444,121.760625 C59.434,126.79625 65.6512222,132.304375 73.7008889,136.35125 C80.5463778,139.776875 88.6134963,141.995 96.9991111,141.999375 C98.5305111,141.999375 100.075,141.925 101.619489,141.7675 C111.649941,140.748125 121.462244,136.3075 128.770207,129.01 C136.065081,121.699375 140.502215,111.846875 141.523148,101.801875 L141.523148,101.80625 C141.684578,100.23125 141.758748,98.660625 141.763111,97.09875 C141.758748,88.7075 139.546726,80.64 136.152341,73.80625 L136.147978,73.7975 L133.224793,75.2675 L130.292881,76.72875 C133.281511,82.735625 135.218667,89.88 135.218667,97.09875 C135.218667,98.44625 135.148859,99.789375 135.013607,101.136875 L135.013607,101.14125 C134.158467,109.703125 130.297244,118.225625 124.145467,124.36375 C118.006778,130.52375 109.516452,134.3825 100.965044,135.24 C99.6430667,135.37125 98.3210889,135.436875 96.9991111,135.436875 C89.7784074,135.44125 82.6406,133.49875 76.628437,130.484375 C69.5124444,126.905625 63.8493185,121.94 59.2420296,117.184375 C54.6042,112.406875 50.9000444,107.94875 46.7377778,103.7575 L46.7334148,103.753125 C42.5493333,99.575 38.1209259,95.860625 33.3434815,91.188125 C28.6096667,86.559375 23.6664296,80.889375 20.1062519,73.73625 C17.1176222,67.729375 15.1848296,60.580625 15.1891926,53.34875 C15.1891926,52.014375 15.254637,50.67125 15.3898889,49.3325 C16.2537556,40.76625 20.1237037,32.239375 26.2580296,26.10125 C32.3967185,19.945625 40.8957704,16.086875 49.4340889,15.23375 C50.7647926,15.1025 52.0954963,15.036875 53.421837,15.036875 C60.6425407,15.0325 67.7716222,16.970625 73.7619704,19.985 C80.8910519,23.56375 86.5498148,28.529375 91.1571037,33.289375 C95.8036593,38.0625 99.4990889,42.520625 103.674444,46.71625 C107.8498,50.903125 112.291296,54.6175 117.055652,59.28125 C121.79383,63.905625 126.728341,69.58 130.297244,76.7375 L130.292881,76.72875 L133.224793,75.2675" id="Fill-7" fill="#D87059"></path>
            <path d="M120.663822,75.263125 L123.778978,76.25625 C124.41597,74.256875 125.074778,72.148125 125.703044,69.895 L125.703044,69.90375 C127.365333,64.02375 128.835652,57.080625 128.835652,49.42 C128.835652,48.286875 128.805111,47.13625 128.735304,45.9725 L128.735304,45.968125 C128.373178,39.9525 127.016296,33.648125 124.381067,27.65 L124.376704,27.64125 C123.041637,24.644375 121.401163,21.748125 119.464007,19.03125 L119.455281,19.018125 C113.556556,10.828125 104.813178,4.519375 94.8568963,1.82875 C91.1483778,0.83125 87.3264222,0.34125 83.5088296,0.34125 C80.5071111,0.34125 77.5097556,0.643125 74.5778444,1.246875 C71.2663556,1.925 68.0334,2.98375 64.9793259,4.3575 C55.7996519,8.500625 48.482963,15.465625 43.4960963,23.025625 C40.1802444,28.0525 37.880963,33.263125 36.2186741,38.163125 L36.2143111,38.17625 C35.398437,40.613125 34.7309037,42.984375 34.1593556,45.255 L34.1593556,45.241875 C32.4403481,52.005625 31.4543185,57.754375 30.0145407,63.06125 L30.0101778,63.074375 C29.0634148,66.635625 27.8985037,70.223125 26.6245185,74.213125 L26.6027037,74.27 L26.6157926,74.230625 C25.9962519,76.208125 25.3330815,78.3125 24.6917259,80.565625 L24.6917259,80.57 C23.0338,86.45 21.5722074,93.38875 21.5722074,101.031875 C21.5722074,102.169375 21.6071111,103.324375 21.6769185,104.4925 C22.0303185,110.508125 23.3741111,116.825625 26.0311556,122.828125 C27.3574963,125.820625 29.0023333,128.72125 30.9482148,131.4425 L30.9525778,131.446875 C36.8469407,139.645625 45.5903185,145.945625 55.5335111,148.640625 C59.2594815,149.638125 63.090163,150.1325 66.9121185,150.1325 C69.9051111,150.1325 72.8937407,149.830625 75.812563,149.23125 C79.1415037,148.544375 82.3657333,147.49 85.4285333,146.111875 C94.6038444,141.964375 101.924896,135.008125 106.911763,127.44375 L106.911763,127.448125 C110.227615,122.42125 112.531259,117.201875 114.176096,112.301875 L114.171733,112.315 C115.009422,109.860625 115.681319,107.485 116.252867,105.214375 L116.248504,105.223125 C117.963148,98.468125 118.957904,92.715 120.388956,87.40375 C121.344444,83.838125 122.513719,80.24625 123.778978,76.25625 L120.663822,75.263125 L117.544304,74.265625 C116.28777,78.225 115.087956,81.904375 114.067022,85.6975 C112.535622,91.415625 111.553956,97.1425 109.909119,103.604375 L109.904756,103.613125 C109.368111,105.748125 108.744207,107.94875 107.980689,110.193125 L107.976326,110.20625 C106.466741,114.690625 104.38997,119.380625 101.453696,123.82125 L101.348985,123.983125 L101.449333,123.83 C97.0820074,130.48 90.5855556,136.59625 82.7453111,140.126875 C80.1188074,141.308125 77.343963,142.21375 74.4993111,142.8 C72.0167852,143.311875 69.4644519,143.57 66.9121185,143.57 C63.6486222,143.57 60.380763,143.15 57.2307037,142.30125 C48.8581778,140.0525 41.2753481,134.61 36.2623037,127.614375 L36.2666667,127.61875 C34.582563,125.265 33.160237,122.758125 32.0127778,120.16375 C29.7134963,114.979375 28.5180444,109.41875 28.2082741,104.1075 C28.1471926,103.070625 28.1166519,102.046875 28.1166519,101.031875 C28.1166519,94.233125 29.4255407,87.9025 30.9874815,82.355 L30.9874815,82.359375 C31.5895704,80.22875 32.2352889,78.19 32.8591926,76.195 L32.8548296,76.2125 C34.1200889,72.244375 35.3242667,68.560625 36.3364741,64.7675 L36.3321111,64.77625 C37.8766,59.05375 38.8495407,53.33125 40.5031037,46.869375 L40.5031037,46.85625 C41.0397481,44.716875 41.6680148,42.511875 42.4184444,40.263125 L42.4140815,40.27625 C43.9411185,35.77875 46.0178889,31.093125 48.9585259,26.648125 C53.3302148,19.99375 59.8179407,13.86875 67.6625481,10.346875 C70.2846889,9.165625 73.0682593,8.25125 75.8910963,7.67375 C78.3867111,7.161875 80.9477704,6.90375 83.5088296,6.90375 C86.7636,6.90375 90.0227333,7.32375 93.1597037,8.168125 C101.540956,10.416875 109.123785,15.86375 114.149919,22.859375 L114.141193,22.84625 C115.81657,25.195625 117.243259,27.71125 118.399444,30.31 L118.434348,30.393125 L118.395081,30.30125 C120.681274,35.494375 121.885452,41.055 122.203948,46.36625 L122.203948,46.361875 C122.260667,47.39 122.291207,48.409375 122.291207,49.42 C122.291207,56.231875 120.977956,62.5625 119.407289,68.11 L119.402926,68.123125 C118.8052,70.25375 118.17257,72.288125 117.544304,74.27 L120.663822,75.263125" id="Fill-8" fill="#3F7B85"></path>
            <path d="M49.4733556,128.98375 C48.3215333,128.98375 47.1522593,128.953125 45.9742593,128.87875 C42.7282148,128.68625 39.403637,128.200625 36.0921481,127.37375 C34.4865778,125.094375 33.1209704,122.66625 32.0127778,120.16375 C31.8426222,119.77875 31.6768296,119.385 31.5154,118.995625 C36.3582889,120.9775 41.4585926,122.03625 46.3669259,122.329375 C47.414037,122.395 48.4480593,122.42125 49.4733556,122.42125 L49.4820815,122.42125 C51.3363407,122.42125 53.1556963,122.325 54.9314222,122.15 C56.7856815,124.044375 58.8319111,126 61.0962889,127.91625 C57.4619407,128.56375 53.5701778,128.98375 49.4733556,128.98375 M69.3117481,126.02625 C67.0255556,124.38125 64.9269704,122.626875 62.9898148,120.84625 C64.739363,120.456875 66.4278296,120.02375 68.0552148,119.564375 C70.1843407,118.960625 72.2043926,118.32625 74.1720889,117.691875 L74.1808148,117.6875 C78.1380222,116.4275 81.820363,115.233125 85.5943259,114.218125 C91.3098074,112.69125 97.0034741,111.71125 103.451933,110.061875 C105.101133,109.650625 106.785237,109.1825 108.486793,108.64875 C108.325363,109.160625 108.155207,109.676875 107.980689,110.193125 L107.976326,110.20625 C107.30443,112.205625 106.519096,114.24875 105.594148,116.2875 C105.410904,116.335625 105.236385,116.379375 105.057504,116.423125 C98.3254519,118.138125 92.6012444,119.13125 87.2871556,120.5575 C83.7313407,121.51125 80.1406222,122.675 76.165963,123.94375 L76.1790519,123.939375 C74.1720889,124.586875 72.0735037,125.243125 69.8309407,125.881875 C69.6564222,125.93 69.4862667,125.978125 69.3117481,126.02625 M26.5547111,123.97 C23.9631111,122.731875 21.4631333,121.2575 19.1071333,119.546875 C10.9353037,113.631875 4.64391111,104.855625 1.97814074,94.8675 C0.987748148,91.161875 0.503459259,87.338125 0.499096296,83.523125 C0.503459259,80.5 0.804503704,77.485625 1.41531852,74.536875 L1.41095556,74.54125 C2.09594074,71.19875 3.1605037,67.974375 4.53047407,64.920625 C5.73465185,62.234375 7.18315556,59.71 8.81054074,57.35625 C9.09413333,60.7775 9.7224,64.12 10.6342593,67.31375 C10.5862667,67.414375 10.542637,67.515 10.4990074,67.61125 C9.31228148,70.249375 8.40478519,73.01875 7.82451111,75.858125 L7.82451111,75.8625 C7.30531852,78.369375 7.04354074,80.94625 7.04354074,83.523125 C7.04354074,86.778125 7.46238519,90.033125 8.30007407,93.174375 C10.5251852,101.57875 15.9570741,109.19125 22.9421778,114.226875 C23.0119852,114.279375 23.0861556,114.331875 23.1603259,114.384375 C23.8584,117.228125 24.805163,120.063125 26.0311556,122.828125 C26.2013111,123.20875 26.3758296,123.589375 26.5547111,123.97 M113.643815,113.82875 C113.831422,113.316875 114.005941,112.809375 114.176096,112.30625 C114.943978,110.044375 115.576607,107.8525 116.117615,105.748125 C118.648133,104.5975 121.178652,103.236875 123.630637,101.609375 C127.71437,98.914375 131.60177,95.41 134.812911,91.28 C135.074689,93.200625 135.218667,95.1475 135.218667,97.09875 C135.218667,98.336875 135.161948,99.570625 135.044148,100.80875 C132.5878,103.18875 129.948207,105.28875 127.238807,107.086875 C122.740593,110.06625 118.085311,112.21875 113.643815,113.82875 M141.592956,93.10875 C141.309363,89.6875 140.681096,86.349375 139.769237,83.155625 C139.812867,83.059375 139.856496,82.9675 139.895763,82.87125 L139.904489,82.85375 C141.091215,80.22875 141.998711,77.459375 142.578985,74.61125 L145.785763,75.271875 L142.578985,74.61125 C143.093815,72.095625 143.355593,69.514375 143.355593,66.933125 C143.355593,63.6825 142.941111,60.4275 142.112148,57.295 L142.112148,57.299375 C139.878311,48.890625 134.455148,41.2825 127.47877,36.255625 L127.465681,36.246875 C127.391511,36.19 127.312978,36.133125 127.238807,36.080625 C126.540733,33.245625 125.59397,30.415 124.381067,27.65 L124.376704,27.64125 C124.206548,27.260625 124.03203,26.88 123.853148,26.50375 C126.427296,27.733125 128.927274,29.203125 131.287637,30.918125 L131.300726,30.926875 C139.476919,36.8375 145.759585,45.61375 148.434081,55.601875 L148.434081,55.60625 C149.415748,59.3075 149.900037,63.126875 149.900037,66.933125 C149.900037,69.95625 149.59463,72.975 148.988178,75.928125 C148.307556,79.261875 147.251719,82.499375 145.864296,85.56625 L145.868659,85.5575 C144.664481,88.235 143.220341,90.755 141.592956,93.10875 M139.860859,82.95875 L139.900126,82.8625 C139.900126,82.866875 139.900126,82.87125 139.895763,82.87125 L139.860859,82.95875 M15.5905852,59.185 C15.3288074,57.26 15.1848296,55.30875 15.1891926,53.34875 C15.1891926,52.119375 15.2415481,50.885625 15.3593481,49.65625 C17.8156963,47.27625 20.4509259,45.171875 23.1646889,43.378125 C27.6629037,40.4075 32.3138222,38.250625 36.7509556,36.645 C36.5677111,37.1525 36.3888296,37.66 36.2186741,38.163125 L36.2143111,38.17625 C35.4638815,40.420625 34.8356148,42.6125 34.2946074,44.716875 C31.7597259,45.871875 29.2248444,47.2325 26.7684963,48.855625 C22.684763,51.555 18.797363,55.055 15.5905852,59.185 M41.9167037,41.825 C42.0781333,41.30875 42.2439259,40.788125 42.4184444,40.263125 L42.4140815,40.27625 C43.0947037,38.268125 43.888763,36.220625 44.8180741,34.1775 C44.9925926,34.129375 45.1714741,34.085625 45.3459926,34.041875 C52.0780444,32.33125 57.8109778,31.33375 63.1119778,29.91625 C66.6765185,28.95375 70.2585111,27.79 74.2288074,26.52125 C76.2314074,25.886875 78.3387185,25.22625 80.5769185,24.59625 C80.7470741,24.548125 80.9215926,24.5 81.0961111,24.451875 C83.3779407,26.0925 85.4765259,27.846875 87.4136815,29.6275 C85.6641333,30.016875 83.9713037,30.454375 82.3482815,30.91375 C80.2278815,31.50875 78.1903778,32.1475 76.2139556,32.7775 C72.2654741,34.0375 68.5918593,35.231875 64.8048074,36.255625 C59.1024148,37.77375 53.4000222,38.758125 46.9559259,40.403125 C45.3110889,40.81875 43.6269852,41.286875 41.9167037,41.825 M127.504948,36.273125 L127.474407,36.25125 C127.47877,36.25125 127.47877,36.255625 127.47877,36.255625 L127.504948,36.273125 M118.888096,31.47375 C114.053933,29.491875 108.95363,28.4375 104.03657,28.14 C102.989459,28.07875 101.951074,28.048125 100.925778,28.048125 L100.917052,28.048125 C99.0627926,28.048125 97.243437,28.144375 95.4677111,28.319375 C93.6134519,26.425 91.5672222,24.469375 89.3072074,22.5575 C92.9371926,21.91 96.8289556,21.485625 100.925778,21.485625 C102.0776,21.485625 103.246874,21.51625 104.429237,21.590625 C107.679644,21.7875 111.004222,22.273125 114.315711,23.095625 C115.916919,25.375 117.282526,27.803125 118.399444,30.31 L118.403807,30.323125 C118.5696,30.708125 118.73103,31.08875 118.888096,31.47375" id="Fill-9" fill="#7598A1"></path>
            <path d="M61.0962889,127.91625 C58.8319111,126 56.7856815,124.044375 54.9314222,122.15 C57.7280815,121.874375 60.4200296,121.415 62.9898148,120.84625 C64.9269704,122.626875 67.0255556,124.38125 69.3117481,126.02625 C66.7550519,126.730625 64.0063852,127.395625 61.0962889,127.91625 M135.044148,100.80875 C135.161948,99.570625 135.218667,98.336875 135.218667,97.09875 C135.218667,95.1475 135.074689,93.200625 134.812911,91.28 C136.750067,88.78625 138.438533,86.065 139.769237,83.155625 C140.681096,86.349375 141.309363,89.6875 141.592956,93.10875 C139.642711,95.92625 137.426326,98.49875 135.044148,100.80875 M10.6342593,67.31375 C9.7224,64.12 9.09413333,60.7775 8.81054074,57.35625 C10.7607852,54.53875 12.9728074,51.96625 15.3593481,49.65625 C15.2415481,50.885625 15.1891926,52.119375 15.1891926,53.34875 C15.1848296,55.30875 15.3288074,57.26 15.5905852,59.185 C13.6534296,61.67875 11.964963,64.4 10.6342593,67.31375 M87.4136815,29.6275 C85.4765259,27.846875 83.3779407,26.0925 81.0961111,24.451875 C83.6484444,23.743125 86.3927481,23.078125 89.3072074,22.5575 C91.5672222,24.469375 93.6134519,26.425 95.4677111,28.319375 C92.6710519,28.595 89.9791037,29.05875 87.4136815,29.6275" id="Fill-10" fill="#767A78"></path>
            <path d="M36.0921481,127.37375 C33.2649481,126.669375 30.450837,125.72 27.6978074,124.495 C27.3138667,124.324375 26.9342889,124.149375 26.5547111,123.97 C26.3758296,123.589375 26.2013111,123.20875 26.0311556,122.828125 C24.805163,120.063125 23.8584,117.228125 23.1603259,114.384375 C25.4203407,116.003125 27.8417852,117.38125 30.3504889,118.496875 C30.7344296,118.6675 31.1270963,118.83375 31.5154,118.995625 C31.6768296,119.385 31.8426222,119.77875 32.0127778,120.16375 C33.1209704,122.66625 34.4865778,125.094375 36.0921481,127.37375 M105.594148,116.2875 C106.519096,114.24875 107.30443,112.205625 107.976326,110.20625 L107.980689,110.193125 C108.155207,109.676875 108.325363,109.160625 108.486793,108.64875 C108.997259,108.486875 109.512089,108.320625 110.026919,108.145625 C112.029519,107.4675 114.075748,106.675625 116.117615,105.748125 C115.576607,107.8525 114.943978,110.044375 114.176096,112.30625 C114.005941,112.809375 113.831422,113.316875 113.643815,113.82875 C113.133348,114.0125 112.627244,114.191875 112.121141,114.3625 C109.887304,115.119375 107.692733,115.749375 105.594148,116.2875 M34.2946074,44.716875 C34.8356148,42.6125 35.4638815,40.420625 36.2143111,38.17625 L36.2186741,38.163125 C36.3888296,37.66 36.5677111,37.1525 36.7509556,36.645 C37.2614222,36.456875 37.7718889,36.281875 38.2736296,36.11125 C40.5249185,35.35 42.7194889,34.72 44.8180741,34.1775 C43.888763,36.220625 43.0947037,38.268125 42.4140815,40.27625 L42.4184444,40.263125 C42.2439259,40.788125 42.0781333,41.30875 41.9167037,41.825 C41.4018741,41.986875 40.8826815,42.153125 40.3634889,42.328125 C38.3696148,43.00625 36.3321111,43.79375 34.2946074,44.716875 M127.238807,36.080625 C124.983156,34.46625 122.557348,33.0925 120.05737,31.9725 C119.669067,31.801875 119.280763,31.635625 118.888096,31.47375 C118.73103,31.08875 118.5696,30.708125 118.403807,30.323125 L118.399444,30.31 C117.282526,27.803125 115.916919,25.375 114.315711,23.095625 C117.142911,23.8 119.961385,24.749375 122.718778,25.97875 C123.098356,26.149375 123.477933,26.324375 123.853148,26.50375 C124.03203,26.88 124.206548,27.260625 124.376704,27.64125 L124.381067,27.65 C125.59397,30.415 126.540733,33.245625 127.238807,36.080625" id="Fill-11" fill="#407B85"></path>
        </g>
    </g>
</svg>