<svg xmlns="http://www.w3.org/2000/svg" width="248" height="106" viewBox="0 0 248 106"><path d="M102.956 46.32l-.782 2.58h-1.715l2.91-9.1h2.12l2.95 9.1h-1.78l-.83-2.58h-2.89zm2.605-1.255l-.71-2.24c-.17-.554-.32-1.175-.46-1.702h-.02c-.13.526-.27 1.16-.43 1.7l-.7 2.242h2.34zm3.77 2.295c.37.23 1.08.486 1.68.486.73 0 1.06-.31 1.06-.742 0-.446-.27-.662-1.08-.958-1.28-.432-1.81-1.134-1.81-1.917 0-1.17.96-2.06 2.49-2.06.73 0 1.37.17 1.76.39l-.34 1.16c-.27-.16-.81-.38-1.39-.38-.59 0-.92.29-.92.7 0 .42.31.61 1.15.92 1.2.42 1.74 1.02 1.76 1.99 0 1.2-.93 2.06-2.67 2.06-.79 0-1.51-.19-1.99-.46l.34-1.22zm5.43 0c.37.23 1.08.486 1.68.486.73 0 1.06-.31 1.06-.742 0-.446-.27-.662-1.08-.958-1.28-.432-1.81-1.134-1.81-1.917 0-1.17.96-2.06 2.49-2.06.73 0 1.37.17 1.76.39l-.33 1.16c-.27-.16-.81-.38-1.39-.38-.59 0-.92.29-.92.7 0 .42.32.61 1.15.92 1.2.42 1.74 1.02 1.76 1.99 0 1.2-.93 2.06-2.67 2.06-.79 0-1.51-.19-1.99-.46l.34-1.22zm8.37 1.687c-1.85 0-3.29-1.27-3.29-3.39 0-2.16 1.42-3.482 3.41-3.482 1.96 0 3.27 1.377 3.27 3.375 0 2.417-1.7 3.497-3.36 3.497h-.01zm.06-1.2c.95 0 1.61-.92 1.61-2.255 0-1.026-.46-2.214-1.59-2.214-1.17 0-1.64 1.147-1.64 2.24 0 1.27.64 2.228 1.62 2.228h.02zm9.32.85c-.35.16-1.04.336-1.86.336-2.05 0-3.38-1.323-3.38-3.36 0-1.972 1.35-3.498 3.66-3.498.61 0 1.23.135 1.61.297l-.29 1.255c-.27-.135-.66-.256-1.26-.256-1.27 0-2.02.94-2.01 2.14 0 1.35.88 2.12 2.01 2.12.57 0 .99-.12 1.31-.25l.23 1.23zm1.85-7.317c-.55 0-.92-.406-.92-.892 0-.513.38-.904.93-.904.57 0 .92.392.94.904 0 .486-.36.89-.93.89h-.01zm-.82 7.52v-6.576h1.66V48.9h-1.66zm8.36-1.58c0 .593.03 1.174.11 1.58h-1.5l-.12-.73h-.04c-.39.513-1.08.877-1.94.877-1.32 0-2.06-.958-2.06-1.958 0-1.65 1.47-2.5 3.9-2.49v-.11c0-.43-.17-1.15-1.34-1.15-.65 0-1.32.2-1.77.48l-.32-1.08c.49-.3 1.34-.58 2.38-.58 2.11 0 2.72 1.33 2.72 2.78v2.36zm-1.62-1.634c-1.17-.014-2.29.23-2.29 1.23 0 .647.42.944.95.944.68 0 1.15-.432 1.31-.904.04-.122.04-.243.04-.365v-.9zm5-5.05v1.69h1.58v1.24h-1.58v2.89c0 .81.22 1.215.85 1.215.3 0 .46-.01.65-.06l.03 1.26c-.24.1-.68.18-1.2.18-.62 0-1.12-.2-1.43-.54-.36-.38-.53-.98-.53-1.85v-3.08h-.93v-1.25h.94V41.1l1.63-.457zm3.46.744c-.55 0-.92-.406-.92-.892 0-.513.38-.904.93-.904.57 0 .92.392.93.904 0 .486-.36.89-.93.89h-.01zm-.82 7.52v-6.576h1.66V48.9h-1.66zm6.13.147c-1.85 0-3.29-1.27-3.29-3.39 0-2.16 1.42-3.482 3.4-3.482 1.96 0 3.27 1.377 3.27 3.375 0 2.417-1.7 3.497-3.36 3.497h-.01zm.06-1.2c.95 0 1.61-.92 1.61-2.255 0-1.026-.46-2.214-1.59-2.214-1.18 0-1.65 1.147-1.65 2.24 0 1.27.64 2.228 1.62 2.228h.02zm4.48-3.565c0-.756-.02-1.39-.05-1.958h1.45l.08.986h.05c.29-.513 1.01-1.134 2.1-1.134 1.15 0 2.34.743 2.34 2.822v3.9h-1.66v-3.71c0-.946-.35-1.662-1.25-1.662-.66 0-1.12.473-1.295.972-.054.135-.08.337-.08.526V48.9h-1.66v-4.62zm10.3 4.618v-5.334H168v-1.242h.89v-.283c0-.85.23-1.7.797-2.24.49-.46 1.15-.63 1.72-.63.45 0 .8.08 1.05.16l-.1 1.28c-.19-.06-.405-.12-.716-.12-.82 0-1.09.69-1.09 1.5v.34H172v1.24h-1.437v5.33h-1.66zm6.65.147c-1.85 0-3.29-1.27-3.29-3.39 0-2.16 1.42-3.482 3.4-3.482 1.96 0 3.27 1.377 3.27 3.375 0 2.417-1.7 3.497-3.36 3.497h-.01zm.06-1.2c.95 0 1.61-.92 1.61-2.255 0-1.026-.46-2.214-1.59-2.214-1.18 0-1.65 1.147-1.65 2.24 0 1.27.63 2.228 1.62 2.228h.01zm4.48-3.403c0-.89-.01-1.54-.05-2.12h1.43l.07 1.242h.04c.32-.918 1.09-1.39 1.81-1.39.16 0 .26.013.39.04v1.553c-.15-.03-.3-.05-.5-.05-.78 0-1.34.5-1.48 1.25-.03.15-.04.32-.04.5v3.42h-1.66v-4.45zm-72.4 19.186c-.39.187-1.25.403-2.36.403-2.89 0-4.64-1.81-4.64-4.576 0-2.997 2.09-4.793 4.87-4.793 1.1 0 1.87.217 2.2.392l-.35 1.323c-.43-.19-1.04-.36-1.78-.36-1.85 0-3.18 1.16-3.18 3.35 0 2 1.16 3.26 3.17 3.26.66 0 1.37-.14 1.81-.33l.27 1.31zm3.81.417c-1.85 0-3.29-1.27-3.29-3.39 0-2.16 1.42-3.48 3.4-3.48 1.96 0 3.27 1.376 3.27 3.374 0 2.42-1.7 3.5-3.36 3.5h-.01zm.06-1.2c.95 0 1.61-.92 1.61-2.256 0-1.02-.45-2.21-1.59-2.21-1.17 0-1.64 1.15-1.64 2.24 0 1.27.637 2.23 1.62 2.23h.016zm4.48-3.565c0-.756-.02-1.39-.05-1.957h1.42l.09.972h.04c.31-.513.9-1.12 2.024-1.12.86 0 1.54.485 1.82 1.215h.024c.23-.364.5-.635.798-.823.38-.26.8-.4 1.35-.4 1.08 0 2.19.74 2.19 2.85v3.88h-1.62v-3.64c0-1.1-.372-1.74-1.17-1.74-.56 0-.98.4-1.16.87-.05.15-.08.36-.08.55v3.95h-1.62v-3.8c0-.92-.36-1.57-1.13-1.57-.62 0-1.04.48-1.2.93-.05.17-.08.36-.08.55v3.89H116v-4.62zm11.25.228c0-.863-.023-1.564-.05-2.186h1.457l.08 1.013h.03c.48-.743 1.25-1.16 2.25-1.16 1.51 0 2.768 1.295 2.768 3.347 0 2.376-1.5 3.523-3 3.523-.83 0-1.52-.35-1.85-.877h-.03v3.4h-1.66v-7.06zm1.66 1.635c0 .162.018.31.04.46.18.674.76 1.16 1.476 1.16 1.053 0 1.674-.878 1.674-2.174 0-1.16-.57-2.1-1.64-2.1-.69 0-1.32.5-1.5 1.23-.03.14-.055.28-.055.42v1.01zm11.925.783c0 .782.025 1.43.05 1.97h-1.44l-.08-.984h-.05c-.28.46-.93 1.134-2.12 1.134s-2.28-.716-2.28-2.862v-3.86h1.66v3.577c0 1.094.35 1.796 1.23 1.796.67 0 1.1-.46 1.27-.9.06-.14.09-.33.09-.52v-3.97h1.66v4.6zm3.495-6.29v1.687h1.58v1.242h-1.58v2.89c0 .81.216 1.214.85 1.214.3 0 .46-.01.65-.06l.03 1.26c-.245.1-.69.18-1.2.18-.62 0-1.12-.2-1.43-.54-.37-.38-.53-.98-.53-1.85v-3.08h-.934v-1.25h.93V56.1l1.64-.46zm3.456.742c-.55 0-.92-.406-.92-.892 0-.514.38-.905.93-.905.57 0 .92.392.94.905 0 .485-.36.89-.93.89h-.01zm-.82 7.52v-6.575h1.66V63.9h-1.66zm3.26-4.618c0-.756-.02-1.39-.05-1.957h1.45l.08.985h.04c.3-.513 1.01-1.134 2.11-1.134 1.15 0 2.34.742 2.34 2.82V63.9h-1.66v-3.713c0-.944-.35-1.66-1.252-1.66-.66 0-1.12.473-1.29.972-.053.13-.08.33-.08.52v3.88h-1.66v-4.62zm13.48 3.658c0 1.378-.28 2.363-.97 2.984-.67.607-1.63.796-2.533.796-.84 0-1.73-.188-2.297-.526l.366-1.256c.42.243 1.12.5 1.92.5 1.08 0 1.89-.567 1.89-1.984v-.567h-.025c-.38.58-1.04.973-1.92.973-1.63 0-2.79-1.35-2.79-3.214 0-2.16 1.4-3.47 2.98-3.47 1.01 0 1.59.486 1.9 1.026h.02l.07-.877h1.44c-.024.445-.05.985-.05 1.89v3.725zm-1.66-2.983c0-.16-.01-.31-.05-.445-.175-.607-.65-1.066-1.35-1.066-.93 0-1.62.81-1.62 2.146 0 1.12.567 2.025 1.607 2.025.62 0 1.16-.405 1.35-1.013.05-.162.06-.392.06-.58v-1.067zm13.58.23c-.05-1.175-.12-2.58-.1-3.82h-.04c-.29 1.106-.67 2.335-1.08 3.482l-1.33 3.94h-1.27l-1.22-3.89c-.35-1.16-.677-2.41-.92-3.54h-.027c-.04 1.19-.1 2.63-.16 3.87l-.21 3.65h-1.56l.61-9.1h2.185l1.18 3.66c.33 1.06.61 2.14.84 3.16h.04c.25-.99.56-2.11.91-3.18l1.26-3.65h2.16l.53 9.1h-1.62l-.17-3.71zM184 62.32c0 .594.03 1.174.11 1.58h-1.5l-.12-.73h-.043c-.392.513-1.08.877-1.944.877-1.32 0-2.06-.958-2.06-1.957 0-1.647 1.47-2.498 3.9-2.484v-.108c0-.432-.17-1.147-1.33-1.147-.645 0-1.32.21-1.77.49l-.322-1.08c.49-.29 1.34-.58 2.38-.58 2.11 0 2.72 1.34 2.72 2.78v2.37zm-1.62-1.634c-1.17-.014-2.29.23-2.29 1.23 0 .646.417.944.944.944.672 0 1.144-.433 1.31-.905.04-.12.04-.242.04-.364v-.9zm8.01 3.01c-.35.163-1.04.338-1.863.338-2.05 0-3.38-1.323-3.38-3.36 0-1.972 1.35-3.497 3.66-3.497.61 0 1.23.135 1.607.297l-.294 1.255c-.27-.14-.66-.26-1.256-.26-1.27 0-2.02.93-2.01 2.13 0 1.35.88 2.12 2.01 2.12.57 0 .99-.12 1.31-.26l.23 1.22zm1.02-9.396h1.66v3.915h.026c.208-.31.49-.567.83-.742.334-.19.73-.297 1.144-.297 1.12 0 2.294.742 2.294 2.85V63.9h-1.66v-3.7c0-.945-.35-1.675-1.27-1.675-.644 0-1.103.432-1.292.932-.05.148-.06.324-.06.5v3.94h-1.67V54.3zm8.343 2.08c-.555 0-.92-.406-.92-.892 0-.514.378-.905.93-.905.568 0 .92.392.93.905 0 .485-.36.89-.93.89h-.02zm-.825 7.52v-6.575h1.66V63.9h-1.66zm3.25-4.618c0-.756-.03-1.39-.058-1.957h1.45l.08.985h.04c.3-.513 1.01-1.134 2.11-1.134 1.143 0 2.332.742 2.332 2.82V63.9h-1.66v-3.713c0-.944-.35-1.66-1.26-1.66-.664 0-1.12.473-1.298.972-.056.13-.08.33-.08.52v3.88h-1.66v-4.62zm8.69 1.796c.04 1.188.972 1.7 2.025 1.7.77 0 1.31-.12 1.82-.297l.24 1.14c-.564.25-1.35.42-2.292.42-2.14 0-3.39-1.31-3.39-3.32 0-1.82 1.11-3.53 3.21-3.53 2.13 0 2.84 1.76 2.84 3.2 0 .31-.02.56-.05.7h-4.4zm2.89-1.16c.013-.608-.257-1.607-1.364-1.607-1.02 0-1.454.94-1.52 1.61h2.89zm2.7-.474c0-.89-.014-1.54-.055-2.12h1.43l.07 1.243h.04c.323-.92 1.093-1.39 1.81-1.39.16 0 .255.012.39.04v1.552c-.148-.03-.297-.05-.5-.05-.782 0-1.34.5-1.484 1.25-.03.15-.04.32-.04.5v3.42h-1.66v-4.45zm5.954-2.12l1.17 3.524c.13.404.28.904.373 1.27H224c.09-.365.21-.865.35-1.283l1.03-3.51h1.76l-1.648 4.48c-.9 2.458-1.51 3.552-2.28 4.227-.66.567-1.335.783-1.74.837l-.38-1.4c.285-.07.623-.22.96-.46.31-.2.69-.6.92-1.04.053-.12.093-.22.093-.3 0-.07-.015-.17-.08-.33l-2.42-6.04h1.835z"/><linearGradient id="a" gradientUnits="userSpaceOnUse" x1="109.666" y1="-291.689" x2="160.578" y2="-240.777" gradientTransform="rotate(45 -287.993 -201.654)"><stop offset="0" stop-color="#5DB7E1"/><stop offset=".143" stop-color="#55B5E0"/><stop offset=".331" stop-color="#3AAFDE"/><stop offset=".543" stop-color="#00A6D9"/><stop offset=".772" stop-color="#009AD4"/><stop offset=".786" stop-color="#009AD4"/></linearGradient><path fill="url(#a)" d="M56.855 87.868l-36-36 36-36 36 36"/><circle fill="#FFF" cx="56.855" cy="51.867" r="22.072"/><linearGradient id="b" gradientUnits="userSpaceOnUse" x1="56.855" y1="71.731" x2="56.855" y2="30.647"><stop offset="0" stop-color="#6DBCE3"/><stop offset=".134" stop-color="#66BAE2"/><stop offset=".31" stop-color="#50B4E0"/><stop offset=".509" stop-color="#10AADB"/><stop offset=".723" stop-color="#009ED6"/><stop offset=".8" stop-color="#009AD4"/></linearGradient><circle fill="url(#b)" cx="56.855" cy="51.867" r="19.865"/><path d="M45.29 55.735c-.204.17-.388.322-.548.457-.162.14-.38.275-.65.41-.266.13-.525.23-.777.293s-.604.1-1.057.1c-.844 0-1.545-.283-2.102-.852-.56-.566-.836-1.28-.836-2.145 0-.713.14-1.283.424-1.72.283-.44.69-.784 1.223-1.04.54-.26 1.18-.44 1.928-.545.748-.102 1.55-.182 2.412-.238v-.05c0-.528-.195-.892-.582-1.093-.39-.202-.97-.303-1.746-.303-.35 0-.76.06-1.23.19s-.93.29-1.38.49h-.26v-2.32c.29-.09.77-.19 1.43-.31.66-.12 1.32-.18 1.99-.18 1.65 0 2.85.27 3.6.82.75.54 1.13 1.38 1.13 2.51v6.51h-2.98v-1.01zm0-1.49v-1.983c-.503.05-.907.096-1.216.13-.31.038-.615.11-.912.218-.26.09-.46.227-.605.413-.143.182-.215.428-.215.73 0 .447.12.752.36.92.237.166.59.248 1.06.248.258 0 .52-.05.793-.17.27-.12.513-.28.734-.5zm9.532 2.75c-.79 0-1.516-.1-2.172-.3-.656-.194-1.227-.503-1.71-.92-.478-.41-.85-.93-1.118-1.558s-.4-1.365-.4-2.217c0-.914.145-1.69.436-2.333.29-.64.682-1.167 1.178-1.582.477-.396 1.037-.69 1.684-.88.646-.19 1.318-.286 2.018-.286.53 0 1.06.06 1.588.18.53.12 1.06.31 1.596.58v2.56h-.385c-.12-.12-.266-.24-.44-.38s-.362-.27-.567-.38c-.215-.12-.46-.22-.732-.31-.273-.08-.578-.12-.914-.12-.764 0-1.354.26-1.77.79-.42.53-.628 1.24-.628 2.14 0 .96.223 1.67.67 2.14s1.04.7 1.78.7c.374 0 .704-.05.99-.13.284-.08.528-.19.733-.3.19-.12.36-.24.51-.37.14-.13.26-.24.36-.34h.38v2.55l-.6.25c-.23.09-.46.17-.69.24-.29.08-.56.14-.82.18-.26.04-.59.06-1.01.06zm16.11-.245v-4.785c0-.47-.01-.87-.025-1.193-.018-.322-.068-.588-.154-.793-.086-.21-.22-.36-.398-.45-.18-.1-.432-.14-.758-.14-.227 0-.453.05-.674.14-.223.1-.467.24-.73.42v6.78H65.21v-4.78c0-.47-.01-.86-.03-1.19-.02-.33-.07-.59-.157-.8-.086-.21-.22-.36-.398-.45-.18-.1-.43-.14-.748-.14-.244 0-.484.05-.72.17-.233.11-.462.25-.683.4v6.78H59.49v-9.56h2.984v1.05c.486-.42.947-.74 1.38-.97.43-.24.915-.35 1.454-.35.586 0 1.1.14 1.54.41.444.28.782.69 1.015 1.24.574-.54 1.115-.95 1.623-1.23s1.023-.43 1.545-.43c.45 0 .84.07 1.2.21s.65.35.9.64c.27.3.47.67.6 1.09.14.42.2.97.2 1.65v6.23h-2.99z" fill="#FFF"/></svg>