<svg xmlns="http://www.w3.org/2000/svg" xmlns:xlink="http://www.w3.org/1999/xlink" width="1024" height="259" viewBox="-1.66762506 -1.66762506 232.75398012 58.92275212"><defs><linearGradient x2="1" id="l" xlink:href="#a" gradientUnits="userSpaceOnUse" gradientTransform="translate(0 36.49) scale(60.04)"/><linearGradient x2="1" id="a" gradientUnits="userSpaceOnUse" gradientTransform="matrix(48.03 0 0 -48.03 213.22 51.68)"><stop offset="0" stop-color="#7bc143"/><stop offset=".423" stop-color="#d7de27"/><stop offset="1" stop-color="#7bc143"/></linearGradient><linearGradient x2="1" id="k" xlink:href="#b" gradientUnits="userSpaceOnUse" gradientTransform="translate(0 20.61) scale(67.53)"/><linearGradient x2="1" id="b" gradientUnits="userSpaceOnUse" gradientTransform="matrix(54.02 0 0 -54.02 213.22 64.39)"><stop offset="0" stop-color="#7bc143"/><stop offset=".423" stop-color="#d7de27"/><stop offset="1" stop-color="#7bc143"/></linearGradient><linearGradient x2="1" id="j" xlink:href="#c" gradientUnits="userSpaceOnUse" gradientTransform="rotate(-140 18.61 22.29) scale(21.64)"/><linearGradient x2="1" id="c" gradientUnits="userSpaceOnUse" gradientTransform="rotate(140 106.86 61.49) scale(17.32)"><stop offset="0" stop-color="#fff" stop-opacity="0"/><stop offset="1"/></linearGradient><radialGradient cx="0" cy="0" r="1" fx="0" fy="0" id="i" xlink:href="#d" gradientUnits="userSpaceOnUse" gradientTransform="translate(25.42 27.71) scale(28.53)" spreadMethod="pad"/><radialGradient cx="0" cy="0" r="1" fx="0" fy="0" id="d" gradientUnits="userSpaceOnUse" gradientTransform="matrix(22.82 0 0 -22.82 233.55 58.71)" spreadMethod="pad"><stop offset="0" stop-color="#85d3e4"/><stop offset="1" stop-color="#0d94d2"/></radialGradient><linearGradient x2="1" id="h" xlink:href="#e" gradientUnits="userSpaceOnUse" gradientTransform="rotate(140 7.87 5.85) scale(20.17)"/><linearGradient x2="1" id="e" gradientUnits="userSpaceOnUse" gradientTransform="rotate(-140 127.57 -3.07) scale(16.14)"><stop offset="0" stop-color="#fff" stop-opacity="0"/><stop offset="1"/></linearGradient><radialGradient cx="0" cy="0" r="1" fx="0" fy="0" id="f" gradientUnits="userSpaceOnUse" gradientTransform="matrix(22.82 0 0 -22.82 233.55 58.71)" spreadMethod="pad"><stop offset="0" stop-color="#85d3e4"/><stop offset="1" stop-color="#0d94d2"/></radialGradient><radialGradient cx="0" cy="0" r="1" fx="0" fy="0" id="g" xlink:href="#f" gradientUnits="userSpaceOnUse" gradientTransform="translate(25.42 27.71) scale(28.53)" spreadMethod="pad"/></defs><path d="M1.478 13.385c-.242.42-.457.848-.635 1.262l-.08.185 1.11 3.178 5.455 3.295.228-.564c2.896-7.28 9.82-11.99 17.644-11.99 5.25 0 10.144 2.12 13.77 5.95l.15.16h.113l10.063-.82C44.352 5.38 35.123 0 25.2 0 15.435 0 6.575 5.003 1.48 13.385" fill="url(#g)"/><path d="M1.438 13.385c-.244.42-.46.846-.636 1.262l-.08.185 1.11 3.178 5.455 3.295.226-.564c2.015-5.07 5.99-8.89 10.86-10.75l-3.635-7.98C9.294 4.21 4.63 8.14 1.438 13.39" opacity=".9" fill="url(#h)"/><path d="M94.415 40.347h7.593l-4.22 6.504h-4.12l-1.764-.03c-9.194-.25-15.962-7.43-15.962-16.48v-.09c0-9.12 6.875-16.582 16.722-16.582 6.053 0 9.674 2.016 12.65 4.95l-4.494 5.175c-2.47-2.24-4.99-3.617-8.198-3.617-5.41 0-9.303 4.49-9.303 9.99v.09c0 5.5 3.8 10.083 9.3 10.083m66.89-7.737c0-3.29 1.69-4.975 4.34-4.975s4.203 1.69 4.203 4.977v13.66H175V30.41c0-5.618-3.056-9.094-8.31-9.094-3.52 0-5.573 1.875-7.174 3.934v-3.48h-6.945v24.49h6.95V32.59zm48.52-10.827h6.95v4.94c1.41-3.39 3.7-5.58 7.803-5.4v7.264h-.368c-4.614 0-7.44 2.79-7.44 8.633v9.048h-6.95V21.77zm-16.428 5.12c2.922 0 4.755 2.1 5.16 5.205h-10.45c.54-3.15 2.42-5.207 5.294-5.207m8.68 13.842h-7.903c-3.11 0-5.298-1.148-5.986-4.3h17.04c.044-.64.09-1.278.09-1.827 0-6.944-3.744-13.296-11.92-13.296-7.126 0-12.106 5.756-12.106 12.746v.095c0 7.49 5.434 12.65 12.79 12.65h4.065l3.93-6.07zm-66.976-18.97h6.947v4.94c1.416-3.385 3.7-5.577 7.804-5.395v7.263h-.355c-4.616 0-7.447 2.79-7.447 8.636v9.043h-6.948v-24.49zm-16.42 5.12c2.916 0 4.747 2.105 5.155 5.208h-10.46c.55-3.15 2.42-5.205 5.304-5.205m8.67 13.844h-7.9c-3.105 0-5.297-1.147-5.98-4.3h17.034c.05-.64.093-1.277.093-1.826 0-6.944-3.744-13.296-11.917-13.296-7.13 0-12.11 5.755-12.11 12.745v.095c0 7.49 5.436 12.65 12.794 12.65h4.06l3.923-6.07z" fill="#0e94d2"/><path d="M1.872 37.578l-1.11 3.18.08.18c.18.42.394.844.644 1.274C6.574 50.59 15.434 55.587 25.2 55.587c9.704 0 18.733-5.13 23.747-13.452-4.074.915-10.71 1.413-13.334 1.577-3.067 2.03-6.642 3.123-10.412 3.123-7.82 0-14.74-4.706-17.64-11.99l-.23-.564-5.45 3.3z" fill="url(#i)"/><path d="M1.918 37.734l-1.112 3.19.08.18c.177.42.393.847.642 1.28 3.41 5.61 8.945 9.662 14.87 11.766l2.22-8.332c-4.932-1.848-8.96-5.7-11-10.827l-.226-.56-5.474 3.31z" opacity=".9" fill="url(#j)"/><path d="M.008 18.367c0 .053 0 .104-.006.16-.037 1.73.55 3.23 1.75 4.452 0 0 3.818 5.59 23.715 6.48 12.15.54 36.46-3.3 36.46-3.3l5.605-8.658S37.266 20.8 25.647 20.8c-18.07 0-21.486-5.31-21.486-5.31-1.86-1.85-1.69-3.78-1.69-3.78-.98 1.32-2.41 3.435-2.46 6.66" fill="url(#k)"/><path d="M26.894 32.79c-8.227 0-13.966-1.415-17.698-2.23-3.814-.836-6.504 1.037-7.443 1.91-1.26 1.167-1.79 2.725-1.75 4.45.005.06.005.106.005.16.05 3.22 1.48 5.34 2.454 6.657 0 0-.165-1.925 1.698-3.775 0 0 2.35-2.43 4.858-1.537 4.107 1.607 17.46 2.502 17.46 2.502 13.33 0 27.962-3.016 27.962-3.016l5.6-8.66s-17.402 3.54-33.146 3.54" fill="url(#l)"/><path d="M229.047 21.24h.372v2.482h-.4v-1.93l-.85.96h-.08l-.86-.96v1.93h-.4v-2.48h.38l.91 1.02.915-1.02zm-4.88-.004h2.308v.316h-.964v2.17h-.39v-2.17h-.94v-.316z" fill="#0e94d2"/></svg>