<svg version="1.1" baseProfile="tiny" id="Layer_1" xmlns="http://www.w3.org/2000/svg" xmlns:xlink="http://www.w3.org/1999/xlink" x="0" y="0" width="612" height="153" viewBox="0 321.5 612 153" overflow="inherit" xml:space="preserve"><g><path fill="#5C5C5C" d="M107.291,418.921c-1.395,2.829-3.219,5.229-5.473,7.195c-2.256,1.968-4.88,3.485-7.872,4.551 c-2.995,1.064-6.294,1.599-9.902,1.599c-4.51,0-8.508-0.841-11.992-2.521c-3.486-1.68-6.417-3.955-8.794-6.826 c-2.379-2.869-4.182-6.211-5.412-10.024c-1.23-3.812-1.845-7.892-1.845-12.237c0-4.592,0.594-8.958,1.784-13.1 c1.188-4.14,2.992-7.79,5.412-10.947c2.417-3.155,5.493-5.677,9.225-7.564c3.73-1.885,8.097-2.829,13.1-2.829 c2.952,0,5.781,0.452,8.487,1.353c2.706,0.903,5.124,2.214,7.257,3.936c2.131,1.722,3.915,3.875,5.351,6.458 c1.434,2.583,2.356,5.556,2.768,8.917h-2.46c-0.492-3.115-1.396-5.8-2.706-8.056c-1.313-2.254-2.912-4.14-4.797-5.658 c-1.887-1.516-4.019-2.645-6.396-3.382c-2.379-0.738-4.879-1.107-7.503-1.107c-5.002,0-9.246,0.964-12.73,2.89 c-3.486,1.928-6.273,4.428-8.364,7.503c-2.091,3.075-3.609,6.519-4.551,10.332c-0.943,3.813-1.415,7.564-1.415,11.255 c0,3.854,0.554,7.545,1.661,11.07s2.725,6.642,4.858,9.348c2.131,2.706,4.797,4.857,7.995,6.457c3.198,1.6,6.888,2.397,11.07,2.397 c3.116,0,6.027-0.471,8.733-1.414c2.706-0.94,5.104-2.315,7.195-4.119c2.091-1.804,3.792-3.956,5.104-6.458 c1.311-2.5,2.091-5.352,2.337-8.55h2.46C109.545,412.915,108.685,416.092,107.291,418.921L107.291,418.921z M121.251,410.864 c1.107,3.688,2.768,6.949,4.981,9.777c2.214,2.829,4.939,5.085,8.18,6.766c3.238,1.682,6.99,2.521,11.254,2.521 c4.182,0,7.891-0.84,11.132-2.521c3.238-1.681,5.965-3.937,8.179-6.766c2.214-2.828,3.875-6.089,4.981-9.777 c1.107-3.69,1.661-7.544,1.661-11.562c0-3.936-0.554-7.749-1.661-11.438c-1.107-3.69-2.768-6.95-4.981-9.779 s-4.941-5.104-8.179-6.826c-3.241-1.722-6.95-2.583-11.132-2.583c-4.265,0-8.016,0.861-11.254,2.583 c-3.24,1.722-5.965,3.997-8.18,6.826c-2.214,2.829-3.875,6.088-4.981,9.779c-1.107,3.69-1.66,7.503-1.66,11.438 C119.591,403.32,120.145,407.174,121.251,410.864L121.251,410.864z M118.976,386.817c1.23-3.976,3.054-7.481,5.474-10.516 c2.417-3.033,5.391-5.474,8.917-7.319c3.525-1.845,7.626-2.768,12.3-2.768c4.591,0,8.65,0.923,12.177,2.768 c3.524,1.845,6.498,4.286,8.917,7.319c2.417,3.035,4.244,6.54,5.474,10.516c1.23,3.979,1.845,8.139,1.845,12.484 c0,4.349-0.615,8.509-1.845,12.484c-1.23,3.979-3.056,7.483-5.474,10.517c-2.42,3.035-5.393,5.455-8.917,7.258 c-3.527,1.803-7.626,2.705-12.3,2.705c-4.593,0-8.652-0.902-12.177-2.705c-3.527-1.803-6.5-4.223-8.917-7.258 c-2.42-3.032-4.244-6.538-5.474-10.517c-1.23-3.977-1.845-8.137-1.845-12.484C117.131,394.957,117.746,390.796,118.976,386.817 L118.976,386.817z M235.949,343.091v87.822h-2.46v-17.712h-0.246c-1.641,5.658-4.655,10.251-9.041,13.775 c-4.388,3.526-9.821,5.288-16.297,5.288c-4.182,0-7.934-0.819-11.254-2.46c-3.321-1.639-6.15-3.914-8.487-6.826 c-2.337-2.908-4.12-6.375-5.35-10.394c-1.23-4.017-1.845-8.404-1.845-13.161c0-4.428,0.594-8.65,1.784-12.669 c1.188-4.017,2.91-7.543,5.166-10.578c2.254-3.033,5.062-5.453,8.425-7.257c3.361-1.803,7.215-2.706,11.562-2.706 c6.723,0,12.258,1.765,16.605,5.289c4.345,3.527,7.257,8.161,8.733,13.899h0.246V343.09L235.949,343.091L235.949,343.091z M226.478,376.608c-4.674-5.289-10.867-7.933-18.573-7.933c-4.265,0-7.955,0.922-11.07,2.767c-3.118,1.845-5.658,4.225-7.626,7.134 c-1.968,2.912-3.425,6.192-4.367,9.84c-0.944,3.65-1.415,7.319-1.415,11.008c0,4.02,0.511,7.872,1.538,11.562 c1.024,3.688,2.541,6.948,4.551,9.777c2.008,2.829,4.551,5.064,7.626,6.703c3.075,1.643,6.662,2.46,10.763,2.46 c4.1,0,7.728-0.817,10.886-2.46c3.155-1.639,5.821-3.853,7.995-6.642c2.172-2.787,3.833-6.027,4.981-9.717 c1.147-3.69,1.722-7.584,1.722-11.687C233.489,389.504,231.152,381.897,226.478,376.608L226.478,376.608z M250.646,411.663 c0.942,3.649,2.399,6.827,4.367,9.533c1.968,2.706,4.509,4.839,7.626,6.396c3.115,1.56,6.928,2.337,11.439,2.337 c6.642,0,12.156-1.741,16.543-5.228c4.386-3.484,7.113-8.712,8.18-15.683h2.46c-0.903,7.381-3.812,13.1-8.733,17.158 c-4.92,4.06-10.989,6.088-18.204,6.088c-4.92,0.081-9.123-0.696-12.607-2.337c-3.486-1.639-6.334-3.955-8.549-6.949 c-2.214-2.991-3.855-6.519-4.92-10.577c-1.066-4.06-1.599-8.427-1.599-13.101c0-5.247,0.778-9.92,2.337-14.021 c1.557-4.1,3.607-7.564,6.15-10.394c2.541-2.829,5.493-4.981,8.856-6.458c3.361-1.476,6.805-2.214,10.332-2.214 c4.92,0,9.164,0.944,12.73,2.829c3.567,1.887,6.477,4.388,8.733,7.503c2.254,3.118,3.894,6.685,4.92,10.701 c1.024,4.019,1.455,8.2,1.292,12.546h-52.89C249.189,404.059,249.702,408.016,250.646,411.663L250.646,411.663z M297.939,386.326 c-1.066-3.484-2.644-6.539-4.735-9.164c-2.091-2.624-4.695-4.693-7.811-6.211c-3.117-1.517-6.725-2.275-10.824-2.275 c-3.444,0-6.663,0.657-9.656,1.968c-2.994,1.312-5.618,3.219-7.872,5.72c-2.256,2.502-4.08,5.516-5.473,9.041 c-1.396,3.526-2.214,7.503-2.46,11.931h50.43C299.538,393.48,299.004,389.812,297.939,386.326L297.939,386.326z"/><path fill="#ED634C" d="M369.281,430.913h17.221l-16.852-20.418c1.967-3.115,3.506-6.521,4.61-10.209 c1.107-3.69,1.865-7.461,2.277-11.316h-12.301c-0.328,2.871-0.738,5.208-1.23,7.011c-0.492,1.805-0.983,3.403-1.477,4.797 l-13.652-16.482c2.131-1.147,4.16-2.46,6.088-3.936c1.926-1.476,3.607-3.137,5.043-4.982c1.437-1.845,2.584-3.875,3.445-6.088 s1.291-4.632,1.291-7.257c0-3.525-0.615-6.6-1.846-9.225c-1.229-2.624-2.851-4.816-4.857-6.581 c-2.01-1.762-4.348-3.075-7.012-3.936c-2.666-0.861-5.394-1.292-8.181-1.292c-2.95,0-5.739,0.492-8.362,1.476 c-2.625,0.984-4.92,2.398-6.89,4.244c-1.967,1.845-3.506,4.04-4.61,6.581c-1.107,2.542-1.662,5.412-1.662,8.61 c0,1.887,0.246,3.69,0.738,5.412c0.491,1.722,1.147,3.363,1.969,4.92c0.817,1.559,1.762,3.056,2.828,4.489 c1.065,1.436,2.172,2.891,3.321,4.367c-2.543,1.312-5.022,2.789-7.44,4.428c-2.42,1.642-4.572,3.506-6.459,5.597 c-1.888,2.091-3.402,4.409-4.551,6.95c-1.148,2.542-1.722,5.371-1.722,8.486c0,4.102,0.676,7.771,2.029,11.009 c1.354,3.239,3.26,5.966,5.719,8.18c2.461,2.214,5.392,3.917,8.795,5.104c3.402,1.188,7.113,1.783,11.131,1.783 c5.166,0,9.736-0.922,13.716-2.768c3.977-1.846,7.604-4.775,10.887-8.794L369.281,430.913L369.281,430.913z M353.783,411.726 c-0.658,0.902-1.414,1.928-2.275,3.074c-0.86,1.149-1.928,2.214-3.197,3.198c-1.272,0.984-2.811,1.826-4.612,2.521 c-1.806,0.697-3.979,1.047-6.521,1.047c-4.102,0-7.481-1.271-10.146-3.813c-2.666-2.541-3.998-6.189-3.998-10.947 c0-2.623,0.471-4.797,1.414-6.519c0.94-1.722,2.092-3.198,3.444-4.428s2.808-2.255,4.365-3.075c1.558-0.819,2.992-1.64,4.306-2.46 L353.783,411.726L353.783,411.726z M348.74,354.346c1.639,1.928,2.459,4.326,2.459,7.195c0,1.722-0.287,3.281-0.859,4.674 c-0.576,1.396-1.354,2.645-2.338,3.752c-0.984,1.107-2.09,2.133-3.32,3.075c-1.229,0.944-2.502,1.866-3.813,2.768 c-0.82-1.065-1.701-2.172-2.644-3.321c-0.944-1.147-1.805-2.316-2.584-3.506c-0.778-1.188-1.436-2.417-1.969-3.69 c-0.533-1.27-0.799-2.645-0.799-4.121c0-2.952,0.902-5.308,2.707-7.072c1.803-1.762,4.016-2.645,6.641-2.645 C344.928,351.455,347.1,352.42,348.74,354.346L348.74,354.346z"/><path fill="#5C5C5C" d="M439.021,387.494c-1.148-3.69-2.81-6.928-4.98-9.717c-2.174-2.787-4.84-5.001-7.996-6.642 c-3.156-1.64-6.785-2.46-10.885-2.46c-4.103,0-7.688,0.82-10.762,2.46c-3.076,1.641-5.619,3.875-7.628,6.703 c-2.01,2.829-3.526,6.069-4.551,9.717c-1.024,3.649-1.537,7.524-1.537,11.623c0,3.69,0.472,7.361,1.414,11.009 c0.941,3.649,2.398,6.932,4.367,9.841c1.967,2.912,4.508,5.289,7.625,7.134c3.115,1.846,6.805,2.768,11.07,2.768 c7.707,0,13.897-2.645,18.572-7.934c4.674-5.288,7.012-12.895,7.012-22.816C440.744,395.08,440.17,391.184,439.021,387.494 L439.021,387.494z M443.205,367.691v84.872h-2.461v-39.36h-0.246c-1.477,5.74-4.387,10.354-8.732,13.838 c-4.348,3.485-9.883,5.227-16.604,5.227c-4.349,0-8.201-0.882-11.562-2.644c-3.362-1.763-6.17-4.161-8.426-7.196 c-2.256-3.032-3.977-6.559-5.166-10.578c-1.188-4.017-1.783-8.239-1.783-12.669c0-4.754,0.615-9.142,1.847-13.161 c1.229-4.017,3.014-7.503,5.35-10.455c2.338-2.952,5.166-5.247,8.488-6.888c3.32-1.64,7.072-2.46,11.254-2.46 c3.197,0,6.17,0.473,8.918,1.415c2.746,0.944,5.205,2.276,7.379,3.998c2.172,1.722,4.018,3.751,5.535,6.089 c1.518,2.337,2.686,4.9,3.506,7.688h0.246v-17.712h2.459V367.691z M503.104,430.913v-15.621h-0.245 c-1.148,4.92-3.671,8.979-7.564,12.177c-3.896,3.198-8.959,4.797-15.188,4.797c-3.281,0-6.296-0.473-9.041-1.414 c-2.748-0.94-5.127-2.377-7.136-4.305c-2.01-1.926-3.565-4.306-4.674-7.134c-1.106-2.829-1.66-6.089-1.66-9.779v-41.943h2.459 v41.574c0,3.69,0.533,6.827,1.601,9.41c1.063,2.583,2.521,4.716,4.367,6.396c1.844,1.682,3.977,2.912,6.396,3.689 c2.416,0.78,4.98,1.168,7.688,1.168c3.77,0,7.09-0.717,9.963-2.151c2.869-1.435,5.268-3.361,7.194-5.781 c1.927-2.417,3.384-5.228,4.365-8.425c0.984-3.198,1.478-6.561,1.478-10.086v-35.793h2.461v63.222L503.104,430.913L503.104,430.913 z M519.094,355.514v-12.423h2.459v12.423H519.094L519.094,355.514z M519.094,430.913v-63.222h2.459v63.222H519.094L519.094,430.913 z M537.543,343.091v87.822h-2.461v-87.822H537.543L537.543,343.091z M553.531,343.091v87.822h-2.461v-87.822H553.531 L553.531,343.091z"/></g></svg>