<svg xmlns="http://www.w3.org/2000/svg" width="1000.258" height="353.502" viewBox="0 0 1000.258 353.502"><path fill="#FFF" d="M500.044 17.76c3.688-6.023 9.807-12.324 16.396-14.99 11.34-5.16 26.542-2.94 35.795 5.225 8.954 8.112 13.496 19.23 11.353 31.66 2.196-.405 4.413-1.81 6.738-2.61 13.9-3.924 28.6.33 37.51 12.247 6.695 8.507 8.444 21.724 4.426 32-1.994 5.17-5.395 9.818-9.817 13.784l.446.448c12.94.628 25.64 10.67 29.57 22.982 4.26 12.42.51 25.69-8.57 34.773-7.42 7.33-16.96 9.87-27.56 9.65H403.77c-15.81.34-28.027-6.67-34.604-20.72-5.16-12.07-2.612-27.51 7.024-36.7 6.075-6.36 13.687-8.96 21.895-10.27-9.295-8.63-13.773-20.43-11.16-33.08 1.865-10.26 10.606-20.64 20.647-24.22 8.847-3.52 20.83-2.9 28.93 1.87l.29-.35c-2.44-13.96 3.74-26.55 15.317-34.26 10.32-6.98 26.82-6.8 36.92.62 4.54 2.78 8.28 7.55 11.01 11.92"/><path fill="#645FAA" d="M554.558 22.972c4.137 8.347 1.707 19.284-2.61 26.778l-33.41 75.163-.288.352-12.076-76.25c-.97-7.322 6.854-10.446 11.46-13.964-.235-1.07-1.42-1.02-2.164-1.52l-11.288-.12-.343-.34c.06-9.46 5.16-18.2 13.79-22.8 9.02-5.21 21.72-3.79 29.55 2.89 3.17 2.84 5.85 6.13 7.37 9.82"/><path fill="#C9234A" d="M493.008 20.36c2.73 5.053 4.308 10.79 3.348 17.14l-13.623 87.306c.074.106-.053.224-.16.276l-3.53-7.024-34.143-76.25c-3.177-9.818-.234-20.083 6.918-27.12 7.206-7.312 19.06-9.295 28.484-5.33 4.99 2.155 9.754 6.12 12.706 11.002"/><path fill="#0089CF" d="M603.978 57.115c4.594 7.834 3.56 19.69-1.547 26.96-3.16 5.105-8.38 7.653-12.81 11l-70.75 48.565h-.16l.79-2.323 37.5-84.65c5.62-9.977 16.35-15.03 27.69-13.506 7.77 1.42 15.54 6.48 19.3 13.96"/><path fill="#F36F21" d="M443.26 56.668l39.025 86.963h-.628l-78.68-54.22c-8.007-6.74-11.29-16.85-8.57-27.06 2.035-7.65 8.388-14.8 15.946-17.64 12.375-4.53 26.317.29 32.906 11.97"/><path fill="#0DB14B" d="M624.51 118.505c3.92 8.283 2.376 19.625-3.23 26.67-5.564 6.75-13.006 10.437-21.737 10.202l-83.893.054 70.28-48.89c6.866-4.42 17.302-5.22 24.796-1.64 5.787 2.27 11.235 7.94 13.783 13.62"/><path fill="#FDB913" d="M376.08 118.505c-3.91 8.283-2.377 19.625 3.24 26.67 5.565 6.75 12.984 10.437 21.726 10.202l83.893.054-70.28-48.89c-6.87-4.42-17.3-5.22-24.79-1.64-5.79 2.27-11.24 7.94-13.8 13.62"/><path d="M225.435 205.65c-40.763 0-73.893 33.152-73.893 73.916 0 40.753 33.13 73.925 73.893 73.925 40.764 0 73.916-33.17 73.916-73.92 0-40.76-33.15-73.91-73.91-73.91m0 133.28c-32.73 0-59.37-26.63-59.37-59.36 0-32.71 26.64-59.35 59.38-59.35s59.38 26.64 59.38 59.36c0 32.73-26.64 59.37-59.37 59.37m637.29-58.43c-3.96-2.08-28.08-14.49-31.55-16.3-12.65-6.47-17.14-12.18-17.14-21.86 0-13.45 11.05-22.14 28.18-22.14 10.055 0 19.775 4.43 25.48 7.64 1.035.568 2.26.888 3.54.888 3.986 0 7.26-3.27 7.26-7.26 0-2.685-1.474-5.04-3.64-6.3-7.18-4.01-19.43-9.5-32.64-9.5-25.17 0-42.722 15.074-42.722 36.68 0 19.394 12.75 28.54 25.22 34.915 3.495 1.78 27.896 14.36 31.55 16.29 9.64 5.04 14.97 12.61 14.97 21.32 0 11.67-9.89 24.08-28.193 24.08-17.8 0-31.626-11.94-35.442-15.617l-1.14-1.09-10.755 9.808 1.257 1.26c4.77 4.736 22.23 20.19 46.08 20.19 26.733 0 42.71-19.645 42.71-38.63 0-14.176-8.38-26.704-23.015-34.356M73.9 220.22c15.873 0 30.786 6.185 41.98 17.366 2.664 2.653 7.674 2.653 10.296 0 1.384-1.355 2.12-3.177 2.12-5.128 0-1.93-.736-3.777-2.12-5.13l-.897-.92c-13.84-13.39-32.1-20.752-51.38-20.752-40.75-.006-73.9 33.156-73.9 73.9 0 40.764 33.15 73.936 73.89 73.936 21.51 0 40.89-9.23 54.39-23.94L118 319.257c-10.868 12.063-26.6 19.673-44.1 19.673-32.728 0-59.367-26.646-59.367-59.373 0-32.695 26.64-59.345 59.37-59.345m501.045-.002c15.854 0 30.787 6.185 41.98 17.366 2.653 2.654 7.665 2.654 10.287 0 1.387-1.354 2.154-3.176 2.154-5.127 0-1.93-.77-3.78-2.16-5.13l-.89-.92c-13.87-13.39-32.11-20.76-51.38-20.76-40.75 0-73.92 33.16-73.92 73.9 0 40.76 33.16 73.93 73.91 73.93 21.5 0 40.88-9.23 54.41-23.94l-10.3-10.3c-10.88 12.06-26.63 19.68-44.11 19.68-32.74 0-59.39-26.65-59.39-59.38 0-32.69 26.65-59.34 59.382-59.34m-125.2-14.56c-2.726 0-4.88 1.76-6.053 4.03-1.19 2.27-43.49 106.89-43.5 106.89 0 0-42.3-104.63-43.48-106.9-1.18-2.278-3.333-4.03-6.06-4.03-3.19 0-5.59 2.34-6.43 5.3-.845 2.97-24.71 134.65-24.71 134.65-.088.43-.13.872-.13 1.33 0 3.625 2.95 6.56 6.554 6.56 3.2 0 5.864-2.28 6.44-5.298l20.67-112.665s39.877 98.515 41.04 100.86c1.172 2.333 3.346 4.156 6.12 4.156 2.77 0 4.934-1.823 6.095-4.158 1.17-2.348 41.05-100.865 41.05-100.865l21.48 117.15h13.347S457.02 213.9 456.18 210.93c-.855-2.955-3.254-5.3-6.44-5.3m262.786.01c-2.76-.01-4.9 1.79-6.105 4.136-1.19 2.335-54.73 134.582-54.73 134.582-.32.777-.5 1.642-.5 2.558 0 3.63 2.93 6.57 6.56 6.57 2.76 0 5.13-1.73 6.1-4.17l20.78-51.13h55.825l22.175 54.48h14.162s-56.982-140.55-58.16-142.883c-1.16-2.345-3.322-4.146-6.093-4.136m-21.98 77.99l21.98-54.043 22 54.05h-43.98zm302.42-77.21h-82.29c-4.01 0-7.26 3.267-7.26 7.28 0 4 3.25 7.26 7.26 7.26h34.495v131.7h13.33V220.98h34.474c4.01 0 7.292-3.263 7.292-7.26 0-4.02-3.284-7.282-7.293-7.282"/></svg>