<svg version="1.1" baseProfile="tiny" id="Layer_1" xmlns="http://www.w3.org/2000/svg" xmlns:xlink="http://www.w3.org/1999/xlink" x="0" y="0" width="605" height="235" viewBox="0 0 605 235" overflow="inherit" xml:space="preserve"><path fill="none" d="M592.178,160.702c-5.543,0-9.999,4.419-9.999,9.961c0,5.543,4.456,10.074,9.999,10.074 c5.542,0,10.036-4.531,10.036-10.074C602.214,165.121,597.72,160.702,592.178,160.702z M594.387,176.58v-0.037l-2.434-3.558h-1.686 v3.558h-2.695v-11.759h4.904c2.922,0,4.72,1.46,4.72,4.082c0,1.91-0.975,3.22-2.473,3.67l2.921,4.044H594.387z"/><path fill="none" d="M592.515,167.143h-2.21v3.483h2.136c1.235,0,2.06-0.487,2.06-1.76 C594.5,167.63,593.676,167.143,592.515,167.143z"/><polygon fill="#E72D2B" points="411.263,0.945 411.3,24.95 411.3,182.647 458.635,182.647 458.635,158.567 442.982,158.567 442.982,0.945"/><path fill="#E72D2B" d="M63.738,158.53H47.822V82.471h23.93V58.916h-23.93V40.529c0-11.235,2.921-12.396,14.455-12.396 c3.146,0,5.58,0.15,10.561,0.937l4.344-25.803c-7.34-1.31-15.691-2.359-22.769-2.359c-32.73,0-38.31,11.122-38.31,36.775v21.196 L0,61.538v20.933h16.103v76.096H0v24.043h63.738V158.53z"/><path fill="#E72D2B" d="M339.061,0.945V142.24c0,27.749,6.854,40.407,36.7,40.407c7.078,0,16.777-1.836,24.117-3.37l-4.718-28.35 c-4.944,1.048-9.288,0.937-12.434,1.012c-13.031,0.337-11.908-3.971-11.908-16.29V82.471h24.829V58.916h-24.866V0.945H339.061z"/><path fill="#E72D2B" d="M597.196,168.866c0-2.622-1.798-4.082-4.72-4.082h-4.904v11.759h2.695v-3.558h1.686l2.434,3.558v0.037 h3.258l-2.921-4.044C596.222,172.086,597.196,170.776,597.196,168.866z M592.44,170.626h-2.136v-3.483h2.21 c1.161,0,1.985,0.487,1.985,1.724C594.5,170.139,593.676,170.626,592.44,170.626z"/><path fill="#E72D2B" d="M592.178,158.68c-6.666,0-12.021,5.318-12.021,11.983c0,6.666,5.354,11.947,12.021,11.947 s12.059-5.281,12.059-11.947C604.236,163.96,598.844,158.68,592.178,158.68z M592.178,180.737c-5.543,0-9.999-4.531-9.999-10.074 c0-5.542,4.456-9.961,9.999-9.961c5.542,0,10.036,4.419,10.036,9.961C602.214,176.206,597.72,180.737,592.178,180.737z"/><line fill="none" stroke="#E72D2B" stroke-width="0" stroke-linecap="round" stroke-linejoin="round" x1="299.478" y1="82.397" x2="299.478" y2="82.434"/><path fill="#E72D2B" d="M323.445,82.397V58.879c-14.755-3.745-30.071-6.891-50.256-6.891c-29.809,0-47.672,10.486-47.672,37.224 c0,28.274,22.094,37.749,49.881,42.505c14.755,2.996,19.287,5.991,19.287,12.245c0,4.494-2.547,12.958-18.275,12.958 c-5.655,0-16.478,0.188-26.814-1.798v-4.194h-24.004v23.668c14.754,3.744,34.078,8.015,54.001,8.015 c29.772,0,43.927-14.194,43.927-41.682c0-28.985-23.479-34.453-46.848-39.696c-15.991-3.482-18.051-6.74-18.051-12.732 c0-4.232,1.798-12.059,16.553-12.059c5.168,0,14.717,0,24.304,1.76v4.195H323.445z"/><path fill="#E72D2B" d="M151.143,100.859l-12.245,10.673c-0.637-0.225-1.274-0.337-1.985-0.337c-3.296,0-5.992,2.771-5.992,6.141 c0,3.408,2.696,6.142,5.992,6.142c3.295,0,5.992-2.771,5.992-6.142c0-0.636-0.113-1.273-0.263-1.835l10.898-12.245L151.143,100.859 z"/><g><path fill="none" d="M103.471,119.134c0.899,17.039,14.493,30.745,31.532,31.719v-3.706h3.782v3.743 c16.702-0.897,30.184-14.005,31.607-30.558v-1.048h-3.82v-3.783h3.82v-1.086c-1.46-16.515-14.905-29.622-31.607-30.52v3.744h-3.782 v-3.744c-16.927,0.973-30.483,14.53-31.495,31.457h3.745v3.782H103.471z"/><path fill="#E72D2B" d="M136.838,182.61c12.283,0,23.78-3.408,33.591-9.325l5.73,9.325h33.517V150.89h-7.565v0.038l-0.037-98.715 h-31.719v9.25c-6.516-3.932-13.819-6.704-21.571-8.164h0.187V42.364h3.858v-8.052h-31.944v8.052h3.857v10.935h0.225 C94.633,58.879,71.64,85.43,71.64,117.411C71.64,153.437,100.812,182.61,136.838,182.61z M103.508,115.352 c1.012-16.927,14.568-30.484,31.495-31.457v3.744h3.782v-3.744c16.702,0.898,30.147,14.005,31.607,30.52v1.086h-3.82v3.783h3.82 v1.048c-1.423,16.553-14.905,29.66-31.607,30.558v-3.743h-3.782v3.706c-17.039-0.974-30.633-14.68-31.532-31.719h3.782v-3.782 H103.508z"/><path fill="#E72D2B" d="M548.587,181.187l40.108-98.715h15.653V58.916h-65.423v23.555h15.616l-23.031,56.661l-23.03-56.661h15.615 V58.916h-65.461v23.555h15.654l40.669,100.026c-4.718,14.381-19.773,22.657-33.104,22.657c-2.884,0-8.351-0.525-12.546-1.312 l-2.883,28.798c5.532,1.328,13.089,2.093,19.569,2.3h5.56C519.134,233.703,537.373,208.219,548.587,181.187z"/></g></svg>