<svg xmlns="http://www.w3.org/2000/svg" viewBox="0 0 362.8 81.7"><path d="M124.2 63.3V44.4h-17.3v18.9h-8.8V17.8h8.8v19.1h17.3V17.8h8.8v45.5h-8.8zm39.6 0h-7l-.6-2.2c-3.1 2-6.7 2.9-10.2 2.9-6.2 0-8.9-4.1-8.9-9.8 0-6.7 3-9.2 10-9.2h8.2v-3.4c0-3.6-1.1-4.9-6.5-4.9-3.1 0-6.5.4-9.5 1l-1.1-6.3c3.2-.9 7.9-1.5 11.7-1.5 10.7 0 13.9 3.6 13.9 11.9v21.5zm-8.6-12.4h-6.3c-2.8 0-3.6.7-3.6 3.2 0 2.3.8 3.3 3.4 3.3 2.5 0 4.8-.8 6.5-1.7v-4.8zM180 64c-3.6 0-8.6-.8-11.8-1.9l1.2-6.3c2.9.8 6.7 1.4 10.2 1.4 3.8 0 4.4-.8 4.4-3.3 0-2-.4-3-6-4.3-8.4-2-9.3-4-9.3-10.3 0-6.6 3-9.5 12.8-9.5 3.2 0 7.3.4 10.2 1.1l-.8 6.5c-2.6-.5-6.7-.9-9.4-.9-3.7 0-4.4.8-4.4 2.8 0 2.6.2 2.8 4.8 4 9.5 2.4 10.5 3.6 10.5 10.4-.1 6.4-2.1 10.3-12.4 10.3zm37.4-.7V40.4c0-1.8-.8-2.6-2.7-2.6-2.1 0-5.8 1.2-8.9 2.8v22.8h-8.6V17.2l8.6 1.3V33c3.8-1.9 8.8-3.2 12.5-3.2 5.7 0 7.7 3.8 7.7 9.7v23.8h-8.6zm14.8-37.5v-8h8.6v8h-8.6zm0 37.5V30.5h8.6v32.8h-8.6zm14.4-32.6c0-8.2 5-13 16.6-13 4.4 0 8.8.5 12.7 1.5l-1 7.3c-3.8-.7-8.2-1.1-11.4-1.1-6.1 0-8.1 2-8.1 6.8v17.2c0 4.8 2 6.8 8.1 6.8 3.2 0 7.6-.5 11.4-1.1l1 7.3c-3.9.9-8.4 1.5-12.7 1.5-11.6 0-16.6-4.8-16.6-13V30.7zM293.1 64c-11.7 0-14.9-6.2-14.9-12.9v-8.3c0-6.7 3.2-12.9 14.9-12.9S308 36.1 308 42.8V51c0 6.8-3.2 13-14.9 13zm0-27.2c-4.6 0-6.3 2-6.3 5.7v8.8c0 3.7 1.8 5.7 6.3 5.7 4.6 0 6.3-2 6.3-5.7v-8.8c0-3.7-1.7-5.7-6.3-5.7zm37.3.5c-3.3 1.4-6 2.9-9.1 4.8v21.2h-8.6V30.5h7.2l.6 3.6c1.9-1.2 6-3.5 9-4.3l.9 7.5zm32.5 15.1c0 7.3-3.4 11.6-11.3 11.6-3 0-6.5-.4-9.1-.9v13.4l-8.6 1.3V30.5h6.8l.8 2.8c3-2.1 6.5-3.4 10.8-3.4 6.9 0 10.5 3.9 10.5 11.4v11.1h.1zm-20.5 3.7c2.2.5 5.1.9 7.6.9 3.1 0 4.3-1.4 4.3-4.4V41c0-2.7-1.1-4.2-4.2-4.2-2.8 0-5.8 1.3-7.6 3l-.1 16.3zM46.2 46.6v11.8l11.5-6.5V6.7L46.2 0v35.2H31.7V23.3l-11.4 6.6v45.2l11.4 6.6V46.6"/><path d="M31.7 13.3V.1L0 18.4v45L11.4 70V25m66.5-6.6l-11.4-6.6v45L46.2 68.5v13.2L78 63.4"/></svg>