<svg baseProfile="tiny" xmlns="http://www.w3.org/2000/svg" width="840.669" height="241.083" viewBox="0 0 840.669 241.083" overflow="inherit"><path d="M240.987 98.21h-22.355v-9.885h55.794v9.886H252.07v54.78h-11.083m43.885-64.66h11.73l14.873 49.06h.186l14.05-49.052h10.35L350 137.38h.18l14.964-49.054h11.642L356.37 152.99h-11.92l-13.58-47.39h-.184l-13.58 47.39H305.19m108.784-8.5c12.192 0 21.708-9.05 21.708-24.202 0-14.595-9.422-23.554-21.708-23.554-12.287 0-21.708 8.96-21.708 23.554 0 15.15 9.515 24.204 21.708 24.204m0-57.27c18.752 0 32.977 13.024 32.977 33.07 0 20.505-14.22 33.807-32.97 33.807s-33.07-13.31-33.07-33.81c0-20.05 14.32-33.07 33.07-33.07m127.95 1.1h11.09v64.66h-11.09v-36.14m58.72-29.628c8.867 0 16.35 2.772 22.908 7.297 0 0-6.35 7.437-6.66 7.237-4.896-3.13-10.067-4.928-15.97-4.928-13.303 0-22.08 9.605-22.08 23.28 0 14.87 8.224 24.386 22.08 24.386 4.8 0 9.603-1.2 12.93-3.14v-15.33h-16.26v-8.22h26.51v29.284c-6.28 4.437-14.5 7.02-23.46 7.02-20.23 0-33.16-13.67-33.16-33.99 0-19.03 13.11-32.885 33.16-32.885m39.178 1.106H651l21.335 30.396 21.34-30.392h11.088V153h-10.72v-48.22l-21.8 30.483-21.8-30.48V153H639.82m95.157-22.91h21.062L745.6 99.977h-.184l-10.44 30.112zm4.064-41.754h13.03l23.927 64.662h-11.92l-4.894-13.95H731.93l-4.802 13.95h-12.01l23.925-64.662zM484.59 139.05c5.823 3.156 11.327 5.267 18.44 5.267 8.5 0 12.75-3.694 12.75-8.866 0-14.6-36.397-4.99-36.397-29.65 0-10.344 8.59-18.565 23.09-18.565 8.5 0 17.05 2.047 23.733 5.955l-7.25 7.4c-5.26-2.253-9.746-3.56-16.12-3.56-7.48 0-11.915 3.79-11.915 8.59 0 14.504 36.4 4.62 36.4 29.744 0 10.624-8.034 18.75-24.292 18.75-9.514 0-19.83-3.37-25.917-7.58l7.475-7.474z"/><path fill="#00A7B8" d="M120.592 56.037L55.987 120.66l64.605 64.618 64.62-64.62"/><path fill="#FFF" d="M86.52 138.975c-.5-20.69 24.395-17.996 24.395-28.597 0-3.447-2.696-6.395-8.716-6.395-4.39 0-8.6 2.194-11.67 5.016l-4.58-4.58c3.94-3.7 10.09-6.71 16.55-6.71 10.344 0 15.62 5.77 15.62 12.54 0 15.61-24.21 12.86-24.21 25.9h23.83v6.21H86.58l-.065-3.39zm80.346-30.537H140.42v.002c-10.77.02-18.902 8.603-18.902 20.064 0 9.095 5.894 14.613 14.234 14.613 10.85 0 19.002-8.592 19.002-20.004 0-3.705-.977-6.8-2.68-9.19h9.234l5.558-5.485zm-30.423 28.973c-4.767 0-7.588-3.07-7.588-8.96 0-7.52 5.016-14.3 11.04-14.3 4.702 0 7.525 3.07 7.525 9.03 0 7.53-4.958 14.24-10.977 14.24z"/></svg>